<svg width="1533" height="1652" viewBox="0 0 1533 1652" fill="none" xmlns="http://www.w3.org/2000/svg">
<path fill-rule="evenodd" clip-rule="evenodd" d="M6.31051 86.4013C4.25705 59.2629 2.21629 32.2923 0 5.60944L67.0927 0C69.4005 27.7838 71.4915 55.4177 73.5733 82.9298C79.0386 155.156 84.4403 226.542 93.5326 297.599C94.6747 306.525 95.4335 310.713 96.3738 313.946C97.1551 316.633 98.3379 319.593 101.454 324.983C103.596 328.689 105.665 332.312 107.686 335.849C117.134 352.394 125.522 367.081 135.416 379.764C141.967 388.163 150.139 396.091 160.11 405.053C162.391 407.104 164.842 409.271 167.396 411.531C175.237 418.467 184.062 426.273 192 434.237L144.394 482C138.076 475.661 131.589 469.921 124.238 463.417C121.366 460.876 118.362 458.218 115.184 455.362C104.562 445.814 92.7445 434.659 82.3968 421.394C69.2068 404.484 57.9196 384.657 48.4825 368.079C46.6577 364.874 44.9022 361.79 43.2154 358.872C38.2088 350.212 34.4497 342.172 31.7431 332.865C29.1955 324.104 27.9202 315.303 26.7554 306.2C17.4236 233.272 11.8214 159.233 6.31051 86.4013Z" fill="white"/>
<path fill-rule="evenodd" clip-rule="evenodd" d="M179.338 699.831C175.991 667.295 172.611 634.444 169.701 600.797L237.167 595C239.869 626.24 243.146 658.186 246.455 690.446C251.902 743.545 257.436 797.496 260.638 850.557C262.349 878.906 257.808 897.538 250.83 920.04C243.107 944.943 238.09 976.402 237.276 1002.77C236.986 1012.14 236.146 1021.19 235.324 1029.33C235.156 1030.99 234.991 1032.6 234.829 1034.18C234.167 1040.62 233.574 1046.4 233.172 1052.25C232.194 1066.49 232.679 1077.67 235.832 1088.02C239.569 1100.29 242.225 1112.37 244.524 1123.39C245.001 1125.67 245.459 1127.89 245.907 1130.07C247.7 1138.76 249.329 1146.66 251.329 1154.63L185.635 1171C183.253 1161.5 181.266 1151.86 179.451 1143.05C179.035 1141.03 178.628 1139.05 178.227 1137.13C175.995 1126.43 173.84 1116.84 171.036 1107.63C164.419 1085.9 164.401 1065.3 165.615 1047.64C166.102 1040.54 166.841 1033.36 167.513 1026.84C167.662 1025.38 167.809 1023.96 167.949 1022.57C168.747 1014.66 169.379 1007.58 169.592 1000.69C170.58 968.69 176.494 931.193 186.134 900.11C191.949 881.359 194.066 871.523 193.045 854.609C189.901 802.51 184.66 751.567 179.338 699.831Z" fill="white"/>
<path fill-rule="evenodd" clip-rule="evenodd" d="M297.899 1328.91C284.886 1316.21 272.434 1304.06 260 1292.65L305.737 1243C319.066 1255.23 332.256 1268.1 345.15 1280.69L345.546 1281.08C358.428 1293.65 371.046 1305.97 383.92 1317.86C409.999 1341.93 435.827 1362.98 463.35 1378.24C469.556 1381.68 475.858 1383.68 484.355 1385.59C486.328 1386.03 488.786 1386.53 491.561 1387.1C498.939 1388.6 508.564 1390.57 517.303 1393.11C538.924 1399.41 559.883 1399.25 587.355 1399.06C592.41 1399.02 597.686 1398.98 603.227 1398.98C605.829 1398.98 608.439 1398.98 611.058 1398.98C676.486 1398.93 747.148 1398.88 816 1426.37L790.903 1489C734.353 1466.42 675.378 1466.43 606.161 1466.43C605.185 1466.43 604.207 1466.43 603.227 1466.43C598.915 1466.43 594.436 1466.48 589.815 1466.53C562.563 1466.83 530.378 1467.18 498.382 1457.86C492.315 1456.1 487.47 1455.12 481.513 1453.92C478.047 1453.22 474.203 1452.44 469.522 1451.39C458.079 1448.82 444.743 1445.09 430.532 1437.2C396.06 1418.09 365.615 1392.83 338.037 1367.38C324.463 1354.84 311.267 1341.96 298.591 1329.59L297.899 1328.91Z" fill="white"/>
<path fill-rule="evenodd" clip-rule="evenodd" d="M1497.42 1410.41C1494.75 1416.7 1489.24 1426.63 1478 1432.99C1469.54 1437.78 1461.26 1438.1 1457.5 1438.09C1452.98 1438.06 1448.82 1437.42 1445.67 1436.79C1439.29 1435.51 1432.76 1433.41 1427.46 1431.52C1421.09 1429.24 1414.93 1426.69 1410.32 1424.69C1406.46 1425.48 1401.59 1425.99 1395.96 1425.39C1358.78 1421.39 1316.73 1436.89 1297.66 1462.72C1296.39 1464.44 1294.76 1466.73 1292.94 1469.29C1289.04 1474.78 1284.2 1481.58 1279.9 1486.99C1272.79 1495.91 1263.46 1506.07 1250.98 1514.03C1233.2 1525.37 1219.84 1537.12 1213.93 1548.97C1197.88 1581.15 1165.95 1585.03 1146.35 1583.96C1131.45 1583.14 1114.46 1578.9 1104.27 1576.36C1101.75 1575.73 1099.65 1575.21 1098.1 1574.87L965.963 1545.64L980.548 1479.71L1112.68 1508.94C1116 1509.67 1119.52 1510.54 1122.71 1511.33L1123.05 1511.41C1126.49 1512.26 1129.74 1513.07 1133.03 1513.81C1139.73 1515.32 1145.36 1516.28 1150.03 1516.53C1152.16 1516.65 1153.68 1516.59 1154.7 1516.5C1169.45 1488.67 1195.34 1469.43 1214.68 1457.1C1218.22 1454.84 1222.15 1451.11 1227.08 1444.92C1230.45 1440.69 1233 1437.07 1236 1432.82C1238.09 1429.87 1240.39 1426.6 1243.33 1422.62C1278.95 1374.37 1344.57 1353.46 1398.77 1357.84C1401.71 1356.98 1406.85 1355.7 1413.31 1355.87C1420 1356.05 1426.24 1357.73 1431.95 1360.39C1432.82 1360.8 1434.54 1361.58 1436.78 1362.56C1436.78 1360.51 1436.76 1358.35 1436.72 1356.1C1436.6 1349.1 1436.32 1342.4 1436.04 1335.7C1435.89 1332.08 1435.74 1328.47 1435.61 1324.81C1435.44 1319.91 1435.32 1314.91 1435.39 1310.4C1435.45 1306.47 1435.66 1300.61 1436.9 1295.03L1502.83 1309.61C1502.97 1309 1503.01 1308.63 1503.02 1308.63C1503.03 1308.63 1502.94 1309.45 1502.91 1311.45C1502.87 1314.22 1502.94 1317.86 1503.1 1322.48C1503.19 1325.21 1503.32 1328.33 1503.46 1331.7C1503.76 1338.89 1504.1 1347.17 1504.24 1354.91C1504.44 1366.33 1504.29 1379.51 1502.56 1391.08C1501.71 1396.84 1500.25 1403.74 1497.42 1410.41ZM1459.32 1370.65C1459.32 1370.65 1459.3 1370.65 1459.25 1370.64C1459.3 1370.64 1459.32 1370.65 1459.32 1370.65Z" fill="white"/>
<path d="M1464 1198L1533 1319H1395L1464 1198Z" fill="white"/>
</svg>
