<svg width="1763" height="1169" viewBox="0 0 1763 1169" fill="none" xmlns="http://www.w3.org/2000/svg">
<path fill-rule="evenodd" clip-rule="evenodd" d="M1707.42 30.0452C1705.97 22.5484 1704.4 14.4957 1703.3 6.84799L1752.38 0C1753.31 6.39673 1754.57 12.9151 1755.98 20.1994C1756.42 22.4439 1756.87 24.761 1757.32 27.1697C1759.18 36.9631 1761.09 47.85 1761.96 58.9209C1763.7 81.0845 1761.51 106.94 1744 129.877L1704.34 100.654C1711.56 91.1931 1713.83 79.2538 1712.53 62.659C1711.88 54.3507 1710.4 45.6175 1708.59 36.1041C1708.22 34.1403 1707.82 32.1139 1707.42 30.0452Z" fill="white"/>
<path fill-rule="evenodd" clip-rule="evenodd" d="M1603.28 181.221C1623.77 173.28 1645.06 165.03 1666.11 158.167L1681.44 205.067C1661.57 211.549 1642.63 218.895 1623.02 226.504C1612.28 230.67 1601.34 234.916 1589.92 239.142C1558.61 250.736 1525.5 261.448 1490.14 266.353C1469.77 269.18 1448.41 268.859 1429.54 268.575C1424.12 268.493 1418.9 268.415 1413.97 268.415V219.077C1420.56 219.077 1426.84 219.167 1432.9 219.253C1450.97 219.511 1467.08 219.741 1483.35 217.484C1513.38 213.319 1542.53 204.073 1572.75 192.881C1582.63 189.224 1592.85 185.262 1603.28 181.221Z" fill="white"/>
<path fill-rule="evenodd" clip-rule="evenodd" d="M1269.13 209.543C1283.3 210.344 1296.97 211.116 1309.81 211.477L1308.39 260.005C1292.33 259.554 1276.65 258.673 1261.28 257.81C1220.51 255.52 1181.96 253.356 1144.57 259.664C1128.37 262.396 1112.56 263.611 1096.35 263.611V215.063C1109.96 215.063 1122.94 214.049 1136.17 211.819C1179.63 204.488 1226.68 207.145 1269.13 209.543Z" fill="white"/>
<path fill-rule="evenodd" clip-rule="evenodd" d="M891.69 216.051C907.241 220.147 921.818 223.946 935.612 226.917L925.135 275.184C910.074 271.94 894.443 267.856 879.019 263.794C878.15 263.565 877.281 263.336 876.413 263.107C861.695 259.229 847.106 255.385 832.48 252.035C801.3 244.893 772.089 240.537 745.752 242.922C745.002 242.99 744.317 243.162 740.41 244.176C737.225 245.002 731.498 246.478 724.739 246.478V197.096C724.736 197.096 724.733 197.096 724.73 197.096C724.806 197.091 725.461 197.025 727.917 196.388C728.152 196.326 728.425 196.254 728.732 196.172C731.264 195.498 736.099 194.21 741.264 193.742C775.553 190.637 810.92 196.425 843.588 203.908C859.032 207.445 874.351 211.482 888.897 215.315C889.831 215.562 890.762 215.807 891.69 216.051ZM724.723 197.096C724.723 197.096 724.726 197.096 724.73 197.096Z" fill="white"/>
<path fill-rule="evenodd" clip-rule="evenodd" d="M576.871 270.213C580.429 263.691 583.965 257.209 587.438 250.752L630.852 273.992C627.126 280.919 623.431 287.704 619.791 294.387C598.704 333.106 579.477 368.411 566.951 408.105C566.057 410.936 565.182 414.684 563.95 420.083L563.854 420.505C562.734 425.413 561.369 431.399 559.651 437.289C556.59 447.783 550.484 465.635 535.221 475.786L507.892 434.89C507.558 435.112 507.405 435.266 507.404 435.265C507.403 435.263 507.864 434.787 508.627 433.373C509.8 431.198 511.048 427.999 512.345 423.555C513.632 419.142 514.711 414.432 515.91 409.175L516.002 408.771C517.088 404.009 518.384 398.326 519.956 393.345C534.034 348.733 555.838 308.767 576.871 270.213Z" fill="white"/>
<path fill-rule="evenodd" clip-rule="evenodd" d="M498.842 772.22C489.71 718.302 480.392 663.282 475.256 607.6L523.767 603.091C528.717 656.747 537.662 709.597 546.783 763.481C548.663 774.584 550.549 785.732 552.41 796.939L504.354 804.979C502.549 794.107 500.699 783.186 498.842 772.22Z" fill="white"/>
<path fill-rule="evenodd" clip-rule="evenodd" d="M363.383 1042.94C412.114 1013.32 443.005 979.721 461.149 924.568L507.405 940.191C484.887 1008.64 445.123 1050.86 388.469 1085.31L363.383 1042.94Z" fill="white"/>
<path fill-rule="evenodd" clip-rule="evenodd" d="M214.813 1119.91C219.705 1119.9 224.649 1119.88 229.647 1119.88V1168.75C224.583 1168.75 219.398 1168.78 214.11 1168.82C165.812 1169.14 108.983 1169.51 58.6211 1144.45L80.5815 1100.74C119.809 1120.26 164.521 1120.1 214.813 1119.91Z" fill="white"/>
<path fill-rule="evenodd" clip-rule="evenodd" d="M25.1875 1049.3V946.429H75.3379V1049.3H25.1875Z" fill="white"/>
<path d="M50.9063 883.419L101.057 970.861H0.755859L50.9063 883.419Z" fill="white"/>
</svg>
