<svg width="1157" height="2507" viewBox="0 0 1157 2507" fill="none" xmlns="http://www.w3.org/2000/svg">
<path fill-rule="evenodd" clip-rule="evenodd" d="M654.313 60.1851C652.734 41.4802 651.1 22.1126 650.246 2.90914L707.953 0.33252C708.75 18.2714 710.264 36.2287 711.836 54.8671C712.197 59.1593 712.562 63.4877 712.922 67.8602C714.803 90.7072 716.514 114.449 716.539 138.314C716.7 138.64 716.992 139.179 717.518 140.036C718.209 141.159 719.004 142.355 720.246 144.222L672.183 176.333C671.949 175.98 671.697 175.605 671.43 175.208C667.076 168.739 658.775 156.405 658.775 138.837C658.775 117.342 657.232 95.4374 655.354 72.6189C655.016 68.5136 654.666 64.3659 654.313 60.1851Z" fill="white"/>
<path fill-rule="evenodd" clip-rule="evenodd" d="M728.369 310.152C719.842 295.076 711.959 281.14 702.246 267.011L750.024 234.333C760.817 250.031 771.262 268.396 780.914 285.366C786.173 294.612 791.197 303.444 795.913 311.206C810.527 335.259 825.227 354.91 844.221 368.944C846.26 370.451 848.435 372.038 850.714 373.702C866.687 385.362 887.742 400.731 902.716 417.908C906.045 421.726 911.205 426.373 918.686 432.744C919.89 433.769 921.152 434.837 922.457 435.943C928.623 441.162 935.764 447.207 942.383 453.457C957.019 467.273 978.246 490.083 978.246 520.333H920.314C920.314 516.848 917.201 509.246 902.561 495.424C897.191 490.354 891.513 485.544 885.399 480.365C883.98 479.162 882.537 477.94 881.069 476.689C873.87 470.559 865.543 463.329 859.001 455.825C848.634 443.933 833.47 432.805 816.836 420.597C814.496 418.88 812.127 417.142 809.738 415.377C781.629 394.608 762.236 367.269 746.369 341.155C739.655 330.105 733.877 319.89 728.369 310.152Z" fill="white"/>
<path fill-rule="evenodd" clip-rule="evenodd" d="M997.913 737.364C995.364 727.591 992.788 717.713 990.246 707.707L1045.96 693.333C1048.31 702.596 1050.78 711.999 1053.27 721.527C1068.62 780.095 1085.2 843.411 1085.2 908.504C1085.2 935.219 1085.8 959.506 1092.25 979.004L1037.69 997.333C1027.82 967.503 1027.69 933.803 1027.69 908.504C1027.69 851.549 1013.3 796.353 997.913 737.364Z" fill="white"/>
<path fill-rule="evenodd" clip-rule="evenodd" d="M1063.01 1310.68C1060.88 1281.01 1058.72 1250.94 1057.25 1220.09L1115.3 1217.33C1116.63 1245.15 1118.68 1273.93 1120.76 1303.13C1124.46 1354.89 1128.25 1407.97 1128.25 1459.33H1070.13C1070.13 1409.63 1066.61 1360.71 1063.01 1310.68Z" fill="white"/>
<path fill-rule="evenodd" clip-rule="evenodd" d="M1086.82 1908.64C1087.97 1848.39 1089.27 1785.74 1099.46 1723.33L1156.25 1732.71C1146.83 1790.38 1145.52 1848.96 1144.35 1909.76C1144.33 1911.04 1144.31 1912.32 1144.28 1913.6C1143.15 1972.55 1141.98 2033.66 1132.6 2094.33C1124.39 2147.45 1109.74 2220.25 1062.94 2267.33L1022.25 2226.4C1054.21 2194.24 1067.32 2139.85 1075.74 2085.43C1084.51 2028.68 1085.62 1970.94 1086.77 1910.79L1086.82 1908.64Z" fill="white"/>
<path fill-rule="evenodd" clip-rule="evenodd" d="M554.246 2448.32C678.964 2448.32 810.666 2437.91 928.273 2406.33L943.246 2462.37C818.883 2495.77 681.621 2506.33 554.246 2506.33V2448.32Z" fill="white"/>
<path fill-rule="evenodd" clip-rule="evenodd" d="M149.634 2317.33C152.139 2327.97 154.958 2337.06 159.907 2346.43C163.758 2353.73 168.685 2360.55 174.916 2368.63C175.854 2369.85 176.838 2371.12 177.857 2372.43C182.963 2379 188.944 2386.69 194.316 2394.94C194.431 2395.02 194.572 2395.13 194.742 2395.25C195.992 2396.13 197.981 2397.28 200.717 2398.54C206.263 2401.08 212.558 2403.01 216.692 2403.93C246.902 2410.67 276.905 2418.26 306.473 2425.75L307.691 2426.06C337.79 2433.68 367.451 2441.18 397.246 2447.78L384.79 2504.33C354.02 2497.51 323.538 2489.8 293.559 2482.21L292.707 2482C262.885 2474.45 233.564 2467.02 204.166 2460.47C196.626 2458.79 186.408 2455.66 176.695 2451.2C168.326 2447.36 154.58 2440.03 146.462 2427.36C142.453 2421.11 138.053 2415.44 132.754 2408.6C131.622 2407.14 130.448 2405.63 129.229 2404.05C122.69 2395.56 115.178 2385.47 108.876 2373.53C100.719 2358.08 96.5164 2343.71 93.44 2330.65C92.1724 2325.27 91.1905 2320.64 90.2702 2316.31C88.7598 2309.19 87.4155 2302.86 85.2461 2295.24L140.765 2279.33C143.409 2288.61 145.55 2298.59 147.355 2307C148.18 2310.84 148.934 2314.36 149.634 2317.33ZM193.905 2394.6C193.905 2394.6 193.92 2394.61 193.946 2394.63C193.917 2394.61 193.904 2394.6 193.905 2394.6Z" fill="white"/>
<path fill-rule="evenodd" clip-rule="evenodd" d="M93.6569 2147.59C100.288 2170.05 107.361 2194 112.246 2217.6L55.5244 2229.33C51.1488 2208.19 45.1765 2187.98 38.8466 2166.56C36.0144 2156.98 33.1105 2147.16 30.2461 2136.9L86.0373 2121.33C88.3911 2129.76 90.9881 2138.56 93.6569 2147.59Z" fill="white"/>
<path d="M59.7461 2039.33L119.246 2141.33H0.246094L59.7461 2039.33Z" fill="white"/>
</svg>
