<svg width="1366" height="1669" viewBox="0 0 1366 1669" fill="none" xmlns="http://www.w3.org/2000/svg">
<path fill-rule="evenodd" clip-rule="evenodd" d="M0 211C0 140.467 1.64331 70.2676 3.80625 0L55 1.59907C52.8438 71.6462 51.2183 141.241 51.2183 211H0Z" fill="white"/>
<path fill-rule="evenodd" clip-rule="evenodd" d="M32.6589 312.991C29.4309 307.911 26.2121 302.845 23 297.8L67.0311 270C70.2276 275.021 73.4162 280.038 76.6005 285.049C108.302 334.929 139.582 384.148 174 429.849L132.292 461C96.5602 413.554 64.1682 362.578 32.6589 312.991Z" fill="white"/>
<path fill-rule="evenodd" clip-rule="evenodd" d="M234.443 571.281C227.355 561.721 220.028 551.838 213 541.808L255.41 512C262.01 521.418 268.887 530.696 276.007 540.301C277.076 541.743 278.151 543.193 279.23 544.651C287.402 555.688 295.814 567.151 303.784 578.983C319.722 602.644 334.587 628.766 343.474 658.744C347.478 672.252 353.554 684.88 361 699.795L314.658 723C307.305 708.273 299.26 691.917 293.805 673.512C287.042 650.699 275.362 629.572 260.832 608.001C253.567 597.217 245.764 586.568 237.611 575.556C236.562 574.139 235.505 572.714 234.443 571.281Z" fill="white"/>
<path fill-rule="evenodd" clip-rule="evenodd" d="M357.355 908.194C356.383 892.446 355.409 877.416 354 863.083L405.996 858C407.509 873.388 408.532 889.289 409.502 904.992C409.592 906.461 409.683 907.929 409.773 909.395C410.655 923.737 411.527 937.909 412.726 951.994C415.38 983.164 419.52 1012.16 428 1037.53L378.436 1054C367.976 1022.71 363.428 988.818 360.668 956.401C359.414 941.671 358.505 926.885 357.629 912.638C357.537 911.15 357.446 909.669 357.355 908.194Z" fill="white"/>
<path fill-rule="evenodd" clip-rule="evenodd" d="M501.637 1345.53C479.126 1311.87 456.142 1278.52 433 1245.03L475.3 1215C498.44 1248.49 521.628 1282.13 544.384 1316.15C546.444 1319.23 547.689 1321.22 548.493 1322.54C548.632 1322.77 548.765 1322.99 548.855 1323.14C548.881 1323.18 548.903 1323.21 548.921 1323.24C548.977 1323.34 549 1323.37 549 1323.37C549 1323.37 548.972 1323.33 548.931 1323.26C548.883 1323.19 548.771 1323.01 548.614 1322.78C548.463 1322.55 548.19 1322.16 547.822 1321.68C547.466 1321.21 546.867 1320.45 546.047 1319.59C545.388 1318.9 544.431 1317.97 543.167 1316.99C542.867 1316.75 542.55 1316.52 542.216 1316.28C542.082 1316.19 541.945 1316.1 541.806 1316L519.114 1362C519.259 1362.08 520.093 1362.5 521.445 1362.92C522.817 1363.34 525.217 1363.93 528.318 1363.91C529.921 1363.9 531.46 1363.72 532.907 1363.43C533.702 1363.27 534.433 1363.08 534.81 1362.97C534.513 1363.06 533.933 1363.22 533.26 1363.37C532.23 1363.6 530.385 1363.95 528.053 1364C522.337 1364.1 517.041 1362.29 512.781 1359.3C509.479 1356.98 507.516 1354.42 506.929 1353.65C506.178 1352.66 505.635 1351.8 505.464 1351.53L505.463 1351.53C505.22 1351.15 504.809 1350.47 504.642 1350.2C504.61 1350.14 504.587 1350.1 504.576 1350.09C504.131 1349.36 503.275 1347.98 501.637 1345.53ZM535.021 1362.91C535.148 1362.87 535.052 1362.9 534.81 1362.97C534.939 1362.93 535.014 1362.91 535.021 1362.91Z" fill="white"/>
<path fill-rule="evenodd" clip-rule="evenodd" d="M768.629 1573.46C730.521 1551.99 689.903 1529.11 654 1501.61L685.439 1460C718.142 1485.06 754.614 1505.62 792.347 1526.89C802.416 1532.57 812.575 1538.3 822.777 1544.18C827.492 1546.89 831.43 1549.28 835.195 1551.56C840.185 1554.59 844.87 1557.43 850.651 1560.61C859.725 1565.58 867.571 1569.02 874.61 1570.63C877.308 1571.25 879.728 1571.98 881.622 1572.57C882.656 1572.89 883.379 1573.13 883.999 1573.33C884.781 1573.58 885.399 1573.78 886.272 1574.04C888.365 1574.67 888.999 1574.72 889 1574.72C889 1574.72 888.979 1574.72 888.941 1574.72V1627C881.614 1627 875.457 1625.35 871.391 1624.13C869.194 1623.47 867.797 1623.01 866.733 1622.67C865.296 1622.2 864.47 1621.93 863.103 1621.62C849.243 1618.44 836.531 1612.4 825.808 1606.51C819.732 1603.18 812.621 1598.9 806.467 1595.19C802.841 1593.01 799.547 1591.03 796.992 1589.55C787.777 1584.25 778.284 1578.9 768.629 1573.46Z" fill="white"/>
<path fill-rule="evenodd" clip-rule="evenodd" d="M1080.02 1654.28C1062.44 1651.14 1045.54 1648.13 1029 1645.77L1036.22 1594C1053.66 1596.49 1071.34 1599.64 1088.67 1602.73C1089.41 1602.86 1090.15 1602.99 1090.89 1603.13C1109.09 1606.37 1126.96 1609.52 1144.77 1611.99C1180.45 1616.94 1214.36 1618.88 1246.51 1613.46L1255 1665.03C1215.37 1671.72 1175.53 1669.03 1137.75 1663.79C1118.83 1661.17 1100.04 1657.84 1081.93 1654.62C1081.29 1654.5 1080.66 1654.39 1080.02 1654.28Z" fill="white"/>
<path fill-rule="evenodd" clip-rule="evenodd" d="M1343.84 1514.93C1344.84 1517.93 1346.15 1521.06 1347.65 1524.64C1353.29 1538.13 1352.68 1551.72 1350.12 1562.97C1347.58 1574.14 1342.78 1584.63 1337.94 1593.51C1333.03 1602.5 1327.47 1610.93 1322.77 1617.86C1321.6 1619.59 1320.52 1621.18 1319.52 1622.64C1316.17 1627.55 1313.76 1631.09 1312.05 1634L1267 1607.25C1269.71 1602.63 1273.53 1597.04 1277.06 1591.87C1277.91 1590.62 1278.75 1589.4 1279.55 1588.21C1284.07 1581.54 1288.45 1574.84 1292.08 1568.19C1295.77 1561.42 1298.1 1555.75 1299.12 1551.24C1300.13 1546.83 1299.51 1545.24 1299.43 1545.07C1299.36 1544.89 1299.28 1544.71 1299.2 1544.52C1297.87 1541.33 1295.87 1536.57 1294.23 1531.62C1292.61 1526.74 1290.5 1519.33 1290.5 1511.46H1342.81C1342.81 1511.16 1342.79 1511 1342.79 1511C1342.79 1511 1342.81 1511.2 1342.91 1511.64C1343.07 1512.41 1343.37 1513.5 1343.84 1514.93Z" fill="white"/>
<path d="M1313.5 1419L1366 1511H1261L1313.5 1419Z" fill="white"/>
</svg>
