<svg width="1503" height="1095" viewBox="0 0 1503 1095" fill="none" xmlns="http://www.w3.org/2000/svg">
<path fill-rule="evenodd" clip-rule="evenodd" d="M1476.04 1027.5C1475.13 1034.44 1474.45 1039.94 1474.19 1044.54L1423.25 1041.77C1423.62 1035 1424.58 1027.64 1425.45 1021.03C1425.49 1020.71 1425.53 1020.4 1425.57 1020.08C1426.44 1013.49 1427.25 1007.32 1427.75 1001.26C1428.88 987.561 1427.81 979.838 1425.9 976.069L1471.53 953.544C1480.23 970.718 1479.8 990.797 1478.6 1005.35C1477.99 1012.65 1477.04 1019.92 1476.21 1026.25C1476.15 1026.67 1476.1 1027.08 1476.04 1027.5Z" fill="white"/>
<path fill-rule="evenodd" clip-rule="evenodd" d="M1.03571 32.6545C0.793027 22.3297 0.55296 12.1163 0.246094 2.06693L50.5426 0.544189C50.8735 11.3823 51.1263 22.1009 51.377 32.7275C52.1473 65.387 52.8971 97.1788 55.8322 128.908C55.8918 129.553 55.941 130.164 55.9809 130.673C55.9967 130.874 56.0103 131.048 56.0227 131.209C56.0455 131.502 56.0647 131.75 56.0875 132.029C56.1538 132.842 56.1981 133.247 56.2318 133.49C56.2389 133.541 56.2439 133.573 56.2461 133.586C56.2399 133.552 56.2114 133.403 56.1486 133.172C56.0388 132.768 55.8065 132.04 55.3528 131.137L10.3454 153.544C6.19106 145.271 5.79279 135.201 5.73299 133.689C5.729 133.588 5.72651 133.525 5.72452 133.504C2.61636 99.9024 1.81263 65.7081 1.03571 32.6545Z" fill="white"/>
<path fill-rule="evenodd" clip-rule="evenodd" d="M43.9942 257.609C41.9396 251.531 40.0053 245.81 38.2461 240.623L86.3274 224.544C88.1259 229.847 90.0901 235.657 92.1661 241.797C101.802 270.299 113.848 305.928 122.915 331.065C123.537 332.791 124.344 335.264 125.117 337.635C125.379 338.437 125.636 339.227 125.882 339.972C126.981 343.309 128.194 346.888 129.515 350.378C130.858 353.924 132.165 356.98 133.377 359.337C133.786 360.131 134.119 360.716 134.365 361.126C134.575 361.247 134.808 361.38 135.078 361.533C135.168 361.584 135.269 361.641 135.376 361.701C135.702 361.886 136.09 362.105 136.45 362.311C137.4 362.855 138.801 363.667 140.246 364.624L112.104 406.54C112.114 406.547 112.111 406.545 112.092 406.533C112.064 406.515 112 406.475 111.893 406.411C111.714 406.304 111.476 406.164 111.134 405.969C111.011 405.899 110.815 405.788 110.576 405.652C109.952 405.299 109.033 404.778 108.348 404.379C106.458 403.276 102.326 400.841 98.6333 397.174C93.8068 392.381 90.4303 386.596 88.1977 382.256C85.7827 377.563 83.718 372.574 82.0274 368.11C80.3158 363.591 78.8339 359.196 77.6589 355.627C77.2258 354.312 76.8605 353.191 76.5467 352.229C75.9169 350.298 75.495 349.005 75.1511 348.051C65.8918 322.381 53.6227 286.09 43.9942 257.609Z" fill="white"/>
<path fill-rule="evenodd" clip-rule="evenodd" d="M203.981 651.619C180.618 602.191 157.549 550.896 139.246 498.089L186.885 481.544C204.27 531.704 226.393 581.014 249.561 630.033C249.923 630.798 250.292 631.567 250.664 632.341C254.763 640.886 259.246 650.229 259.246 665.544H208.821C208.821 662.943 208.54 661.956 208.247 661.082C208.012 660.386 207.634 659.428 206.909 657.831C206.378 656.662 205.833 655.518 205.138 654.058C204.795 653.336 204.414 652.537 203.981 651.619Z" fill="white"/>
<path fill-rule="evenodd" clip-rule="evenodd" d="M289.584 842.714C282.316 831.994 276.028 822.75 270.246 815.233L310.241 784.544C317.111 793.476 324.274 804.041 331.307 814.413L331.478 814.666C338.647 825.239 345.874 835.897 353.468 846.102C369.275 867.346 384.158 883.036 398.322 890.175C401.204 891.628 405.56 892.93 412.285 894.275C414.003 894.618 416.327 895.037 418.911 895.503C423.886 896.399 429.822 897.469 434.246 898.509L422.695 947.544C419.126 946.706 416.142 946.183 412.544 945.552C409.726 945.058 406.531 944.498 402.384 943.669C394.643 942.121 384.786 939.778 375.599 935.147C350.106 922.297 329.294 898.065 312.989 876.151C304.73 865.052 296.975 853.615 289.979 843.296L289.584 842.714Z" fill="white"/>
<path fill-rule="evenodd" clip-rule="evenodd" d="M850.305 1001.46C843.221 997.937 836.208 994.452 829.246 991.13L850.987 945.544C858.595 949.175 865.867 952.723 872.859 956.136C930.557 984.295 969.279 1003.19 1021.49 982.302L1040.25 1029.2C965.944 1058.93 905.936 1029.1 850.305 1001.46Z" fill="white"/>
<path fill-rule="evenodd" clip-rule="evenodd" d="M1471.25 1058.38C1446.31 1070.77 1418.87 1083.84 1386.71 1089.53C1315.23 1102.15 1243.06 1088.46 1177.18 1075.96C1162.53 1073.18 1148.2 1070.46 1134.25 1068.1L1142.71 1018.68C1158.87 1021.41 1174.71 1024.39 1190.28 1027.31C1255.61 1039.59 1316.44 1051.02 1377.87 1040.17C1402.13 1035.88 1423.76 1025.92 1448.68 1013.54L1471.25 1058.38Z" fill="white"/>
<path d="M1450.75 884.544L1502.25 974.544H1399.25L1450.75 884.544Z" fill="white"/>
<path fill-rule="evenodd" clip-rule="evenodd" d="M534.932 943.258C531.706 943.126 528.477 942.993 525.246 942.858L527.34 892.544C531.723 892.727 536.16 892.904 540.645 893.083C611.738 895.924 694.794 899.243 761.246 932.503L738.748 977.544C682.339 949.311 609.495 946.32 534.932 943.258Z" fill="white"/>
</svg>
