<svg width="1346" height="1945" viewBox="0 0 1346 1945" fill="none" xmlns="http://www.w3.org/2000/svg">
<path fill-rule="evenodd" clip-rule="evenodd" d="M1012.62 55.5981C1012.87 36.6539 1013.1 19.0715 1012.56 2.49658L1074.95 0.520264C1075.53 18.6161 1075.28 37.8848 1075.03 56.8557C1074.98 60.7498 1074.93 64.6313 1074.89 68.4876C1074.63 91.5527 1074.62 114.286 1076.13 136.404C1079.18 181.049 1088.26 219.312 1110.33 248.445L1060.4 285.52C1027.57 242.194 1017.2 189.609 1013.85 140.577C1012.16 115.855 1012.21 91.0427 1012.47 67.799C1012.52 63.6689 1012.57 59.6031 1012.62 55.5981Z" fill="white"/>
<path fill-rule="evenodd" clip-rule="evenodd" d="M1246.45 646.098C1202.05 571.68 1154.67 497.959 1105.33 426.755L1156.27 391.521C1206.42 463.9 1254.56 538.803 1299.66 614.4C1300.13 615.181 1300.61 615.977 1301.09 616.789C1310.3 632.191 1322.73 652.994 1329.72 673.956C1330.85 677.335 1331.86 679.449 1333.4 682.657C1334.46 684.876 1335.78 687.618 1337.55 691.663C1341.19 699.942 1345.33 711.267 1345.33 725.521H1283.38C1283.38 723.629 1282.97 721.424 1280.82 716.531C1280.04 714.746 1279.38 713.355 1278.56 711.63C1277.98 710.402 1277.32 709.005 1276.47 707.177C1274.74 703.429 1272.71 698.798 1270.95 693.531C1266.15 679.141 1256.8 663.436 1246.45 646.098Z" fill="white"/>
<path fill-rule="evenodd" clip-rule="evenodd" d="M1237.76 1041.58C1251.51 979.229 1265.09 917.654 1274.93 854.521L1336.33 864.004C1326.23 928.8 1311.87 993.98 1297.83 1057.72C1290.32 1091.83 1282.89 1125.52 1276.26 1158.52L1215.33 1146.39C1222.46 1110.95 1230.13 1076.15 1237.76 1041.58Z" fill="white"/>
<path fill-rule="evenodd" clip-rule="evenodd" d="M1216.82 1411.89C1215.92 1396.8 1214.96 1380.72 1214.53 1364.15L1276.85 1362.52C1277.26 1377.98 1278.14 1392.85 1279.04 1407.89C1279.23 1411.19 1279.43 1414.5 1279.62 1417.83C1280.67 1436.02 1281.58 1454.59 1281.27 1473.1C1280.64 1510.59 1275.01 1548.91 1255.1 1588.52L1199.33 1560.79C1213.77 1532.07 1218.4 1503.68 1218.94 1472.06C1219.21 1456.03 1218.42 1439.44 1217.38 1421.39C1217.2 1418.27 1217.01 1415.1 1216.82 1411.89Z" fill="white"/>
<path fill-rule="evenodd" clip-rule="evenodd" d="M1042.35 1734.05C1073.99 1717.24 1104.11 1701.13 1131.7 1682.52L1166.33 1733.88C1135.61 1754.61 1102.62 1772.18 1071.4 1788.76L1070.35 1789.32C1039 1805.97 1009.5 1821.64 982.689 1839.52L948.334 1787.97C977.754 1768.36 1009.62 1751.43 1040.04 1735.27C1040.81 1734.86 1041.58 1734.45 1042.35 1734.05Z" fill="white"/>
<path fill-rule="evenodd" clip-rule="evenodd" d="M682.539 1853.54C705.212 1851.1 728.231 1848.63 751.847 1846.52L757.334 1908.43C736.182 1910.31 714.572 1912.64 692.654 1914.99C637.93 1920.88 581.288 1926.97 525.063 1926.97C519.061 1926.97 512.526 1927.28 504.923 1927.65C504.671 1927.66 504.419 1927.68 504.165 1927.69C497.019 1928.04 489.007 1928.44 480.965 1928.51C464.714 1928.65 444.863 1927.57 426.334 1920.14L449.35 1862.43C456.383 1865.25 466.355 1866.48 480.432 1866.36C487.193 1866.3 494.107 1865.96 501.621 1865.59L501.871 1865.57C509.212 1865.21 517.277 1864.81 525.063 1864.81C577.797 1864.81 629.208 1859.28 682.539 1853.54Z" fill="white"/>
<path fill-rule="evenodd" clip-rule="evenodd" d="M102.108 1825.21C101.244 1814.98 99.1119 1805.65 97.4552 1798.4C97.3487 1797.94 97.2443 1797.48 97.1422 1797.03C94.7672 1786.6 93.3158 1779.57 93.3158 1772.52H31.334C31.334 1787.13 34.3448 1800.35 36.5509 1810.03C36.5977 1810.23 36.6441 1810.44 36.6901 1810.64C39.1377 1821.39 40.5165 1827.88 40.5165 1834.15C40.5165 1851.21 51.6738 1862.78 56.3842 1867.3C62.5409 1873.21 69.9341 1878.29 76.0954 1882.2C81.7061 1885.76 87.5819 1889.15 92.3013 1891.87C92.9119 1892.23 93.5031 1892.57 94.0719 1892.9C96.6884 1894.41 98.7919 1895.64 100.504 1896.69C102.239 1897.75 102.917 1898.24 102.98 1898.29C102.984 1898.29 102.985 1898.29 102.985 1898.29C144.235 1930.19 187.195 1937.88 232.251 1944.52L241.334 1883.56C196.838 1877 168.424 1870.82 141.038 1849.64C136.481 1846.12 130.105 1842.44 125.56 1839.81C125.444 1839.74 125.329 1839.68 125.216 1839.61C124.602 1839.26 123.991 1838.9 123.383 1838.55C118.541 1835.76 113.875 1833.07 109.466 1830.27C106.331 1828.28 103.902 1826.58 102.108 1825.21ZM99.0291 1822.55C99.0084 1822.53 98.9987 1822.52 98.9991 1822.52C98.9994 1822.52 99.0098 1822.53 99.0291 1822.55Z" fill="white"/>
<path d="M63.834 1667.52L127.334 1777.52H0.333984L63.834 1667.52Z" fill="white"/>
</svg>
