<svg width="1201" height="789" viewBox="0 0 1201 789" fill="none" xmlns="http://www.w3.org/2000/svg">
<g clip-path="url(#clip0_601_34)">
<rect width="1201" height="789" fill="#E61EAA"/>
<rect y="-41" width="1201" height="1067" fill="#E61EAA"/>
<ellipse cx="462.5" cy="425" rx="29.5" ry="29" fill="black"/>
<ellipse cx="664" cy="639.5" rx="29" ry="29.5" fill="black"/>
<ellipse cx="741" cy="277.5" rx="29" ry="29.5" fill="black"/>
<path d="M472.95 78.504C472.254 78.446 471.79 78.446 471.268 78.33C470.92 78.272 470.572 78.214 470.166 78.156C469.818 78.098 469.412 77.982 469.064 77.808C468.252 77.402 467.556 76.938 466.86 76.416C466.512 76.242 466.164 75.952 465.874 75.72C465.584 75.43 465.352 75.14 465.12 74.85C464.83 74.502 464.656 74.038 464.366 73.632C464.366 73.574 464.308 73.458 464.308 73.458C464.018 73.284 464.018 72.994 463.844 72.762C463.612 72.414 463.496 72.066 463.322 71.66C463.148 71.254 462.916 70.848 462.684 70.442C462.626 70.326 462.626 70.21 462.568 70.036C462.51 69.978 462.452 69.862 462.394 69.746C462.278 69.63 462.22 69.456 462.162 69.224C462.162 68.818 461.988 68.412 461.814 68.006C461.698 67.832 461.64 67.6 461.582 67.426C461.524 67.194 461.408 66.904 461.292 66.672C461.292 66.556 461.234 66.44 461.234 66.324C461.234 66.15 461.234 65.976 461.118 65.802C460.944 65.454 460.886 65.106 460.886 64.758C460.886 64.468 460.828 64.178 460.77 63.888C460.712 63.598 460.654 63.308 460.712 63.018C460.712 62.844 460.712 62.67 460.712 62.438C460.654 62.206 460.654 61.974 460.712 61.684C460.712 61.394 460.77 61.046 460.886 60.756C461.06 60.466 461.06 60.118 461.234 59.828C461.35 59.654 461.466 59.538 461.524 59.364C461.64 58.9 461.872 58.494 462.046 58.146C462.278 57.798 462.394 57.392 462.626 57.044C462.742 56.812 462.916 56.58 463.09 56.348C463.496 56.348 463.612 55.884 464.018 55.768C464.018 55.768 464.018 55.768 464.076 55.768C464.366 55.13 465.004 54.898 465.526 54.55C465.584 54.492 465.7 54.434 465.758 54.376C465.932 54.202 466.048 54.086 466.28 54.086C466.454 54.086 466.57 53.97 466.686 53.854C466.86 53.738 467.034 53.622 467.208 53.506C467.498 53.332 467.846 53.216 468.136 53.042C468.31 52.984 468.542 52.926 468.716 52.868C468.774 52.868 468.832 52.868 468.89 52.81C469.122 52.578 469.354 52.578 469.644 52.462C470.108 52.346 470.572 52.172 471.036 52.056C471.674 51.94 472.312 51.824 472.95 51.708C473.356 51.65 473.82 51.592 474.226 51.534C474.4 51.476 474.574 51.476 474.69 51.476C475.154 51.476 475.618 51.534 476.082 51.534H476.14C476.488 51.708 476.836 51.592 477.184 51.592C477.474 51.65 477.59 51.476 477.59 51.244C477.532 50.838 477.474 50.432 477.416 50.026C477.358 49.736 477.358 49.446 477.358 49.098C477.3 48.924 477.532 48.866 477.706 48.924C477.88 48.982 477.938 49.156 477.996 49.33C477.996 49.678 477.996 50.026 478.054 50.374C478.054 50.722 478.17 51.012 478.228 51.36C478.228 51.708 478.286 52.056 478.286 52.346C478.402 53.1 478.46 53.796 478.576 54.55C478.634 55.246 478.692 56 478.75 56.754C478.808 57.044 478.866 57.392 478.866 57.682C478.866 57.798 478.866 57.856 478.866 57.972C478.866 58.204 478.75 58.262 478.518 58.262C478.286 58.204 478.054 58.146 477.822 58.146C477.3 58.146 476.836 58.03 476.372 58.262C476.256 58.262 476.198 58.262 476.082 58.262C475.154 58.204 474.226 58.32 473.356 58.436C473.298 58.436 473.24 58.436 473.24 58.436C472.66 58.32 472.138 58.552 471.674 58.842C471.5 58.958 471.384 59.016 471.21 59.132C470.688 59.422 470.282 59.828 469.818 60.176C469.586 60.408 469.47 60.64 469.296 60.872C469.238 60.93 469.18 61.046 469.064 61.104C468.542 61.452 468.426 62.032 468.31 62.612C468.31 62.902 468.31 63.192 468.31 63.482C468.252 64.062 468.484 64.584 468.716 65.106C468.832 65.338 468.948 65.57 469.064 65.802C469.47 66.672 470.05 67.426 470.862 67.948C471.152 68.122 471.442 68.354 471.79 68.47C472.254 68.586 472.718 68.644 473.124 68.76C473.878 68.934 474.632 68.876 475.386 68.934C476.024 68.934 476.604 68.992 477.242 69.05C477.532 69.05 477.88 69.05 478.228 69.05C478.46 69.05 478.518 69.108 478.518 69.34C478.518 69.398 478.518 69.456 478.518 69.514C478.402 70.384 478.46 71.312 478.286 72.182C478.228 72.414 478.17 72.704 478.228 72.994C478.286 73.458 478.17 73.922 478.112 74.444C478.112 74.966 478.112 75.488 478.112 76.068C478.112 76.242 478.17 76.474 478.112 76.706C478.112 76.764 478.054 76.88 477.996 76.88C477.764 76.996 477.59 76.996 477.358 77.112C476.836 77.286 476.314 77.46 475.85 77.75L475.792 77.808C475.386 77.866 475.096 78.04 474.748 78.156C474.516 78.214 474.342 78.33 474.11 78.33C473.704 78.388 473.24 78.446 472.95 78.504ZM477.996 53.216C477.996 53.216 477.996 53.216 478.054 53.274V53.216H477.996ZM478.17 54.84L478.228 54.782H478.17V54.84ZM511.592 60.176C511.65 60.756 511.534 61.336 511.534 61.916C511.476 62.438 511.36 62.96 511.36 63.482C511.36 64.12 511.302 64.816 511.186 65.454C511.128 65.976 511.012 66.556 510.838 67.02C510.664 67.6 510.606 68.122 510.548 68.76C510.432 69.862 510.142 70.964 510.026 72.066C509.852 73.284 509.678 74.502 509.272 75.604C508.924 76.648 508.286 77.518 507.822 78.504C507.358 79.548 507.126 80.65 505.966 81.114C505.444 81.346 504.864 81.404 504.342 81.462C503.762 81.578 503.124 81.636 502.544 81.694C501.384 81.81 500.166 82.274 498.948 82.216C497.788 82.216 496.628 82.274 495.468 82.274C494.134 82.216 492.742 81.578 491.814 80.592C491.35 80.012 490.828 79.49 490.306 78.91C489.842 78.33 489.552 77.808 489.204 77.112C489.088 76.88 488.856 76.706 488.74 76.416C488.624 76.126 488.566 75.836 488.45 75.488C488.16 74.908 487.986 74.27 487.696 73.632C487.754 73.168 487.58 72.704 487.58 72.182C487.638 71.776 487.522 71.37 487.522 70.964C487.522 70.674 487.58 70.442 487.58 70.21C487.58 69.92 487.464 69.63 487.464 69.34C487.464 69.108 487.58 68.934 487.522 68.76C487.522 68.47 487.348 68.238 487.29 68.006C487.174 67.542 487.522 67.252 487.58 66.788C487.638 66.324 487.638 65.86 487.754 65.338C487.812 64.816 487.754 64.294 487.812 63.83C487.812 63.366 488.044 62.902 488.16 62.438C488.218 61.974 488.218 61.51 488.334 61.046C488.392 60.524 488.508 60.234 488.682 59.77C488.914 59.306 488.972 58.842 489.146 58.436C489.204 58.204 489.436 58.03 489.552 57.798C489.668 57.624 489.668 57.45 489.784 57.276C490.132 56.406 490.712 55.71 491.176 54.898C491.292 54.666 491.408 54.434 491.524 54.26C491.582 54.144 491.698 54.086 491.756 53.97C491.988 53.68 492.104 52.926 492.568 53.216C492.684 53.042 492.626 52.926 492.8 52.752C492.974 52.578 493.322 52.404 493.554 52.23C493.96 51.882 494.366 51.476 494.83 51.128C495.236 50.78 495.526 50.316 496.048 50.142C496.628 49.91 496.976 49.794 497.498 50.026C498.02 50.316 498.6 49.852 499.122 49.678C499.818 49.388 500.34 49.33 501.036 49.446C501.674 49.504 502.196 49.678 502.776 49.91C503.24 50.142 503.762 50.258 504.226 50.49C504.748 50.664 505.212 51.012 505.676 51.36C506.14 51.65 506.778 51.998 507.242 52.346C507.648 52.694 508.112 53.1 508.402 53.506C508.808 54.028 509.098 54.55 509.562 55.014C510.548 55.884 510.896 57.044 511.186 58.262C511.36 58.9 511.534 59.538 511.592 60.176ZM506.952 64.816C507.01 63.946 507.184 63.018 507.184 62.09C507.184 61.22 506.952 60.118 506.662 59.306C506.372 58.436 505.85 58.03 505.096 57.682C504.632 57.45 504.226 57.276 503.762 57.218C503.298 57.102 502.776 57.218 502.312 57.044C501.906 56.928 501.558 56.58 501.152 56.406C500.746 56.232 500.34 56.116 499.876 56C498.948 55.768 497.904 55.478 496.918 55.536C496.164 55.594 495.12 56 495.004 56.87C494.656 57.276 494.366 57.508 494.366 58.088C494.366 58.61 494.192 58.958 494.018 59.422C493.844 59.944 493.728 60.466 493.554 60.988C493.438 61.452 493.148 61.916 493.032 62.438C492.858 62.902 492.742 63.366 492.626 63.83C492.452 64.352 492.568 64.758 492.626 65.28C492.626 65.57 492.568 65.802 492.626 66.034C492.626 66.266 492.742 66.498 492.8 66.672C492.916 67.194 492.916 67.658 493.206 68.122C493.438 68.47 493.554 68.818 493.786 69.224C493.902 69.514 494.192 69.804 494.366 70.094C494.54 70.326 494.83 70.558 495.004 70.79C495.294 71.08 495.526 71.312 495.758 71.66C495.932 72.066 496.164 72.124 496.57 72.356C496.976 72.588 497.266 72.936 497.73 73.168C498.484 73.516 499.296 73.748 500.108 73.748C501.674 73.806 503.82 73.516 504.922 72.24C506.024 70.848 506.256 68.992 506.662 67.31C506.778 66.556 506.894 65.628 506.952 64.816ZM539.881 69.688C540.113 70.616 539.939 71.718 539.649 72.588C539.301 73.574 538.953 74.56 538.431 75.488C537.967 76.3 537.213 76.996 536.459 77.576C536.053 77.866 535.705 78.04 535.241 78.156C535.009 78.214 534.835 78.272 534.603 78.272C534.429 78.388 534.255 78.446 534.023 78.504C533.675 78.562 533.211 78.62 532.805 78.562C532.631 78.562 532.457 78.562 532.225 78.62C531.993 78.62 531.703 78.62 531.471 78.62C531.007 78.62 530.543 78.562 530.137 78.562C529.731 78.504 529.383 78.562 528.977 78.504C528.861 78.678 528.571 78.62 528.397 78.62C528.223 78.678 527.991 78.678 527.759 78.678C527.411 78.736 527.005 78.794 526.599 78.91C526.425 78.91 526.309 78.852 526.135 78.91C525.903 78.91 525.671 79.026 525.439 79.084C525.149 79.142 524.511 79.2 524.221 78.968C524.105 79.432 524.047 79.838 523.931 80.302C523.873 80.824 523.699 81.346 523.177 81.114C522.713 80.94 522.191 80.766 521.785 80.534C521.437 80.302 521.089 80.012 520.683 79.78C520.219 79.548 519.697 79.49 519.175 79.374C518.943 79.316 518.711 79.258 518.479 79.2C518.247 79.084 518.247 79.026 518.305 78.736C518.421 78.272 518.479 77.75 518.537 77.228C518.653 76.764 518.827 76.3 518.827 75.778C518.885 75.256 518.885 74.792 518.943 74.27C518.943 73.748 518.885 73.168 518.943 72.646C519.059 71.776 519.233 70.848 519.407 69.978C519.465 69.804 519.581 69.688 519.581 69.514C519.639 69.282 519.697 69.05 519.755 68.818C519.813 68.238 519.929 67.716 519.987 67.194C520.045 66.962 520.045 66.672 520.045 66.44C520.103 66.208 520.219 66.034 520.277 65.802C520.335 65.57 520.451 65.396 520.451 65.164C520.509 64.932 520.509 64.758 520.567 64.526C520.683 64.004 520.741 63.54 520.799 63.076C520.857 62.844 520.915 62.612 520.915 62.38C520.915 62.09 520.973 61.858 521.031 61.626C521.147 60.698 521.205 59.828 521.379 58.958C521.437 58.726 521.553 58.552 521.611 58.32C521.669 58.088 521.611 57.856 521.669 57.624C521.727 57.392 521.843 57.218 521.843 56.986C521.843 56.696 521.901 56.406 521.959 56.116C522.017 55.652 522.191 55.188 522.307 54.724C522.365 54.492 522.365 54.318 522.365 54.086C522.423 53.796 522.481 53.564 522.539 53.274C522.539 53.1 522.481 52.926 522.481 52.694C522.539 52.52 522.539 52.23 522.597 51.998C522.597 51.476 522.597 50.954 522.713 50.432C522.771 50.2 522.829 49.968 522.887 49.736C522.887 49.504 522.887 49.214 522.887 48.982C522.887 48.924 522.945 48.692 522.887 48.634L522.655 48.576C522.597 48.518 522.075 48.46 522.307 48.286C522.423 48.228 522.655 48.402 522.771 48.402C522.945 48.344 522.887 48.228 522.887 48.112C522.945 47.938 523.003 47.706 523.177 47.88C523.235 47.938 523.235 48.112 523.235 48.17C523.235 48.228 523.235 48.286 523.235 48.402C523.177 48.518 523.177 48.576 523.293 48.518C523.467 48.634 523.757 48.576 523.931 48.634C524.163 48.634 524.395 48.634 524.685 48.634C525.149 48.692 525.671 48.634 526.193 48.75C526.657 48.808 527.179 48.982 527.585 49.214C527.875 49.33 528.397 49.388 528.513 49.678C528.513 49.736 528.513 49.794 528.513 49.91C528.513 50.026 528.513 50.026 528.629 50.084C528.803 50.2 529.151 50.258 529.383 50.316C529.557 50.374 529.731 50.374 529.963 50.374C530.253 50.432 530.485 50.548 530.775 50.606C531.181 50.78 531.645 50.896 532.109 50.954C532.341 51.012 532.515 50.954 532.747 50.954C533.037 50.954 533.327 50.954 533.617 50.896C534.081 50.896 534.603 51.012 535.067 51.07C535.473 51.128 535.937 51.244 536.401 51.302C537.387 51.534 538.431 51.65 539.359 52.114C539.475 52.23 539.649 52.288 539.649 52.462C539.649 52.636 539.533 52.868 539.417 52.984C539.243 53.448 539.011 53.912 538.779 54.376C538.605 54.782 538.431 55.304 538.315 55.768C538.257 56 538.141 56.174 538.083 56.406C538.025 56.696 538.025 56.986 537.967 57.276C537.909 57.566 537.793 58.262 537.503 58.378C537.329 58.494 537.097 58.378 536.923 58.378C536.633 58.32 536.285 58.262 535.995 58.204C534.951 58.088 534.023 57.74 532.979 57.566C532.747 57.566 532.573 57.508 532.399 57.45C532.167 57.392 531.993 57.392 531.761 57.334C531.239 57.218 530.659 57.102 530.079 56.928C529.615 56.754 529.151 56.58 528.629 56.464C528.455 56.464 528.223 56.406 527.991 56.348C527.817 56.29 527.411 56.116 527.179 56.174C527.063 56.232 527.063 56.232 527.063 56.406C527.063 56.522 527.005 56.58 527.005 56.696C527.005 56.928 527.005 57.102 527.005 57.334C526.947 57.856 526.889 58.32 526.773 58.842C526.599 59.886 526.657 60.988 526.367 62.032C526.251 62.496 526.193 63.018 526.135 63.482C526.135 63.598 526.019 64.004 526.077 64.12H526.425C526.599 64.12 526.773 64.178 526.889 64.236C527.875 64.526 528.977 64.526 529.963 64.7C530.949 64.932 531.935 65.164 532.979 65.338C533.443 65.396 533.849 65.57 534.313 65.686C534.545 65.744 534.719 65.744 534.951 65.86C535.183 65.918 535.415 66.092 535.647 66.208C536.053 66.382 536.459 66.556 536.865 66.73C537.329 66.962 537.851 67.136 538.257 67.542C538.895 68.122 539.649 68.818 539.881 69.688ZM527.179 49.504C527.469 49.62 527.759 49.736 528.049 49.852C528.281 49.62 527.759 49.504 527.643 49.446C527.411 49.33 526.947 49.098 526.715 49.098C526.367 49.156 527.121 49.446 527.179 49.504ZM525.323 68.586C525.207 69.108 525.149 69.63 525.091 70.21C524.975 71.196 524.975 72.182 524.975 73.168C525.149 73.11 525.323 73.11 525.323 73.11C525.439 73.226 525.613 73.284 525.729 73.342C525.961 73.458 526.135 73.574 526.309 73.69C526.599 73.864 526.947 74.096 527.295 74.212C527.411 74.212 527.527 74.27 527.701 74.27C527.817 74.328 527.933 74.27 528.049 74.328C528.223 74.444 528.165 74.444 528.339 74.502C528.397 74.502 528.513 74.56 528.629 74.56C528.803 74.56 529.035 74.56 529.093 74.792C529.557 74.792 530.079 74.792 530.543 74.908C530.949 75.024 531.529 74.85 531.935 74.734C532.109 74.676 532.399 74.56 532.515 74.444C532.689 74.328 532.747 73.98 532.863 73.806C533.095 73.284 533.211 72.762 533.327 72.24C533.443 71.254 532.863 70.326 532.167 69.688C531.819 69.34 531.413 68.992 530.949 68.76C530.543 68.47 530.137 68.354 529.615 68.296C529.093 68.18 528.629 68.122 528.049 68.18C527.585 68.18 527.063 68.238 526.541 68.238C526.309 68.238 526.077 68.238 525.845 68.238C525.613 68.296 525.381 68.296 525.323 68.586ZM571.785 78.446C571.785 78.678 571.959 79.142 571.727 79.316C571.495 79.548 570.915 79.432 570.625 79.432C570.161 79.432 569.755 79.548 569.291 79.606C568.827 79.664 568.363 79.606 567.899 79.664C566.971 79.722 566.101 79.78 565.231 80.012C564.767 80.128 564.303 80.128 563.781 80.186C563.259 80.186 562.795 80.244 562.273 80.302C561.287 80.418 560.301 80.534 559.373 80.476C558.387 80.36 557.401 80.36 556.531 80.012C556.125 79.896 555.661 79.78 555.255 79.606C555.081 79.548 554.849 79.374 554.675 79.374C554.443 79.316 554.211 79.49 553.979 79.606C553.979 79.316 553.805 79.2 553.573 79.2C553.457 79.2 553.341 79.258 553.225 79.2C552.993 79.2 552.819 79.2 552.587 79.2C552.297 79.2 552.007 79.2 551.659 79.142C551.311 79.026 550.963 78.91 550.615 78.736C550.325 78.62 550.035 78.504 549.803 78.33C549.513 78.156 549.339 78.214 549.281 77.866C549.223 77.576 549.165 77.228 549.165 76.938C549.107 76.59 549.223 76.184 549.281 75.836C549.281 74.386 549.165 72.936 549.049 71.486C548.991 71.196 548.875 70.906 548.817 70.616C548.817 70.268 548.817 69.978 548.701 69.63C548.585 68.934 548.585 68.238 548.469 67.6C548.353 66.962 548.353 66.324 548.353 65.744C548.353 65.396 548.353 65.048 548.353 64.7C548.353 64.294 548.237 63.888 548.237 63.482C548.179 63.134 548.295 62.786 548.295 62.438C548.295 62.032 548.353 61.626 548.295 61.278C548.295 60.93 548.411 60.64 548.411 60.35C548.469 59.944 548.469 59.538 548.469 59.19C548.585 58.436 548.643 57.682 548.643 56.986C548.643 56.58 548.701 56.232 548.759 55.826C548.759 55.478 548.701 55.072 548.701 54.666C548.701 54.376 548.817 54.028 548.817 53.738C548.817 53.332 548.817 52.926 548.817 52.52C548.817 51.824 548.991 51.128 548.991 50.432C548.991 50.084 549.107 49.678 549.165 49.33C549.165 48.924 549.165 48.518 549.165 48.112C549.223 47.706 549.223 47.3 549.281 46.894C549.281 46.488 549.339 46.314 549.687 46.14C550.035 46.024 550.499 45.966 550.847 45.966C551.253 45.908 551.659 46.024 552.065 46.14C552.471 46.256 552.877 46.256 553.225 46.372C553.631 46.488 553.921 46.662 554.269 46.778C554.327 46.604 554.327 46.488 554.385 46.372C554.385 46.198 554.385 46.14 554.501 46.082C554.849 45.85 554.791 46.256 554.791 46.488C554.791 46.546 554.791 46.778 554.791 46.836C554.849 46.894 555.139 46.894 555.197 46.952C555.487 47.068 555.429 47.242 555.603 47.474C555.719 47.59 555.719 47.59 555.893 47.59C556.009 47.59 556.125 47.59 556.241 47.59C556.531 47.59 556.763 47.59 557.053 47.59C557.691 47.648 558.271 47.706 558.909 47.822C559.373 47.88 559.837 47.996 560.301 48.054C560.881 48.112 561.345 47.996 561.925 47.996C563.085 47.996 564.245 47.88 565.405 48.054C565.927 48.112 566.565 48.112 567.087 48.344C567.261 48.402 567.493 48.46 567.551 48.576C567.667 48.866 567.551 49.33 567.551 49.562C567.551 50.142 567.435 50.664 567.435 51.244C567.435 51.592 567.551 51.94 567.203 52.114C566.971 52.172 566.681 52.172 566.449 52.23C566.159 52.288 565.869 52.346 565.579 52.404C565.057 52.462 564.477 52.404 563.897 52.462C563.665 52.52 563.375 52.52 563.085 52.578C562.853 52.636 562.621 52.578 562.389 52.52C561.751 52.52 561.171 52.578 560.533 52.462C559.953 52.404 559.431 52.288 558.909 52.114C558.271 51.882 557.691 51.824 557.053 51.766C556.531 51.708 556.009 51.592 555.487 51.534C555.313 51.534 554.617 51.476 554.327 51.36C554.327 51.65 554.269 51.94 554.269 52.23C554.269 52.868 554.327 53.564 554.385 54.144C554.385 54.492 554.385 54.84 554.385 55.13C554.385 55.478 554.443 55.768 554.443 56.116C555.429 56.58 556.647 56.348 557.691 56.29C558.213 56.29 558.735 56.406 559.315 56.406C559.953 56.406 560.533 56.406 561.171 56.522C561.693 56.58 562.273 56.638 562.795 56.696C563.085 56.754 563.375 56.754 563.665 56.754C563.781 56.754 563.955 56.812 564.071 56.812C564.245 56.812 564.361 56.754 564.535 56.812C564.767 56.812 564.941 56.87 565.173 56.928C565.463 56.928 565.753 56.928 566.043 56.928C566.333 56.928 566.623 56.986 566.913 56.986C567.261 57.044 567.667 56.986 567.957 57.102C568.421 57.276 568.247 57.74 568.247 58.146C568.247 58.726 568.247 59.306 568.247 59.886C568.189 61.104 568.015 62.322 568.131 63.482C568.131 63.598 568.247 64.062 568.131 64.12C568.015 64.294 567.435 64.178 567.319 64.178C566.623 64.12 565.985 64.062 565.289 64.004C564.071 63.83 562.911 63.656 561.693 63.656C560.359 63.656 559.199 63.018 557.923 62.96C557.691 62.96 557.401 62.96 557.111 62.96C556.763 62.902 556.473 62.844 556.125 62.786C555.777 62.786 555.429 62.786 555.139 62.728C554.849 62.728 554.559 62.612 554.269 62.554C554.269 63.424 554.385 64.294 554.385 65.164C554.385 65.628 554.443 66.034 554.501 66.498C554.559 66.962 554.559 67.484 554.675 67.948C554.675 68.122 554.791 68.238 554.791 68.412C554.849 68.644 554.791 68.818 554.791 69.05C554.733 69.514 554.849 69.92 554.791 70.384C554.733 71.196 554.501 72.066 554.675 72.878C554.733 73.11 554.559 73.4 554.617 73.574C554.675 73.748 554.733 73.69 554.965 73.748C555.429 73.748 555.893 73.806 556.415 73.806C557.169 73.806 557.981 73.98 558.735 74.096C559.141 74.096 559.489 74.27 559.837 74.27C560.243 74.386 560.649 74.502 561.055 74.502C561.983 74.502 562.911 74.56 563.839 74.56C564.303 74.56 564.767 74.444 565.173 74.502C565.579 74.618 565.927 74.56 566.333 74.56C566.739 74.56 567.087 74.676 567.493 74.618C567.725 74.56 567.957 74.56 568.189 74.56C568.421 74.56 568.711 74.444 568.943 74.386C569.349 74.27 569.755 74.212 570.103 74.154C570.335 74.096 570.509 74.096 570.741 74.096C570.973 74.096 571.205 73.98 571.437 73.922C571.843 73.922 571.727 74.328 571.669 74.618C571.611 75.14 571.611 75.604 571.611 76.068C571.669 76.88 571.669 77.634 571.785 78.446ZM555.023 47.3C554.617 47.126 554.617 47.59 554.617 47.822C554.791 47.764 555.255 47.822 555.313 47.648C555.313 47.532 555.139 47.358 555.023 47.3ZM598.988 65.338C599.278 66.382 599.278 67.31 599.162 68.412C599.104 69.282 598.408 69.92 597.886 70.558C597.248 71.254 596.494 71.66 595.624 71.95C594.696 72.24 593.768 72.472 592.84 72.53C591.854 72.588 590.868 72.646 589.94 72.762C589.476 72.82 589.07 72.878 588.606 72.878C588.2 72.878 587.504 72.704 587.156 72.878C586.75 72.994 586.924 73.458 586.924 73.864C586.924 74.386 586.924 74.966 586.924 75.546C586.924 76.648 586.924 77.75 586.924 78.852C586.982 79.896 587.098 80.94 587.156 81.984C587.214 82.448 587.156 82.97 587.214 83.492C587.272 83.782 587.504 84.536 587.33 84.768C587.156 85.058 586.518 84.942 586.286 84.942C585.706 84.942 585.126 85 584.604 85.058C583.502 85.174 582.458 85.348 581.356 85.464C580.66 85.522 579.21 85.986 578.63 85.406C579.094 85.232 579.5 85.116 579.964 85.058C579.674 84.536 579.732 83.086 579.732 82.854C579.616 82.042 579.616 81.23 579.442 80.418C579.268 79.722 579.326 79.026 579.268 78.33C579.152 77.634 579.268 77.054 579.326 76.3C579.326 75.546 579.268 74.792 579.268 74.038C579.268 73.168 579.384 72.298 579.442 71.428C579.442 71.08 579.442 70.674 579.5 70.326C579.558 70.036 579.732 69.804 579.79 69.514C579.848 69.34 579.79 69.224 579.79 69.05C579.79 69.05 579.79 68.992 579.79 68.934C579.616 68.818 579.616 68.702 579.79 68.644C579.848 68.296 579.906 68.064 579.906 67.716C579.964 66.962 580.022 66.266 580.022 65.57C579.964 64.7 579.732 63.888 579.674 63.076C579.674 62.728 579.674 62.38 579.616 61.974C579.558 61.626 579.384 61.278 579.326 60.93C579.326 60.582 579.5 60.292 579.5 60.002C579.5 59.538 579.442 59.074 579.442 58.61C579.442 57.74 579.616 56.812 579.674 55.942C579.732 55.304 579.906 54.782 580.66 54.724C581.414 54.666 582.226 54.724 583.038 54.666C583.56 54.608 584.14 54.55 584.662 54.492C585.01 54.492 585.59 54.376 585.938 54.55C586.402 54.84 586.112 56.464 586.17 56.986C586.17 57.044 586.17 57.102 586.17 57.16C586.634 56.696 588.664 56.232 589.012 56.174C589.94 56.058 590.984 56.116 591.854 56.464C593.71 57.16 595.334 58.088 596.494 59.77C597.074 60.64 597.48 61.568 597.886 62.496C598.35 63.424 598.756 64.352 598.988 65.338ZM586.344 65.512C586.344 66.092 586.46 66.846 586.576 67.426C586.808 68.47 587.91 67.658 588.606 67.774C589.708 67.89 590.81 68.238 591.912 68.18C592.55 68.122 593.188 67.89 593.768 67.716C594.29 67.6 594.928 67.542 595.102 66.962C595.334 66.382 595.102 65.628 595.102 65.048C595.102 64.41 595.044 63.888 594.928 63.308C595.044 63.308 594.29 61.104 594 60.93C593.652 60.698 593.188 60.524 592.84 60.35C592.318 60.118 591.912 60.002 591.39 59.77C590.52 59.48 589.36 59.422 588.49 59.538C587.736 59.596 586.402 59.654 586.286 60.582C586.228 61.684 586.286 62.844 586.344 63.946C586.402 64.526 586.344 64.99 586.344 65.512ZM627.665 49.214C627.839 49.098 627.955 48.982 627.955 48.808C628.419 49.04 628.883 48.634 629.347 48.402C629.869 48.17 630.507 47.996 630.971 47.764C631.435 47.474 631.957 47.242 632.421 47.01C633.001 46.72 633.581 46.372 634.161 46.14C634.683 45.966 634.683 46.256 634.741 46.662C634.741 46.894 634.857 47.126 634.915 47.358C634.973 47.706 634.915 48.054 634.973 48.402C634.973 48.692 635.147 48.982 635.147 49.272C635.147 49.562 635.089 49.794 635.089 50.084C635.147 50.722 635.205 51.302 635.263 51.94C635.321 53.216 635.553 54.434 635.727 55.71C635.959 56.87 636.075 58.088 636.307 59.306C636.539 60.35 636.771 61.394 636.945 62.438C637.061 63.018 637.061 63.598 637.119 64.12C637.177 64.816 637.293 65.512 637.351 66.15C637.409 66.73 637.467 67.31 637.525 67.832C637.583 68.064 637.641 68.238 637.699 68.47C637.757 68.76 637.641 69.108 637.699 69.456C637.757 70.036 637.699 70.616 637.699 71.196C637.699 71.776 637.757 72.356 637.699 72.936C637.583 74.154 637.351 75.372 637.293 76.59C637.293 76.822 637.467 77.286 637.351 77.46C637.235 77.634 636.887 77.634 636.655 77.692C636.017 77.692 635.379 77.692 634.741 77.75C633.581 77.866 632.479 78.098 631.319 77.866C630.797 77.808 630.855 77.17 630.797 76.706C630.681 76.068 630.565 75.372 630.507 74.734C630.449 74.096 630.507 73.458 630.507 72.82C630.449 72.182 630.333 71.544 630.333 70.906C630.391 69.572 630.275 68.238 630.217 66.962C630.217 66.208 630.101 65.512 630.159 64.758C630.217 64.12 630.333 63.424 630.333 62.786C630.391 62.206 630.333 61.626 630.333 61.046C630.391 60.234 630.391 59.48 630.275 58.726C630.101 57.276 629.753 55.826 629.521 54.318C629.463 53.622 629.289 52.984 629.115 52.288C628.883 51.592 628.825 50.838 628.477 50.2C628.419 50.258 628.419 50.374 628.361 50.49C628.187 50.432 627.955 50.026 627.781 49.852C627.549 50.258 627.375 50.722 627.259 51.186C627.143 51.766 626.911 52.172 626.621 52.694C626.331 53.216 626.099 53.622 625.925 54.202C625.751 54.666 625.461 54.956 625.171 55.362C624.533 56.174 624.301 57.218 623.663 58.03C623.373 58.378 623.257 58.784 623.083 59.248C622.967 59.48 622.793 59.596 622.677 59.77C622.445 60.002 622.271 60.292 622.097 60.524C621.517 61.452 621.053 62.496 620.647 63.482C620.241 64.526 619.661 65.57 619.313 66.672C619.023 67.484 618.675 68.296 618.211 69.05C617.747 69.92 617.109 70.674 616.645 71.544C616.413 72.066 616.239 72.588 615.949 73.11C615.833 73.342 615.775 73.632 615.659 73.922C615.485 74.154 615.369 74.27 615.253 74.56C615.079 75.024 614.905 75.43 614.789 75.836C614.731 76.068 614.615 76.242 614.499 76.474C614.499 76.474 614.499 76.474 614.499 76.532C614.325 76.532 614.267 76.59 614.325 76.764C614.267 76.938 614.035 77.17 614.035 77.344C614.035 77.286 614.093 77.866 614.035 77.808C614.267 78.04 614.847 77.402 615.021 77.808C614.847 78.04 614.383 77.924 614.151 77.982C613.977 78.098 613.803 78.446 613.513 78.33C613.397 78.33 613.397 78.272 613.339 78.272C613.339 78.214 613.281 78.214 613.281 78.156C613.165 78.156 613.049 78.156 612.933 78.156C612.469 78.214 612.005 78.388 611.541 78.446C611.193 78.504 610.845 78.62 610.497 78.678C610.265 78.794 609.627 79.084 609.395 78.968C609.221 78.852 609.221 78.62 609.163 78.446C609.105 78.156 609.047 77.808 608.931 77.518C608.873 77.228 608.757 77.054 608.757 76.764C608.757 76.474 608.757 76.3 608.699 76.01C608.583 75.43 608.525 74.908 608.467 74.328C608.467 74.038 608.351 73.748 608.293 73.458C608.235 73.052 608.293 72.704 608.235 72.298C608.177 72.124 608.119 72.008 608.119 71.776C608.061 71.37 608.177 71.022 608.119 70.558C608.003 69.92 608.119 69.166 608.003 68.528C607.945 68.18 607.829 67.89 607.829 67.542C607.829 67.252 607.829 66.962 607.829 66.672C607.713 65.918 607.655 65.164 607.713 64.468C607.713 63.714 607.539 62.96 607.481 62.264C607.423 61.568 607.307 60.93 607.249 60.292C607.249 60.002 607.191 59.77 607.133 59.48C607.075 59.364 607.017 59.248 607.017 59.132C606.959 58.842 607.133 58.552 607.075 58.32C607.017 58.088 606.959 57.972 606.959 57.74C606.959 57.392 606.843 57.218 606.785 56.928C606.727 56.348 606.727 55.768 606.669 55.188C606.611 54.782 606.611 54.376 606.553 53.97C606.495 53.912 606.437 53.912 606.437 53.854C606.379 53.796 606.437 53.738 606.495 53.68C606.437 53.564 606.553 53.39 606.553 53.274C606.553 53.158 606.437 53.042 606.437 52.926C606.437 52.694 606.553 52.578 606.553 52.346C606.611 52.056 606.611 51.708 606.553 51.418C606.437 51.012 606.437 50.664 606.437 50.258C606.437 50.2 606.495 49.736 606.437 49.678C606.379 49.562 606.031 49.562 605.857 49.504C605.741 49.504 604.755 49.33 605.219 49.04C605.393 48.982 606.147 49.272 606.321 49.33C606.379 49.156 606.321 48.808 606.553 48.75C606.843 48.692 606.669 49.214 606.785 49.33C606.901 49.504 607.365 49.504 607.539 49.562C607.887 49.62 608.235 49.678 608.525 49.736C609.047 49.794 609.569 49.968 610.091 50.026C610.671 50.084 611.367 50.084 611.889 50.258C612.353 50.49 612.237 50.954 612.295 51.418C612.353 52.056 612.469 52.636 612.469 53.274C612.585 54.434 612.585 55.594 612.585 56.754C612.585 57.972 612.701 59.132 612.643 60.35C612.643 61.336 612.701 62.322 612.585 63.25C612.527 63.598 612.643 64.004 612.643 64.352C612.701 64.642 612.759 64.874 612.817 65.164C612.817 65.454 612.759 65.744 612.817 66.034C612.933 67.136 612.991 68.18 613.107 69.282C613.223 69.978 613.281 76.532 613.571 76.532C613.687 75.952 613.629 75.372 613.629 74.85C613.571 74.27 613.397 73.632 613.513 73.052C613.629 72.53 613.919 72.066 614.209 71.602C614.499 71.196 614.731 70.616 615.021 70.152C615.311 69.63 615.485 69.05 615.891 68.528C616.239 68.064 616.587 67.542 616.993 67.078C617.515 66.382 617.979 65.57 618.443 64.816C619.545 62.96 620.299 60.93 621.285 59.016C621.807 58.03 622.213 56.986 622.735 55.942C622.967 55.478 623.083 55.014 623.315 54.55C623.547 54.086 623.837 53.622 623.953 53.1C624.301 51.882 624.823 50.838 625.403 49.736C625.577 49.504 625.693 49.272 625.867 49.04C625.983 48.866 626.157 48.46 626.389 48.402C626.911 48.228 627.433 48.924 627.665 49.214ZM628.071 49.388C627.781 49.504 628.245 49.91 628.361 49.968C628.303 49.794 628.245 49.562 628.071 49.388ZM706.965 58.146C706.907 58.61 706.791 59.132 706.733 59.654C706.675 60.176 706.791 60.64 706.733 61.162C706.675 62.148 706.501 63.134 706.443 64.12C706.385 65.222 706.211 66.208 706.269 67.252C706.269 68.238 706.095 69.224 706.095 70.21C706.095 70.616 705.979 71.138 705.921 71.544C705.921 71.95 705.979 72.356 705.863 72.762C705.863 72.878 705.747 72.994 705.747 73.052C705.747 73.11 705.747 73.168 705.863 73.168C706.037 73.168 706.037 73.284 705.979 73.4C706.037 73.632 705.921 73.922 705.979 74.154C705.979 74.444 705.979 74.734 705.979 75.082C705.979 75.314 706.153 75.778 705.805 75.604C705.747 75.952 706.037 75.952 706.095 76.3C706.095 76.532 706.037 76.764 706.095 76.996C706.095 77.228 706.095 77.402 706.095 77.634C706.037 78.388 705.979 79.084 706.037 79.896C706.037 80.012 705.979 80.07 705.979 80.244C705.979 80.36 706.153 80.418 706.095 80.592C705.979 80.882 705.747 80.766 705.457 80.766C705.225 80.708 705.167 80.708 704.935 80.824C704.471 80.94 703.949 80.998 703.485 81.056C703.079 81.056 702.325 81.288 701.919 81.056C701.687 80.94 701.571 80.534 701.397 80.244C701.223 79.954 701.165 79.664 701.223 79.258C701.281 79.142 701.339 79.084 701.339 78.968C701.339 78.968 701.281 78.736 701.281 78.678C701.281 78.504 701.223 78.33 701.165 78.156C701.107 77.924 701.223 77.808 701.223 77.576C701.223 77.402 701.223 77.112 701.165 76.822C701.107 75.024 701.107 73.226 700.875 71.428C700.817 70.848 700.701 70.268 700.643 69.746C700.643 69.456 700.701 69.224 700.643 68.934C700.643 68.702 700.527 68.528 700.527 68.296C700.411 67.368 700.585 66.324 700.585 65.396C699.599 66.382 699.193 67.948 698.555 69.108C697.975 70.268 697.569 71.544 697.279 72.82C697.163 73.342 697.047 73.922 696.873 74.444C696.873 74.386 696.699 74.734 696.699 74.734C696.699 74.908 696.815 74.85 696.873 75.024C696.931 75.314 696.757 75.372 696.525 75.546C695.539 76.068 694.437 76.416 693.393 76.822C692.291 77.228 690.841 77.344 690.029 78.214C689.971 78.272 689.913 78.446 689.855 78.504C689.797 78.562 689.681 78.736 689.623 78.794C689.391 78.968 689.217 79.084 688.869 79.084C688.405 79.026 688.115 78.504 687.941 78.156C687.767 77.924 687.361 76.996 687.013 76.996C686.839 77.054 686.607 77.518 686.491 77.634C686.375 77.808 686.143 78.33 685.969 78.446C685.795 78.562 685.447 78.388 685.389 78.156C685.331 78.04 685.505 77.634 685.563 77.46C685.737 76.88 685.853 76.416 685.795 75.836C685.621 74.734 685.099 73.748 684.635 72.704C684.461 72.414 684.461 72.124 684.345 71.834C684.229 71.544 684.055 71.312 683.939 71.08C683.649 70.5 683.417 69.804 683.127 69.224C683.243 69.224 683.243 69.224 683.243 69.34C683.301 69.34 683.301 69.282 683.243 69.224C683.301 69.05 683.069 69.05 682.895 68.876C682.779 68.702 682.663 68.47 682.605 68.296C682.489 67.774 682.257 67.368 682.025 66.962C681.909 66.73 681.909 66.382 681.793 66.15C681.677 65.86 681.503 65.628 681.445 65.338C681.329 65.048 680.981 64.468 681.039 64.178C681.039 64.178 681.039 64.178 681.039 64.12C680.923 64.294 680.923 63.83 680.923 63.83C680.865 63.54 680.691 63.366 680.575 63.134C680.459 62.902 680.285 61.626 680.053 61.626C679.995 62.264 680.053 62.96 680.053 63.656C680.053 64.294 679.937 64.932 679.995 65.57C680.053 66.846 679.763 68.064 679.705 69.34C679.647 69.92 679.763 70.384 679.763 70.964C679.763 71.602 679.589 72.298 679.589 72.994C679.589 73.574 679.589 74.154 679.589 74.792C679.589 75.082 679.415 75.546 679.589 75.778C679.763 75.952 679.937 75.836 679.879 76.184C679.647 76.126 679.473 76.242 679.299 76.242C679.067 76.242 678.893 76.126 678.719 76.068C678.313 75.894 677.907 75.778 677.501 75.72C676.573 75.546 675.471 75.662 674.543 75.836C674.311 75.894 673.731 75.894 673.615 76.126C673.557 76.416 673.789 76.3 673.731 76.532C673.731 76.416 673.383 76.764 673.499 76.764C673.383 76.764 673.093 76.822 672.977 76.764C672.745 76.532 673.151 76.068 672.919 75.778C673.209 75.662 673.325 74.966 673.383 74.676C673.557 74.096 673.731 73.516 673.731 72.936C673.847 71.834 673.905 70.674 673.847 69.572C673.789 68.992 674.021 68.412 674.021 67.832C673.963 67.194 674.079 66.556 674.137 65.86C674.137 64.584 674.195 63.308 674.253 62.032C674.311 59.596 674.311 57.102 674.543 54.724C674.601 54.202 674.659 53.68 674.717 53.216C674.717 52.868 674.543 51.766 674.833 51.592C675.065 51.534 675.297 51.65 675.471 51.708C675.703 51.708 675.935 51.766 676.167 51.766C676.631 51.824 677.095 51.824 677.559 51.94C678.197 52.056 678.777 52.462 679.415 52.23C679.473 52.23 679.589 52.23 679.647 52.172C679.705 52.172 679.763 52.056 679.879 51.998C679.937 51.94 680.111 51.998 680.227 51.998C680.285 52.114 680.401 52.114 680.459 52.056C680.575 51.998 680.691 51.998 680.807 51.998C681.503 51.882 681.909 52.23 682.373 52.752C682.547 52.984 682.779 53.216 682.953 53.448C683.011 53.506 683.243 53.912 683.359 53.738C683.243 53.738 682.953 53.332 682.953 53.216C683.011 52.926 683.533 52.868 683.707 52.984C683.881 53.158 683.939 53.448 684.055 53.68C684.171 53.912 684.345 54.086 684.461 54.26C684.867 54.782 685.041 55.304 685.331 55.826C685.505 56.058 685.505 56.464 685.621 56.696C685.679 56.754 685.853 56.754 685.853 56.812C685.911 56.928 685.911 57.044 685.969 57.16C686.317 58.146 686.897 59.016 687.361 59.944C687.535 60.466 687.883 60.814 688.057 61.336C688.173 61.626 688.231 61.742 688.405 61.974C688.521 62.148 688.695 62.322 688.579 62.496C689.101 62.438 688.985 63.076 689.101 63.366C689.159 63.54 689.159 63.482 689.275 63.598C689.391 63.714 689.449 63.772 689.507 63.888C690.029 64.584 690.319 65.454 690.725 66.208C691.189 67.02 691.595 67.948 692.001 68.76C692.233 69.224 692.349 69.688 692.523 70.094C692.639 70.5 692.929 70.906 693.103 71.312C693.509 70.616 693.683 69.862 694.089 69.108L694.263 68.586C694.205 68.528 694.205 68.47 694.321 68.412C694.321 68.006 694.495 67.6 694.611 67.136C694.727 66.672 694.727 66.092 694.959 65.628C695.191 65.222 695.307 64.932 695.365 64.468C695.423 64.294 695.481 64.062 695.539 63.888C695.597 63.772 695.655 63.598 695.713 63.54C695.829 63.424 695.887 63.308 695.829 63.134C696.003 62.728 696.119 62.322 696.351 61.916C697.105 60.408 697.743 58.842 698.323 57.218C698.497 56.754 698.729 56.29 698.903 55.826C698.961 55.71 699.077 55.594 699.135 55.478C699.309 55.362 699.309 55.246 699.251 55.13C699.309 54.956 699.367 54.84 699.425 54.666C699.541 54.318 699.599 53.912 699.947 53.97C700.295 54.028 700.527 54.376 700.643 54.608C700.759 54.434 700.643 54.086 700.759 53.97C700.875 53.796 701.165 53.854 701.339 53.796C701.919 53.738 702.499 53.564 703.021 53.506C704.123 53.506 705.341 53.506 706.385 53.68C706.965 53.796 707.023 53.912 707.023 54.492C706.965 54.84 706.965 55.304 707.023 55.652C707.081 56.348 707.081 57.334 706.965 58.146ZM690.493 65.976C690.435 65.918 690.435 65.918 690.435 65.918V65.976C690.435 65.976 690.435 65.976 690.493 65.976ZM683.417 53.912C683.301 53.854 683.359 53.912 683.417 53.912V53.912ZM682.315 67.078C682.315 67.02 682.315 66.962 682.315 66.846C682.257 66.962 682.199 66.962 682.315 67.078ZM689.623 78.446H689.681C689.681 78.388 689.681 78.388 689.681 78.388L689.623 78.446ZM738.875 78.446C738.875 78.678 739.049 79.142 738.817 79.316C738.585 79.548 738.005 79.432 737.715 79.432C737.251 79.432 736.845 79.548 736.381 79.606C735.917 79.664 735.453 79.606 734.989 79.664C734.061 79.722 733.191 79.78 732.321 80.012C731.857 80.128 731.393 80.128 730.871 80.186C730.349 80.186 729.885 80.244 729.363 80.302C728.377 80.418 727.391 80.534 726.463 80.476C725.477 80.36 724.491 80.36 723.621 80.012C723.215 79.896 722.751 79.78 722.345 79.606C722.171 79.548 721.939 79.374 721.765 79.374C721.533 79.316 721.301 79.49 721.069 79.606C721.069 79.316 720.895 79.2 720.663 79.2C720.547 79.2 720.431 79.258 720.315 79.2C720.083 79.2 719.909 79.2 719.677 79.2C719.387 79.2 719.097 79.2 718.749 79.142C718.401 79.026 718.053 78.91 717.705 78.736C717.415 78.62 717.125 78.504 716.893 78.33C716.603 78.156 716.429 78.214 716.371 77.866C716.313 77.576 716.255 77.228 716.255 76.938C716.197 76.59 716.313 76.184 716.371 75.836C716.371 74.386 716.255 72.936 716.139 71.486C716.081 71.196 715.965 70.906 715.907 70.616C715.907 70.268 715.907 69.978 715.791 69.63C715.675 68.934 715.675 68.238 715.559 67.6C715.443 66.962 715.443 66.324 715.443 65.744C715.443 65.396 715.443 65.048 715.443 64.7C715.443 64.294 715.327 63.888 715.327 63.482C715.269 63.134 715.385 62.786 715.385 62.438C715.385 62.032 715.443 61.626 715.385 61.278C715.385 60.93 715.501 60.64 715.501 60.35C715.559 59.944 715.559 59.538 715.559 59.19C715.675 58.436 715.733 57.682 715.733 56.986C715.733 56.58 715.791 56.232 715.849 55.826C715.849 55.478 715.791 55.072 715.791 54.666C715.791 54.376 715.907 54.028 715.907 53.738C715.907 53.332 715.907 52.926 715.907 52.52C715.907 51.824 716.081 51.128 716.081 50.432C716.081 50.084 716.197 49.678 716.255 49.33C716.255 48.924 716.255 48.518 716.255 48.112C716.313 47.706 716.313 47.3 716.371 46.894C716.371 46.488 716.429 46.314 716.777 46.14C717.125 46.024 717.589 45.966 717.937 45.966C718.343 45.908 718.749 46.024 719.155 46.14C719.561 46.256 719.967 46.256 720.315 46.372C720.721 46.488 721.011 46.662 721.359 46.778C721.417 46.604 721.417 46.488 721.475 46.372C721.475 46.198 721.475 46.14 721.591 46.082C721.939 45.85 721.881 46.256 721.881 46.488C721.881 46.546 721.881 46.778 721.881 46.836C721.939 46.894 722.229 46.894 722.287 46.952C722.577 47.068 722.519 47.242 722.693 47.474C722.809 47.59 722.809 47.59 722.983 47.59C723.099 47.59 723.215 47.59 723.331 47.59C723.621 47.59 723.853 47.59 724.143 47.59C724.781 47.648 725.361 47.706 725.999 47.822C726.463 47.88 726.927 47.996 727.391 48.054C727.971 48.112 728.435 47.996 729.015 47.996C730.175 47.996 731.335 47.88 732.495 48.054C733.017 48.112 733.655 48.112 734.177 48.344C734.351 48.402 734.583 48.46 734.641 48.576C734.757 48.866 734.641 49.33 734.641 49.562C734.641 50.142 734.525 50.664 734.525 51.244C734.525 51.592 734.641 51.94 734.293 52.114C734.061 52.172 733.771 52.172 733.539 52.23C733.249 52.288 732.959 52.346 732.669 52.404C732.147 52.462 731.567 52.404 730.987 52.462C730.755 52.52 730.465 52.52 730.175 52.578C729.943 52.636 729.711 52.578 729.479 52.52C728.841 52.52 728.261 52.578 727.623 52.462C727.043 52.404 726.521 52.288 725.999 52.114C725.361 51.882 724.781 51.824 724.143 51.766C723.621 51.708 723.099 51.592 722.577 51.534C722.403 51.534 721.707 51.476 721.417 51.36C721.417 51.65 721.359 51.94 721.359 52.23C721.359 52.868 721.417 53.564 721.475 54.144C721.475 54.492 721.475 54.84 721.475 55.13C721.475 55.478 721.533 55.768 721.533 56.116C722.519 56.58 723.737 56.348 724.781 56.29C725.303 56.29 725.825 56.406 726.405 56.406C727.043 56.406 727.623 56.406 728.261 56.522C728.783 56.58 729.363 56.638 729.885 56.696C730.175 56.754 730.465 56.754 730.755 56.754C730.871 56.754 731.045 56.812 731.161 56.812C731.335 56.812 731.451 56.754 731.625 56.812C731.857 56.812 732.031 56.87 732.263 56.928C732.553 56.928 732.843 56.928 733.133 56.928C733.423 56.928 733.713 56.986 734.003 56.986C734.351 57.044 734.757 56.986 735.047 57.102C735.511 57.276 735.337 57.74 735.337 58.146C735.337 58.726 735.337 59.306 735.337 59.886C735.279 61.104 735.105 62.322 735.221 63.482C735.221 63.598 735.337 64.062 735.221 64.12C735.105 64.294 734.525 64.178 734.409 64.178C733.713 64.12 733.075 64.062 732.379 64.004C731.161 63.83 730.001 63.656 728.783 63.656C727.449 63.656 726.289 63.018 725.013 62.96C724.781 62.96 724.491 62.96 724.201 62.96C723.853 62.902 723.563 62.844 723.215 62.786C722.867 62.786 722.519 62.786 722.229 62.728C721.939 62.728 721.649 62.612 721.359 62.554C721.359 63.424 721.475 64.294 721.475 65.164C721.475 65.628 721.533 66.034 721.591 66.498C721.649 66.962 721.649 67.484 721.765 67.948C721.765 68.122 721.881 68.238 721.881 68.412C721.939 68.644 721.881 68.818 721.881 69.05C721.823 69.514 721.939 69.92 721.881 70.384C721.823 71.196 721.591 72.066 721.765 72.878C721.823 73.11 721.649 73.4 721.707 73.574C721.765 73.748 721.823 73.69 722.055 73.748C722.519 73.748 722.983 73.806 723.505 73.806C724.259 73.806 725.071 73.98 725.825 74.096C726.231 74.096 726.579 74.27 726.927 74.27C727.333 74.386 727.739 74.502 728.145 74.502C729.073 74.502 730.001 74.56 730.929 74.56C731.393 74.56 731.857 74.444 732.263 74.502C732.669 74.618 733.017 74.56 733.423 74.56C733.829 74.56 734.177 74.676 734.583 74.618C734.815 74.56 735.047 74.56 735.279 74.56C735.511 74.56 735.801 74.444 736.033 74.386C736.439 74.27 736.845 74.212 737.193 74.154C737.425 74.096 737.599 74.096 737.831 74.096C738.063 74.096 738.295 73.98 738.527 73.922C738.933 73.922 738.817 74.328 738.759 74.618C738.701 75.14 738.701 75.604 738.701 76.068C738.759 76.88 738.759 77.634 738.875 78.446ZM722.113 47.3C721.707 47.126 721.707 47.59 721.707 47.822C721.881 47.764 722.345 47.822 722.403 47.648C722.403 47.532 722.229 47.358 722.113 47.3ZM784.521 57.508C784.869 57.856 783.477 58.61 783.187 58.842C782.897 59.132 782.665 59.19 782.317 59.364C781.969 59.538 781.679 59.828 781.331 60.002C780.577 60.408 779.823 60.698 779.127 61.162C778.779 61.394 778.547 61.684 778.257 61.916C777.967 62.148 777.677 62.264 777.387 62.496C777.097 62.728 776.749 62.786 776.459 62.96C776.111 63.192 775.879 63.54 775.531 63.772C774.893 64.12 774.313 64.7 773.791 65.164C773.153 65.744 772.457 66.266 771.819 66.846C771.529 67.136 771.239 67.484 770.891 67.716C770.717 67.832 770.485 68.006 770.311 68.122C770.137 68.18 769.963 68.18 769.847 68.296C769.499 68.528 769.847 68.586 769.963 68.876C770.195 69.108 770.311 69.456 770.485 69.746C770.833 70.326 771.471 70.906 771.877 71.544C772.051 71.834 772.167 72.124 772.341 72.414C772.689 72.762 772.921 73.168 773.211 73.516C773.733 74.154 774.023 74.966 774.545 75.546C775.125 76.068 775.589 76.706 776.053 77.286C776.285 77.634 776.517 77.924 776.691 78.214C776.865 78.446 777.097 78.62 777.329 78.852C777.561 79.084 777.793 79.316 778.083 79.606C778.315 79.896 778.547 80.302 778.779 80.592C778.953 80.824 779.301 80.94 779.301 81.288C779.301 81.636 778.895 81.52 778.605 81.52C777.735 81.52 776.807 81.636 775.937 81.52C775.009 81.462 774.081 81.346 773.153 81.288C772.689 81.23 772.225 81.056 771.819 80.94C771.355 80.824 770.891 80.766 770.427 80.708C770.021 80.65 769.557 80.534 769.151 80.534C768.629 80.534 768.397 80.36 767.991 80.07C767.295 79.548 766.599 78.968 765.903 78.388C765.265 77.866 764.801 77.286 764.453 76.59C764.279 76.3 763.931 76.068 763.757 75.778C763.525 75.43 763.351 75.024 763.119 74.676C762.713 74.038 762.307 73.4 761.901 72.762C761.379 73.11 760.857 73.342 760.277 73.632C759.813 73.864 759.349 74.212 758.885 74.444C758.827 74.444 758.711 74.444 758.595 74.502C758.537 74.56 758.421 74.676 758.305 74.734C758.073 74.908 757.725 75.024 757.435 75.198C757.203 75.314 756.971 75.546 756.681 75.662C756.507 75.778 756.333 75.778 756.159 75.894C755.231 76.416 754.245 76.938 753.317 77.46C752.795 77.75 752.273 78.098 751.751 78.388C751.519 78.504 751.345 78.562 751.171 78.678C750.881 78.794 750.765 78.968 750.475 79.084C750.243 79.2 750.069 79.316 749.895 79.49C749.663 79.606 749.431 79.722 749.199 79.896C749.083 79.954 748.967 80.244 748.851 80.244C748.677 80.302 747.865 79.838 747.749 79.78C747.459 79.664 747.111 79.432 746.763 79.374C746.531 79.316 746.241 79.316 745.951 79.258C745.661 79.2 745.371 79.142 745.023 79.084C744.675 78.968 744.327 78.968 743.979 78.852C743.689 78.794 743.399 78.678 743.689 78.446C743.863 78.214 743.979 78.098 744.095 77.866C744.269 77.692 744.443 77.518 744.675 77.344C744.907 77.112 745.081 76.88 745.313 76.648C745.661 76.358 746.009 76.242 746.357 75.894C746.531 75.662 746.647 75.604 746.879 75.488C746.937 75.488 747.169 75.314 747.227 75.198C747.285 75.024 747.401 74.85 747.517 74.676C747.691 74.444 748.039 74.328 748.213 74.096C748.445 73.864 748.561 73.632 748.735 73.458C749.025 73.284 749.199 72.936 749.489 72.704C749.721 72.53 749.895 72.472 750.069 72.24C750.301 72.066 750.533 71.95 750.765 71.776C751.055 71.66 751.229 71.428 751.519 71.254C751.751 71.138 751.925 71.022 752.157 70.848C752.331 70.674 752.563 70.5 752.853 70.558C752.853 70.384 752.911 70.268 753.085 70.152C753.143 70.268 753.723 69.63 753.955 69.456C754.187 69.282 754.419 69.05 754.709 68.992C754.999 68.934 755.231 68.818 755.463 68.76C755.637 68.644 755.637 68.702 755.811 68.586C755.927 68.47 756.043 68.354 756.159 68.296C756.391 68.064 756.623 67.89 756.913 67.832C757.145 67.716 757.435 67.716 757.725 67.6C758.015 67.426 758.073 67.368 758.189 67.078C758.305 67.136 758.595 66.904 758.595 66.73C758.653 66.556 758.711 66.672 758.595 66.382C758.479 65.976 758.189 65.57 757.957 65.222C757.783 64.874 757.551 64.584 757.435 64.236C757.261 63.888 757.087 63.656 756.855 63.366C756.449 62.844 756.159 62.264 755.753 61.8C755.463 61.51 755.289 61.22 755.057 60.93C754.883 60.756 754.709 60.64 754.535 60.408C754.071 59.828 753.491 59.248 752.969 58.784C752.447 58.32 751.983 57.798 751.519 57.276C750.997 56.696 750.417 56.116 749.895 55.478C749.663 55.188 749.373 54.898 749.141 54.55C748.909 54.202 748.735 53.912 748.445 53.738C748.677 53.506 749.083 53.68 749.431 53.738C749.953 53.796 751.519 53.622 752.041 53.68C752.911 53.738 753.723 53.854 754.593 53.97C755.405 54.086 756.275 54.028 757.087 54.26C757.957 54.492 758.885 54.666 759.813 54.84C760.219 54.898 760.683 54.956 761.031 55.13C761.437 55.304 761.611 55.652 761.785 56C762.191 56.696 762.423 57.45 762.945 58.088C763.119 58.378 763.409 58.61 763.641 58.9C763.931 59.248 764.221 59.654 764.569 60.002C764.859 60.35 765.381 61.742 765.845 61.626C766.193 61.51 766.483 61.046 766.773 60.872C767.121 60.64 767.353 60.408 767.701 60.234C768.049 60.06 768.397 59.886 768.745 59.712C769.035 59.48 769.441 59.422 769.789 59.19C770.079 59.074 770.369 58.9 770.659 58.726C770.833 58.61 771.007 58.61 771.181 58.494C771.355 58.378 771.471 58.204 771.645 58.088C771.761 58.03 771.935 58.03 772.051 57.972C772.283 57.856 772.457 57.74 772.689 57.624C772.979 57.45 773.269 57.334 773.617 57.102C773.849 56.986 774.023 56.696 774.313 56.58C774.719 56.406 774.951 56.406 775.299 56.174C775.531 56 776.053 55.594 776.343 55.826C776.691 56.116 775.995 56.29 776.401 56.464C776.633 56.638 777.155 56.464 777.445 56.522C777.967 56.522 778.489 56.58 778.953 56.58C779.939 56.696 780.925 56.754 781.911 56.87C782.375 56.928 782.839 56.928 783.245 57.044C783.593 57.102 784.289 57.218 784.521 57.508ZM823.008 68.18C823.066 68.702 823.762 69.514 824.11 69.862C824.284 70.036 824.458 70.152 824.632 70.326C824.922 70.558 825.096 71.022 825.27 71.37C825.676 71.95 826.024 72.53 826.372 73.168C826.72 73.806 826.952 74.56 827.474 75.082C827.938 75.662 828.518 75.952 828.924 76.59C829.156 76.88 829.272 77.228 829.446 77.576C829.562 77.75 830.142 78.098 830.142 78.272C830.142 78.794 828.808 78.388 828.518 78.388C827.822 78.33 827.068 78.33 826.372 78.272C824.806 78.156 823.298 78.04 821.732 78.04C821.036 78.098 820.282 78.156 819.586 78.04C819.238 77.982 819.064 77.982 818.89 77.576C818.716 77.286 818.6 76.938 818.426 76.648C817.672 75.488 817.034 74.212 816.338 72.994C815.99 72.414 815.642 71.776 815.352 71.138C815.236 70.79 815.12 70.442 814.946 70.152C814.946 70.094 814.772 69.688 814.714 69.688C814.482 69.514 814.598 69.63 814.366 69.63C813.786 69.688 813.206 69.804 812.626 69.92C812.046 69.978 811.524 69.978 810.944 70.094C809.494 70.326 808.102 70.21 806.652 70.5C806.072 70.616 805.898 71.08 805.666 71.602C805.144 72.53 804.738 73.342 804.1 74.212C803.114 75.604 802.07 76.88 801.258 78.388C800.852 79.142 800.388 78.91 799.634 78.91C798.706 78.852 797.836 78.678 796.966 78.62C795.574 78.446 794.182 78.388 792.79 78.098C792.674 78.098 792.5 78.04 792.442 78.04C792.21 77.808 792.442 77.866 792.442 77.75C792.5 77.634 792.558 77.808 792.616 77.518C792.616 77.402 792.442 77.228 792.384 77.17C792.036 76.474 791.978 75.72 792.094 74.966C792.268 74.038 792.326 73.226 792.79 72.356C792.964 72.066 793.138 71.776 793.37 71.486C793.486 71.312 794.24 70.732 794.182 70.558C794.124 70.268 793.66 70.5 793.486 70.5C793.428 70.5 793.254 70.442 793.138 70.442C793.022 70.384 792.906 70.21 792.848 70.21C792.558 70.152 792.326 70.326 792.036 70.326C791.746 70.326 791.456 70.094 791.166 70.21C790.702 70.268 790.818 70.384 790.354 70.21C790.064 70.094 789.542 70.094 789.252 69.978C788.962 69.804 789.078 70.094 789.02 69.746C788.962 69.572 789.078 69.398 789.136 69.282C789.252 68.934 789.426 68.528 789.542 68.18C789.6 68.064 789.6 67.832 789.658 67.716C789.658 67.658 789.832 67.658 789.89 67.542C790.006 67.31 790.122 67.02 790.238 66.788C790.47 66.034 790.76 65.28 791.108 64.526C791.398 64.062 791.746 63.076 792.326 62.902C792.674 62.844 795.806 62.902 794.472 62.786C794.182 62.786 792.674 62.67 793.254 62.264C793.486 62.148 794.414 62.38 794.704 62.38C795.69 62.496 796.966 62.206 797.894 61.916C799.228 61.452 800.62 61.046 802.012 60.756C802.36 60.64 802.766 60.524 802.94 60.176C802.998 60.06 802.824 60.002 802.882 59.886C802.94 59.828 803.056 59.77 803.056 59.712C803.172 59.48 803.462 59.074 803.694 58.842C804.332 57.856 804.97 56.812 805.782 55.942C806.246 55.42 806.536 54.956 807 54.434C807.406 53.97 807.812 53.448 808.102 52.926C808.45 52.23 808.972 51.592 809.32 50.896C809.378 50.722 809.552 50.548 809.668 50.374C809.784 50.142 809.784 49.852 809.958 49.62C810.132 49.388 809.958 49.446 810.364 49.33C810.77 49.272 810.712 49.446 810.944 49.794C812.278 51.65 813.496 53.622 814.83 55.536C815.236 56.058 815.584 56.58 815.874 57.102C816.164 57.566 816.396 58.32 816.744 58.61C817.208 59.016 817.846 58.784 818.368 58.726C819.18 58.668 820.05 58.61 820.862 58.552C822.254 58.436 823.472 58.842 824.864 59.074C826.14 59.306 827.648 59.77 828.982 59.654C828.924 59.654 829.446 59.538 829.388 59.538C829.562 59.654 829.562 60.06 829.562 60.176C829.678 60.524 829.736 60.814 829.852 61.162C830.084 61.974 830.316 62.786 830.432 63.598C830.606 64.41 830.664 65.28 830.722 66.092C830.78 66.44 831.07 67.136 830.896 67.484C830.78 67.774 830.316 67.658 830.084 67.6C829.794 67.6 829.62 67.716 829.388 67.774C829.04 67.774 828.692 67.716 828.402 67.716C827.764 67.774 827.184 67.774 826.604 67.832C825.85 67.832 825.154 67.948 824.4 68.006C823.994 68.006 823.414 67.948 823.008 68.18ZM811.06 63.598C810.306 64.642 809.436 65.628 808.624 66.672C808.16 67.194 807.754 67.774 807.348 68.354C807.174 68.644 806.304 69.862 806.42 70.21C808.74 69.746 811.118 69.746 813.438 69.456C813.67 69.398 814.366 69.514 814.482 69.34C814.54 69.282 814.25 68.76 814.25 68.76C813.96 68.122 813.612 67.484 813.264 66.904C812.916 66.382 812.626 65.918 812.336 65.396C811.988 64.816 811.64 63.946 811.06 63.598ZM829.04 63.424C828.982 63.772 828.982 64.062 828.982 64.352C828.982 64.526 828.866 65.164 828.924 65.222C829.214 65.512 829.098 64.526 829.098 64.468C829.098 64.178 829.214 63.714 829.04 63.424ZM790.818 69.688C791.05 69.398 790.528 69.456 790.412 69.514C790.47 69.746 790.644 69.688 790.818 69.688ZM790.006 69.63C789.89 69.456 789.774 69.34 789.658 69.224C789.658 69.63 789.6 69.63 790.006 69.63ZM792.906 76.88C793.254 76.938 792.964 76.59 792.848 76.532C792.79 76.648 792.79 76.764 792.906 76.88ZM792.79 63.308C792.5 63.076 792.5 63.656 792.558 63.83C792.616 63.656 792.674 63.482 792.79 63.308ZM792.906 75.546C792.79 75.662 792.906 75.72 793.022 75.778C793.022 75.72 792.964 75.604 792.906 75.546ZM829.04 63.076C828.982 63.018 828.924 63.134 829.04 63.192C829.04 63.134 829.04 63.076 829.04 63.076ZM829.098 65.512C829.156 65.512 828.924 65.396 828.982 65.512C828.982 65.57 829.04 65.57 829.098 65.512ZM792.732 64.642C792.79 64.7 792.848 64.642 792.848 64.468C792.732 64.468 792.674 64.526 792.732 64.642ZM792.442 64.99C792.442 65.048 792.384 65.048 792.384 65.164C792.442 65.106 792.5 65.048 792.442 64.99ZM792.268 65.686C792.326 65.686 792.326 65.686 792.326 65.512C792.326 65.57 792.268 65.628 792.268 65.686ZM864.338 50.142C864.628 50.374 864.57 51.94 864.57 52.404C864.628 53.274 864.628 54.144 864.628 55.014C864.628 56.696 864.686 58.436 864.802 60.118C864.918 61.742 864.802 63.424 864.976 65.048C865.092 66.614 865.034 68.122 865.266 69.63C865.382 70.384 865.382 71.196 865.382 72.008C865.44 72.704 865.556 73.458 865.614 74.154C865.614 75.024 865.614 75.894 865.556 76.706C865.556 77.17 865.556 77.46 865.556 77.866C865.672 78.504 865.556 78.562 864.976 78.736C864.164 78.91 863.41 79.142 862.656 79.2C862.192 79.258 861.728 79.258 861.264 79.316C860.626 79.374 860.626 79.374 860.51 78.794C860.394 78.33 860.278 77.808 860.22 77.344C860.162 76.938 860.162 76.59 860.162 76.184C860.104 75.314 859.93 74.444 859.756 73.574C859.524 72.646 859.466 71.66 859.35 70.732C859.234 69.862 859.002 68.934 858.944 68.006C858.886 67.194 858.828 66.266 858.712 65.454C858.654 65.048 858.596 64.584 858.596 64.178C858.596 63.888 858.654 63.366 858.538 63.134V63.192C858.19 63.366 857.784 63.25 857.436 63.308C857.088 63.366 856.682 63.308 856.334 63.366C855.522 63.424 854.768 63.482 854.014 63.54C853.202 63.598 852.39 63.714 851.578 63.83C850.824 63.946 850.012 64.178 849.258 64.178C848.852 64.178 848.446 64.004 848.04 64.12C847.75 64.178 847.866 64.12 847.75 64.41C847.692 64.584 847.692 64.526 847.576 64.642C847.344 64.874 847.46 64.294 847.344 64.874C847.286 65.106 847.286 65.396 847.286 65.57C847.286 65.976 847.344 66.382 847.344 66.788C847.46 67.542 847.46 68.296 847.402 69.05C847.344 69.398 847.344 69.804 847.344 70.152C847.344 70.268 847.402 70.558 847.344 70.616C847.286 70.848 847.344 70.79 847.112 70.79C847.054 70.848 847.286 70.848 847.286 70.906C847.344 71.022 847.402 71.254 847.402 71.37C847.402 71.66 847.286 71.95 847.344 72.24C847.402 72.588 847.46 72.936 847.576 73.226C847.634 73.458 847.634 73.516 847.634 73.69C847.692 73.922 847.634 74.096 847.634 74.27C847.692 74.618 847.808 74.908 847.808 75.256C847.808 75.314 847.692 75.546 847.75 75.604C847.75 75.778 847.924 75.952 847.924 76.126C848.04 76.532 847.982 76.938 848.098 77.344C848.156 77.634 848.33 78.272 848.098 78.446C848.388 78.678 848.446 79.316 848.214 79.548C848.446 79.664 848.62 79.78 848.388 80.012C848.62 80.07 848.91 80.708 848.794 80.882C848.678 81.114 848.04 81.056 847.866 81.056C847.17 81.172 846.416 81.404 845.778 81.578C845.024 81.752 844.27 81.868 843.574 81.984C842.82 82.1 841.95 82.39 841.312 81.984C841.486 81.926 841.602 81.926 841.718 81.868C841.718 81.868 841.718 81.81 841.718 81.752C841.718 81.404 841.776 80.07 841.776 79.722C841.776 79.258 841.486 78.794 841.428 78.33C841.312 78.04 841.37 77.634 841.254 77.344C841.196 77.228 841.08 77.054 841.022 76.938C840.848 76.706 840.79 76.416 840.674 76.184C840.094 74.56 839.108 73.052 838.934 71.254C838.876 70.848 838.818 70.442 838.76 70.036C838.702 69.514 838.702 68.992 838.644 68.412C838.528 67.6 838.644 66.846 838.644 66.034C838.586 64.178 838.934 62.38 838.876 60.582C838.876 60.292 838.876 60.002 838.992 59.712C839.108 59.248 838.992 58.9 839.05 58.436C839.05 58.03 839.108 57.566 839.224 57.16C839.34 56.696 839.34 56.232 839.456 55.71C839.572 55.304 839.688 54.782 839.746 54.318C839.746 54.144 839.688 53.912 839.746 53.68C839.746 53.39 839.862 53.216 839.92 52.926C839.978 52.578 839.862 52.172 839.978 51.766C840.036 51.592 840.094 51.476 840.21 51.302C840.384 51.128 840.384 51.012 840.442 50.722C840.5 50.49 840.616 50.258 840.732 49.968C840.79 49.736 840.848 49.504 841.022 49.388C841.254 49.214 841.544 49.214 841.776 49.156C842.704 48.924 843.574 48.924 844.502 48.924C845.082 48.924 845.604 48.982 846.184 49.098C846.706 49.214 846.88 49.156 846.996 49.736C847.228 50.838 847.228 51.998 847.344 53.1C847.46 54.26 847.286 55.42 847.286 56.58C847.286 57.044 847.402 57.566 847.344 58.088C847.286 58.726 847.17 59.364 847.286 60.002C847.46 59.596 847.402 59.132 847.576 58.784C847.692 58.494 847.692 58.552 848.04 58.552C848.272 58.552 848.504 58.494 848.736 58.436C849.606 58.378 850.418 58.32 851.23 58.262C852.158 58.204 853.028 58.262 853.956 58.146C854.768 57.972 855.638 57.856 856.508 57.74C856.972 57.682 857.378 57.624 857.842 57.566C858.016 57.566 858.132 57.566 858.19 57.45C858.248 57.334 858.074 56.986 858.074 56.812C858.016 55.884 857.958 54.956 857.9 54.028C857.842 53.1 857.842 52.23 857.9 51.302C857.9 51.012 857.958 50.374 858.132 50.084C857.668 50.084 857.204 50.084 857.03 49.794C856.856 49.504 857.494 49.62 857.668 49.62C858.19 49.62 858.654 49.562 859.176 49.62C859.988 49.678 860.742 49.852 861.554 49.91C862.018 49.968 862.482 50.026 862.946 50.026C863.294 50.084 864.048 49.968 864.338 50.142ZM894.556 49.214C894.73 49.098 894.846 48.982 894.846 48.808C895.31 49.04 895.774 48.634 896.238 48.402C896.76 48.17 897.398 47.996 897.862 47.764C898.326 47.474 898.848 47.242 899.312 47.01C899.892 46.72 900.472 46.372 901.052 46.14C901.574 45.966 901.574 46.256 901.632 46.662C901.632 46.894 901.748 47.126 901.806 47.358C901.864 47.706 901.806 48.054 901.864 48.402C901.864 48.692 902.038 48.982 902.038 49.272C902.038 49.562 901.98 49.794 901.98 50.084C902.038 50.722 902.096 51.302 902.154 51.94C902.212 53.216 902.444 54.434 902.618 55.71C902.85 56.87 902.966 58.088 903.198 59.306C903.43 60.35 903.662 61.394 903.836 62.438C903.952 63.018 903.952 63.598 904.01 64.12C904.068 64.816 904.184 65.512 904.242 66.15C904.3 66.73 904.358 67.31 904.416 67.832C904.474 68.064 904.532 68.238 904.59 68.47C904.648 68.76 904.532 69.108 904.59 69.456C904.648 70.036 904.59 70.616 904.59 71.196C904.59 71.776 904.648 72.356 904.59 72.936C904.474 74.154 904.242 75.372 904.184 76.59C904.184 76.822 904.358 77.286 904.242 77.46C904.126 77.634 903.778 77.634 903.546 77.692C902.908 77.692 902.27 77.692 901.632 77.75C900.472 77.866 899.37 78.098 898.21 77.866C897.688 77.808 897.746 77.17 897.688 76.706C897.572 76.068 897.456 75.372 897.398 74.734C897.34 74.096 897.398 73.458 897.398 72.82C897.34 72.182 897.224 71.544 897.224 70.906C897.282 69.572 897.166 68.238 897.108 66.962C897.108 66.208 896.992 65.512 897.05 64.758C897.108 64.12 897.224 63.424 897.224 62.786C897.282 62.206 897.224 61.626 897.224 61.046C897.282 60.234 897.282 59.48 897.166 58.726C896.992 57.276 896.644 55.826 896.412 54.318C896.354 53.622 896.18 52.984 896.006 52.288C895.774 51.592 895.716 50.838 895.368 50.2C895.31 50.258 895.31 50.374 895.252 50.49C895.078 50.432 894.846 50.026 894.672 49.852C894.44 50.258 894.266 50.722 894.15 51.186C894.034 51.766 893.802 52.172 893.512 52.694C893.222 53.216 892.99 53.622 892.816 54.202C892.642 54.666 892.352 54.956 892.062 55.362C891.424 56.174 891.192 57.218 890.554 58.03C890.264 58.378 890.148 58.784 889.974 59.248C889.858 59.48 889.684 59.596 889.568 59.77C889.336 60.002 889.162 60.292 888.988 60.524C888.408 61.452 887.944 62.496 887.538 63.482C887.132 64.526 886.552 65.57 886.204 66.672C885.914 67.484 885.566 68.296 885.102 69.05C884.638 69.92 884 70.674 883.536 71.544C883.304 72.066 883.13 72.588 882.84 73.11C882.724 73.342 882.666 73.632 882.55 73.922C882.376 74.154 882.26 74.27 882.144 74.56C881.97 75.024 881.796 75.43 881.68 75.836C881.622 76.068 881.506 76.242 881.39 76.474C881.39 76.474 881.39 76.474 881.39 76.532C881.216 76.532 881.158 76.59 881.216 76.764C881.158 76.938 880.926 77.17 880.926 77.344C880.926 77.286 880.984 77.866 880.926 77.808C881.158 78.04 881.738 77.402 881.912 77.808C881.738 78.04 881.274 77.924 881.042 77.982C880.868 78.098 880.694 78.446 880.404 78.33C880.288 78.33 880.288 78.272 880.23 78.272C880.23 78.214 880.172 78.214 880.172 78.156C880.056 78.156 879.94 78.156 879.824 78.156C879.36 78.214 878.896 78.388 878.432 78.446C878.084 78.504 877.736 78.62 877.388 78.678C877.156 78.794 876.518 79.084 876.286 78.968C876.112 78.852 876.112 78.62 876.054 78.446C875.996 78.156 875.938 77.808 875.822 77.518C875.764 77.228 875.648 77.054 875.648 76.764C875.648 76.474 875.648 76.3 875.59 76.01C875.474 75.43 875.416 74.908 875.358 74.328C875.358 74.038 875.242 73.748 875.184 73.458C875.126 73.052 875.184 72.704 875.126 72.298C875.068 72.124 875.01 72.008 875.01 71.776C874.952 71.37 875.068 71.022 875.01 70.558C874.894 69.92 875.01 69.166 874.894 68.528C874.836 68.18 874.72 67.89 874.72 67.542C874.72 67.252 874.72 66.962 874.72 66.672C874.604 65.918 874.546 65.164 874.604 64.468C874.604 63.714 874.43 62.96 874.372 62.264C874.314 61.568 874.198 60.93 874.14 60.292C874.14 60.002 874.082 59.77 874.024 59.48C873.966 59.364 873.908 59.248 873.908 59.132C873.85 58.842 874.024 58.552 873.966 58.32C873.908 58.088 873.85 57.972 873.85 57.74C873.85 57.392 873.734 57.218 873.676 56.928C873.618 56.348 873.618 55.768 873.56 55.188C873.502 54.782 873.502 54.376 873.444 53.97C873.386 53.912 873.328 53.912 873.328 53.854C873.27 53.796 873.328 53.738 873.386 53.68C873.328 53.564 873.444 53.39 873.444 53.274C873.444 53.158 873.328 53.042 873.328 52.926C873.328 52.694 873.444 52.578 873.444 52.346C873.502 52.056 873.502 51.708 873.444 51.418C873.328 51.012 873.328 50.664 873.328 50.258C873.328 50.2 873.386 49.736 873.328 49.678C873.27 49.562 872.922 49.562 872.748 49.504C872.632 49.504 871.646 49.33 872.11 49.04C872.284 48.982 873.038 49.272 873.212 49.33C873.27 49.156 873.212 48.808 873.444 48.75C873.734 48.692 873.56 49.214 873.676 49.33C873.792 49.504 874.256 49.504 874.43 49.562C874.778 49.62 875.126 49.678 875.416 49.736C875.938 49.794 876.46 49.968 876.982 50.026C877.562 50.084 878.258 50.084 878.78 50.258C879.244 50.49 879.128 50.954 879.186 51.418C879.244 52.056 879.36 52.636 879.36 53.274C879.476 54.434 879.476 55.594 879.476 56.754C879.476 57.972 879.592 59.132 879.534 60.35C879.534 61.336 879.592 62.322 879.476 63.25C879.418 63.598 879.534 64.004 879.534 64.352C879.592 64.642 879.65 64.874 879.708 65.164C879.708 65.454 879.65 65.744 879.708 66.034C879.824 67.136 879.882 68.18 879.998 69.282C880.114 69.978 880.172 76.532 880.462 76.532C880.578 75.952 880.52 75.372 880.52 74.85C880.462 74.27 880.288 73.632 880.404 73.052C880.52 72.53 880.81 72.066 881.1 71.602C881.39 71.196 881.622 70.616 881.912 70.152C882.202 69.63 882.376 69.05 882.782 68.528C883.13 68.064 883.478 67.542 883.884 67.078C884.406 66.382 884.87 65.57 885.334 64.816C886.436 62.96 887.19 60.93 888.176 59.016C888.698 58.03 889.104 56.986 889.626 55.942C889.858 55.478 889.974 55.014 890.206 54.55C890.438 54.086 890.728 53.622 890.844 53.1C891.192 51.882 891.714 50.838 892.294 49.736C892.468 49.504 892.584 49.272 892.758 49.04C892.874 48.866 893.048 48.46 893.28 48.402C893.802 48.228 894.324 48.924 894.556 49.214ZM894.962 49.388C894.672 49.504 895.136 49.91 895.252 49.968C895.194 49.794 895.136 49.562 894.962 49.388ZM930.703 70.964C930.877 71.428 930.761 72.182 930.703 72.704C930.645 73.052 930.471 73.342 930.297 73.69C930.007 74.096 929.775 74.56 929.485 74.966C929.195 75.314 928.905 75.662 928.557 75.952C928.441 76.126 928.209 76.184 928.035 76.242C927.977 76.3 927.861 76.474 927.803 76.532C927.571 76.706 927.339 76.822 927.107 76.938C926.933 77.112 926.759 77.286 926.585 77.402C926.411 77.518 926.295 77.46 926.179 77.518C926.063 77.634 926.005 77.75 925.773 77.808C925.367 77.924 924.961 77.982 924.555 78.156C923.801 78.446 922.815 78.504 922.003 78.62C921.597 78.678 920.611 78.736 920.263 78.736C920.205 78.736 920.147 78.736 920.147 78.736C919.857 78.852 919.161 78.852 919.103 78.852C918.639 78.91 918.175 78.91 917.711 78.91C916.667 78.91 915.623 78.852 914.637 78.504C914.173 78.388 913.593 78.33 913.071 78.214C912.955 78.214 912.665 78.156 912.607 78.04C912.549 78.04 912.607 77.576 912.607 77.46C912.607 76.764 912.607 75.952 912.607 75.198C912.607 74.966 912.549 74.734 912.491 74.56C912.433 74.386 912.317 74.212 912.317 73.98C912.317 73.864 912.375 73.748 912.375 73.574C912.317 73.342 912.317 73.11 912.259 72.878C912.201 72.646 912.143 72.472 912.143 72.24C912.143 72.124 912.143 72.066 912.085 71.892L912.027 71.834C912.027 71.66 912.143 71.544 912.085 71.428C912.085 71.312 912.027 71.196 911.969 71.08C911.911 70.732 912.027 70.326 912.027 69.978C912.027 69.804 912.085 69.572 912.085 69.398C912.085 69.282 912.027 69.224 912.027 69.108C912.027 68.992 912.085 68.934 912.143 68.818C912.201 68.47 912.201 68.064 912.201 67.658C912.201 67.252 912.143 66.846 912.143 66.44C912.085 65.86 912.027 65.28 912.027 64.7C912.027 64.352 911.969 63.888 912.085 63.598C912.201 63.424 912.259 63.366 912.433 63.25C912.607 63.134 912.781 62.902 912.955 62.844C913.361 62.67 913.593 63.076 913.709 63.366C913.709 63.366 913.825 63.482 913.941 63.598C913.941 63.424 913.999 63.25 913.999 63.076C913.999 62.612 913.999 62.148 913.999 61.684C913.941 61.22 913.883 60.814 913.825 60.408C913.825 60.176 913.767 59.886 913.767 59.654C913.767 59.48 913.651 59.074 913.651 58.9C913.709 58.726 913.767 58.842 913.883 58.668C914.057 58.552 913.999 58.61 913.941 58.32C913.883 57.856 913.883 57.45 913.825 56.986C913.651 56.116 913.477 55.304 913.187 54.492C912.897 53.622 912.723 52.752 912.549 51.882C912.317 50.896 912.375 49.968 912.085 49.04C912.027 48.808 911.969 48.518 911.853 48.344C911.737 48.112 911.737 48.228 911.505 48.17C911.215 47.996 911.447 47.822 911.679 47.764C911.621 47.648 911.331 46.952 911.795 47.184C911.911 47.242 911.911 47.59 912.085 47.648C912.143 47.648 912.317 47.59 912.375 47.532C912.781 47.358 913.187 47.184 913.651 47.126C914.173 46.952 914.695 46.894 915.275 46.836C916.029 46.778 916.841 46.778 917.595 46.72C917.885 46.662 918.117 46.604 918.349 46.546C918.929 46.488 919.451 46.488 920.031 46.488C920.843 46.488 921.655 46.604 922.525 46.372C923.105 46.256 923.743 46.14 924.381 46.082C925.831 45.908 927.513 46.14 928.731 46.952C929.079 47.184 929.369 47.416 929.543 47.764C929.659 48.054 929.775 48.402 929.891 48.692C930.007 48.982 930.123 49.272 930.181 49.62C930.181 49.794 930.181 49.968 930.239 50.084C930.239 50.142 930.297 50.142 930.297 50.2C930.355 50.374 930.297 50.606 930.297 50.78C930.297 50.954 930.355 51.128 930.355 51.302C930.413 51.592 930.471 51.998 930.413 52.288C930.413 52.636 930.413 52.984 930.413 53.274C930.413 53.622 930.297 53.97 930.355 54.26C930.355 55.072 930.297 55.884 930.355 56.638C930.355 57.044 930.355 57.334 930.123 57.682C929.891 57.972 929.833 58.32 929.659 58.61C929.485 59.074 929.079 59.364 928.615 59.596C928.325 59.77 928.035 60.002 927.745 60.176C926.991 60.582 926.179 60.64 925.309 60.698C924.555 60.698 923.743 60.756 922.989 60.814C922.119 60.872 921.307 60.988 920.437 61.22C919.567 61.394 918.697 61.568 917.827 61.568C916.841 61.568 915.855 61.568 914.927 61.626C915.565 61.684 916.203 61.916 916.841 61.974C917.711 62.032 918.581 62.032 919.509 62.032C921.075 61.974 922.699 61.858 924.265 61.916C925.657 62.032 927.165 62.264 928.325 63.076C928.673 63.308 928.731 63.656 928.905 63.888C929.079 64.236 929.137 64.468 929.195 64.816C929.427 65.628 929.601 66.382 929.833 67.136C929.949 67.484 930.007 67.774 930.065 68.064C930.123 68.412 930.239 68.76 930.355 69.108C930.413 69.398 930.413 69.746 930.471 70.036C930.529 70.268 930.587 70.732 930.703 70.964ZM915.159 52.52C915.101 52.81 915.275 53.158 915.275 53.39C915.333 53.68 915.333 53.97 915.333 54.202C915.333 54.492 915.159 54.782 915.275 55.072C915.333 55.188 915.217 55.362 915.275 55.478C915.391 55.594 915.565 55.652 915.681 55.652C916.029 55.768 916.435 56 916.783 56C917.479 56 918.175 55.768 918.871 55.652C919.451 55.536 920.089 55.536 920.611 55.188C921.075 54.898 921.597 54.608 921.829 54.086C921.887 53.912 922.061 53.68 922.003 53.506C921.945 53.274 921.539 53.1 921.307 52.984C920.843 52.694 920.321 52.404 919.741 52.172C918.523 51.708 917.247 51.824 915.971 52.172C915.797 52.23 915.565 52.23 915.391 52.288C915.159 52.404 915.217 52.346 915.159 52.52ZM914.579 70.094C914.579 70.326 914.579 70.5 914.579 70.732C914.579 70.79 914.521 70.964 914.579 71.022C914.579 71.08 914.579 71.138 914.579 71.138C914.637 71.138 914.637 71.138 914.695 71.138C914.927 71.312 915.217 71.196 915.449 71.138C916.957 70.732 918.639 71.312 920.147 70.732C920.843 70.5 921.249 69.92 921.539 69.282C921.655 68.934 921.771 68.586 921.945 68.238C922.003 68.006 922.177 67.658 922.003 67.368C921.655 66.904 920.785 66.846 920.263 66.846C919.567 66.846 918.755 66.904 918.059 67.02C917.305 67.136 916.493 67.252 915.739 67.368C915.449 67.426 915.101 67.426 914.753 67.484C914.463 67.542 914.521 67.658 914.521 67.948C914.579 68.644 914.521 69.398 914.579 70.094ZM970.91 58.146C970.852 58.61 970.736 59.132 970.678 59.654C970.62 60.176 970.736 60.64 970.678 61.162C970.62 62.148 970.446 63.134 970.388 64.12C970.33 65.222 970.156 66.208 970.214 67.252C970.214 68.238 970.04 69.224 970.04 70.21C970.04 70.616 969.924 71.138 969.866 71.544C969.866 71.95 969.924 72.356 969.808 72.762C969.808 72.878 969.692 72.994 969.692 73.052C969.692 73.11 969.692 73.168 969.808 73.168C969.982 73.168 969.982 73.284 969.924 73.4C969.982 73.632 969.866 73.922 969.924 74.154C969.924 74.444 969.924 74.734 969.924 75.082C969.924 75.314 970.098 75.778 969.75 75.604C969.692 75.952 969.982 75.952 970.04 76.3C970.04 76.532 969.982 76.764 970.04 76.996C970.04 77.228 970.04 77.402 970.04 77.634C969.982 78.388 969.924 79.084 969.982 79.896C969.982 80.012 969.924 80.07 969.924 80.244C969.924 80.36 970.098 80.418 970.04 80.592C969.924 80.882 969.692 80.766 969.402 80.766C969.17 80.708 969.112 80.708 968.88 80.824C968.416 80.94 967.894 80.998 967.43 81.056C967.024 81.056 966.27 81.288 965.864 81.056C965.632 80.94 965.516 80.534 965.342 80.244C965.168 79.954 965.11 79.664 965.168 79.258C965.226 79.142 965.284 79.084 965.284 78.968C965.284 78.968 965.226 78.736 965.226 78.678C965.226 78.504 965.168 78.33 965.11 78.156C965.052 77.924 965.168 77.808 965.168 77.576C965.168 77.402 965.168 77.112 965.11 76.822C965.052 75.024 965.052 73.226 964.82 71.428C964.762 70.848 964.646 70.268 964.588 69.746C964.588 69.456 964.646 69.224 964.588 68.934C964.588 68.702 964.472 68.528 964.472 68.296C964.356 67.368 964.53 66.324 964.53 65.396C963.544 66.382 963.138 67.948 962.5 69.108C961.92 70.268 961.514 71.544 961.224 72.82C961.108 73.342 960.992 73.922 960.818 74.444C960.818 74.386 960.644 74.734 960.644 74.734C960.644 74.908 960.76 74.85 960.818 75.024C960.876 75.314 960.702 75.372 960.47 75.546C959.484 76.068 958.382 76.416 957.338 76.822C956.236 77.228 954.786 77.344 953.974 78.214C953.916 78.272 953.858 78.446 953.8 78.504C953.742 78.562 953.626 78.736 953.568 78.794C953.336 78.968 953.162 79.084 952.814 79.084C952.35 79.026 952.06 78.504 951.886 78.156C951.712 77.924 951.306 76.996 950.958 76.996C950.784 77.054 950.552 77.518 950.436 77.634C950.32 77.808 950.088 78.33 949.914 78.446C949.74 78.562 949.392 78.388 949.334 78.156C949.276 78.04 949.45 77.634 949.508 77.46C949.682 76.88 949.798 76.416 949.74 75.836C949.566 74.734 949.044 73.748 948.58 72.704C948.406 72.414 948.406 72.124 948.29 71.834C948.174 71.544 948 71.312 947.884 71.08C947.594 70.5 947.362 69.804 947.072 69.224C947.188 69.224 947.188 69.224 947.188 69.34C947.246 69.34 947.246 69.282 947.188 69.224C947.246 69.05 947.014 69.05 946.84 68.876C946.724 68.702 946.608 68.47 946.55 68.296C946.434 67.774 946.202 67.368 945.97 66.962C945.854 66.73 945.854 66.382 945.738 66.15C945.622 65.86 945.448 65.628 945.39 65.338C945.274 65.048 944.926 64.468 944.984 64.178C944.984 64.178 944.984 64.178 944.984 64.12C944.868 64.294 944.868 63.83 944.868 63.83C944.81 63.54 944.636 63.366 944.52 63.134C944.404 62.902 944.23 61.626 943.998 61.626C943.94 62.264 943.998 62.96 943.998 63.656C943.998 64.294 943.882 64.932 943.94 65.57C943.998 66.846 943.708 68.064 943.65 69.34C943.592 69.92 943.708 70.384 943.708 70.964C943.708 71.602 943.534 72.298 943.534 72.994C943.534 73.574 943.534 74.154 943.534 74.792C943.534 75.082 943.36 75.546 943.534 75.778C943.708 75.952 943.882 75.836 943.824 76.184C943.592 76.126 943.418 76.242 943.244 76.242C943.012 76.242 942.838 76.126 942.664 76.068C942.258 75.894 941.852 75.778 941.446 75.72C940.518 75.546 939.416 75.662 938.488 75.836C938.256 75.894 937.676 75.894 937.56 76.126C937.502 76.416 937.734 76.3 937.676 76.532C937.676 76.416 937.328 76.764 937.444 76.764C937.328 76.764 937.038 76.822 936.922 76.764C936.69 76.532 937.096 76.068 936.864 75.778C937.154 75.662 937.27 74.966 937.328 74.676C937.502 74.096 937.676 73.516 937.676 72.936C937.792 71.834 937.85 70.674 937.792 69.572C937.734 68.992 937.966 68.412 937.966 67.832C937.908 67.194 938.024 66.556 938.082 65.86C938.082 64.584 938.14 63.308 938.198 62.032C938.256 59.596 938.256 57.102 938.488 54.724C938.546 54.202 938.604 53.68 938.662 53.216C938.662 52.868 938.488 51.766 938.778 51.592C939.01 51.534 939.242 51.65 939.416 51.708C939.648 51.708 939.88 51.766 940.112 51.766C940.576 51.824 941.04 51.824 941.504 51.94C942.142 52.056 942.722 52.462 943.36 52.23C943.418 52.23 943.534 52.23 943.592 52.172C943.65 52.172 943.708 52.056 943.824 51.998C943.882 51.94 944.056 51.998 944.172 51.998C944.23 52.114 944.346 52.114 944.404 52.056C944.52 51.998 944.636 51.998 944.752 51.998C945.448 51.882 945.854 52.23 946.318 52.752C946.492 52.984 946.724 53.216 946.898 53.448C946.956 53.506 947.188 53.912 947.304 53.738C947.188 53.738 946.898 53.332 946.898 53.216C946.956 52.926 947.478 52.868 947.652 52.984C947.826 53.158 947.884 53.448 948 53.68C948.116 53.912 948.29 54.086 948.406 54.26C948.812 54.782 948.986 55.304 949.276 55.826C949.45 56.058 949.45 56.464 949.566 56.696C949.624 56.754 949.798 56.754 949.798 56.812C949.856 56.928 949.856 57.044 949.914 57.16C950.262 58.146 950.842 59.016 951.306 59.944C951.48 60.466 951.828 60.814 952.002 61.336C952.118 61.626 952.176 61.742 952.35 61.974C952.466 62.148 952.64 62.322 952.524 62.496C953.046 62.438 952.93 63.076 953.046 63.366C953.104 63.54 953.104 63.482 953.22 63.598C953.336 63.714 953.394 63.772 953.452 63.888C953.974 64.584 954.264 65.454 954.67 66.208C955.134 67.02 955.54 67.948 955.946 68.76C956.178 69.224 956.294 69.688 956.468 70.094C956.584 70.5 956.874 70.906 957.048 71.312C957.454 70.616 957.628 69.862 958.034 69.108L958.208 68.586C958.15 68.528 958.15 68.47 958.266 68.412C958.266 68.006 958.44 67.6 958.556 67.136C958.672 66.672 958.672 66.092 958.904 65.628C959.136 65.222 959.252 64.932 959.31 64.468C959.368 64.294 959.426 64.062 959.484 63.888C959.542 63.772 959.6 63.598 959.658 63.54C959.774 63.424 959.832 63.308 959.774 63.134C959.948 62.728 960.064 62.322 960.296 61.916C961.05 60.408 961.688 58.842 962.268 57.218C962.442 56.754 962.674 56.29 962.848 55.826C962.906 55.71 963.022 55.594 963.08 55.478C963.254 55.362 963.254 55.246 963.196 55.13C963.254 54.956 963.312 54.84 963.37 54.666C963.486 54.318 963.544 53.912 963.892 53.97C964.24 54.028 964.472 54.376 964.588 54.608C964.704 54.434 964.588 54.086 964.704 53.97C964.82 53.796 965.11 53.854 965.284 53.796C965.864 53.738 966.444 53.564 966.966 53.506C968.068 53.506 969.286 53.506 970.33 53.68C970.91 53.796 970.968 53.912 970.968 54.492C970.91 54.84 970.91 55.304 970.968 55.652C971.026 56.348 971.026 57.334 970.91 58.146ZM954.438 65.976C954.38 65.918 954.38 65.918 954.38 65.918V65.976C954.38 65.976 954.38 65.976 954.438 65.976ZM947.362 53.912C947.246 53.854 947.304 53.912 947.362 53.912V53.912ZM946.26 67.078C946.26 67.02 946.26 66.962 946.26 66.846C946.202 66.962 946.144 66.962 946.26 67.078ZM953.568 78.446H953.626C953.626 78.388 953.626 78.388 953.626 78.388L953.568 78.446ZM1008.62 65.86C1008.1 65.744 1008.04 64.932 1007.87 64.526C1007.63 63.888 1007.63 63.192 1007.52 62.496C1007.34 61.22 1007.4 60.002 1007.23 58.726C1007.17 58.088 1007.4 57.566 1007.52 56.986C1007.58 56.348 1007.58 56.232 1008.04 55.826C1008.21 55.652 1008.16 55.536 1008.5 55.478C1008.79 55.42 1009.14 55.478 1009.37 55.536C1009.9 55.594 1010.42 55.884 1011 56C1011 55.768 1011.17 55.246 1011.46 55.768C1011.52 55.942 1011.29 56.638 1011.29 56.812C1011.17 57.16 1011.06 57.508 1011 57.856C1010.71 59.016 1010.71 60.524 1010.94 61.684C1011.11 62.728 1011.75 63.656 1012.62 64.352C1012.8 64.468 1013.09 64.7 1013.32 64.7C1013.67 64.642 1013.72 64.526 1013.84 64.294C1014.01 63.83 1013.9 63.25 1013.9 62.786C1013.84 61.742 1014.3 60.756 1014.01 59.712C1013.96 59.422 1013.9 59.248 1013.9 58.9C1013.96 58.552 1014.01 58.262 1014.01 57.914C1013.96 57.45 1013.78 56.754 1013.9 56.348C1014.01 55.884 1014.65 56.116 1015.06 56.116C1015.75 56.174 1016.45 56.232 1017.15 56.174C1017.55 56.116 1018.42 55.884 1018.54 56.522C1018.54 56.754 1018.31 56.986 1018.25 57.218C1018.13 57.566 1018.25 57.624 1017.9 57.74C1018.19 58.03 1018.13 58.378 1018.19 58.784C1018.25 59.248 1018.36 59.77 1018.42 60.292C1018.48 60.756 1018.36 61.162 1018.42 61.626C1018.42 62.148 1018.48 62.728 1018.48 63.25C1018.54 64.236 1018.6 65.222 1018.71 66.208C1018.77 66.672 1018.77 66.962 1018.83 67.426C1018.83 67.658 1018.83 67.832 1018.83 68.064C1018.83 68.18 1018.89 68.354 1018.89 68.47C1018.83 68.702 1018.71 68.76 1018.65 68.992C1018.65 69.282 1018.71 69.456 1018.77 69.688C1018.83 70.152 1018.65 70.674 1018.65 71.138C1018.65 72.066 1018.83 73.052 1018.83 74.038C1018.89 74.444 1018.77 74.792 1018.77 75.198C1018.83 75.662 1018.71 76.184 1018.77 76.648C1018.89 77.75 1019 79.084 1018.77 80.128C1018.71 80.36 1018.6 80.534 1018.54 80.766C1018.54 80.998 1018.65 81.288 1018.6 81.52C1018.48 81.868 1018.19 82.042 1018.07 82.448C1018.07 82.564 1018.07 83.724 1017.55 83.376C1017.32 83.202 1017.67 82.274 1017.73 82.042C1016.86 82.042 1015.58 82.332 1014.77 81.984C1014.36 81.81 1014.13 81.462 1014.07 81.056C1014.01 80.592 1013.9 80.07 1013.9 79.606C1013.9 79.142 1013.78 78.736 1013.78 78.33C1013.72 78.04 1013.78 77.866 1013.72 77.576C1013.67 77.402 1013.61 77.286 1013.61 77.054C1013.55 75.894 1013.55 74.676 1013.61 73.516C1013.67 72.994 1013.67 72.472 1013.61 71.95C1013.61 71.428 1013.72 70.906 1013.67 70.384C1013.61 69.92 1013.67 69.456 1013.67 68.934C1013.72 68.644 1013.61 68.354 1013.67 68.064C1013.67 67.89 1013.78 67.716 1013.72 67.542C1013.67 66.904 1012.04 67.194 1011.52 67.136C1010.94 67.02 1010.3 66.846 1009.78 66.672C1009.2 66.498 1008.97 66.324 1008.62 65.86ZM1059.03 68.18C1059.09 68.702 1059.78 69.514 1060.13 69.862C1060.31 70.036 1060.48 70.152 1060.65 70.326C1060.94 70.558 1061.12 71.022 1061.29 71.37C1061.7 71.95 1062.05 72.53 1062.39 73.168C1062.74 73.806 1062.97 74.56 1063.5 75.082C1063.96 75.662 1064.54 75.952 1064.95 76.59C1065.18 76.88 1065.29 77.228 1065.47 77.576C1065.58 77.75 1066.16 78.098 1066.16 78.272C1066.16 78.794 1064.83 78.388 1064.54 78.388C1063.84 78.33 1063.09 78.33 1062.39 78.272C1060.83 78.156 1059.32 78.04 1057.75 78.04C1057.06 78.098 1056.3 78.156 1055.61 78.04C1055.26 77.982 1055.09 77.982 1054.91 77.576C1054.74 77.286 1054.62 76.938 1054.45 76.648C1053.69 75.488 1053.06 74.212 1052.36 72.994C1052.01 72.414 1051.66 71.776 1051.37 71.138C1051.26 70.79 1051.14 70.442 1050.97 70.152C1050.97 70.094 1050.79 69.688 1050.74 69.688C1050.5 69.514 1050.62 69.63 1050.39 69.63C1049.81 69.688 1049.23 69.804 1048.65 69.92C1048.07 69.978 1047.55 69.978 1046.97 70.094C1045.52 70.326 1044.12 70.21 1042.67 70.5C1042.09 70.616 1041.92 71.08 1041.69 71.602C1041.17 72.53 1040.76 73.342 1040.12 74.212C1039.14 75.604 1038.09 76.88 1037.28 78.388C1036.87 79.142 1036.41 78.91 1035.66 78.91C1034.73 78.852 1033.86 78.678 1032.99 78.62C1031.6 78.446 1030.2 78.388 1028.81 78.098C1028.7 78.098 1028.52 78.04 1028.46 78.04C1028.23 77.808 1028.46 77.866 1028.46 77.75C1028.52 77.634 1028.58 77.808 1028.64 77.518C1028.64 77.402 1028.46 77.228 1028.41 77.17C1028.06 76.474 1028 75.72 1028.12 74.966C1028.29 74.038 1028.35 73.226 1028.81 72.356C1028.99 72.066 1029.16 71.776 1029.39 71.486C1029.51 71.312 1030.26 70.732 1030.2 70.558C1030.15 70.268 1029.68 70.5 1029.51 70.5C1029.45 70.5 1029.28 70.442 1029.16 70.442C1029.04 70.384 1028.93 70.21 1028.87 70.21C1028.58 70.152 1028.35 70.326 1028.06 70.326C1027.77 70.326 1027.48 70.094 1027.19 70.21C1026.72 70.268 1026.84 70.384 1026.38 70.21C1026.09 70.094 1025.56 70.094 1025.27 69.978C1024.98 69.804 1025.1 70.094 1025.04 69.746C1024.98 69.572 1025.1 69.398 1025.16 69.282C1025.27 68.934 1025.45 68.528 1025.56 68.18C1025.62 68.064 1025.62 67.832 1025.68 67.716C1025.68 67.658 1025.85 67.658 1025.91 67.542C1026.03 67.31 1026.14 67.02 1026.26 66.788C1026.49 66.034 1026.78 65.28 1027.13 64.526C1027.42 64.062 1027.77 63.076 1028.35 62.902C1028.7 62.844 1031.83 62.902 1030.49 62.786C1030.2 62.786 1028.7 62.67 1029.28 62.264C1029.51 62.148 1030.44 62.38 1030.73 62.38C1031.71 62.496 1032.99 62.206 1033.92 61.916C1035.25 61.452 1036.64 61.046 1038.03 60.756C1038.38 60.64 1038.79 60.524 1038.96 60.176C1039.02 60.06 1038.85 60.002 1038.9 59.886C1038.96 59.828 1039.08 59.77 1039.08 59.712C1039.19 59.48 1039.48 59.074 1039.72 58.842C1040.35 57.856 1040.99 56.812 1041.8 55.942C1042.27 55.42 1042.56 54.956 1043.02 54.434C1043.43 53.97 1043.83 53.448 1044.12 52.926C1044.47 52.23 1044.99 51.592 1045.34 50.896C1045.4 50.722 1045.57 50.548 1045.69 50.374C1045.81 50.142 1045.81 49.852 1045.98 49.62C1046.15 49.388 1045.98 49.446 1046.39 49.33C1046.79 49.272 1046.73 49.446 1046.97 49.794C1048.3 51.65 1049.52 53.622 1050.85 55.536C1051.26 56.058 1051.61 56.58 1051.9 57.102C1052.19 57.566 1052.42 58.32 1052.77 58.61C1053.23 59.016 1053.87 58.784 1054.39 58.726C1055.2 58.668 1056.07 58.61 1056.88 58.552C1058.28 58.436 1059.49 58.842 1060.89 59.074C1062.16 59.306 1063.67 59.77 1065 59.654C1064.95 59.654 1065.47 59.538 1065.41 59.538C1065.58 59.654 1065.58 60.06 1065.58 60.176C1065.7 60.524 1065.76 60.814 1065.87 61.162C1066.11 61.974 1066.34 62.786 1066.45 63.598C1066.63 64.41 1066.69 65.28 1066.74 66.092C1066.8 66.44 1067.09 67.136 1066.92 67.484C1066.8 67.774 1066.34 67.658 1066.11 67.6C1065.82 67.6 1065.64 67.716 1065.41 67.774C1065.06 67.774 1064.71 67.716 1064.42 67.716C1063.79 67.774 1063.21 67.774 1062.63 67.832C1061.87 67.832 1061.18 67.948 1060.42 68.006C1060.02 68.006 1059.44 67.948 1059.03 68.18ZM1047.08 63.598C1046.33 64.642 1045.46 65.628 1044.65 66.672C1044.18 67.194 1043.78 67.774 1043.37 68.354C1043.2 68.644 1042.33 69.862 1042.44 70.21C1044.76 69.746 1047.14 69.746 1049.46 69.456C1049.69 69.398 1050.39 69.514 1050.5 69.34C1050.56 69.282 1050.27 68.76 1050.27 68.76C1049.98 68.122 1049.63 67.484 1049.29 66.904C1048.94 66.382 1048.65 65.918 1048.36 65.396C1048.01 64.816 1047.66 63.946 1047.08 63.598ZM1065.06 63.424C1065 63.772 1065 64.062 1065 64.352C1065 64.526 1064.89 65.164 1064.95 65.222C1065.24 65.512 1065.12 64.526 1065.12 64.468C1065.12 64.178 1065.24 63.714 1065.06 63.424ZM1026.84 69.688C1027.07 69.398 1026.55 69.456 1026.43 69.514C1026.49 69.746 1026.67 69.688 1026.84 69.688ZM1026.03 69.63C1025.91 69.456 1025.8 69.34 1025.68 69.224C1025.68 69.63 1025.62 69.63 1026.03 69.63ZM1028.93 76.88C1029.28 76.938 1028.99 76.59 1028.87 76.532C1028.81 76.648 1028.81 76.764 1028.93 76.88ZM1028.81 63.308C1028.52 63.076 1028.52 63.656 1028.58 63.83C1028.64 63.656 1028.7 63.482 1028.81 63.308ZM1028.93 75.546C1028.81 75.662 1028.93 75.72 1029.04 75.778C1029.04 75.72 1028.99 75.604 1028.93 75.546ZM1065.06 63.076C1065 63.018 1064.95 63.134 1065.06 63.192C1065.06 63.134 1065.06 63.076 1065.06 63.076ZM1065.12 65.512C1065.18 65.512 1064.95 65.396 1065 65.512C1065 65.57 1065.06 65.57 1065.12 65.512ZM1028.75 64.642C1028.81 64.7 1028.87 64.642 1028.87 64.468C1028.75 64.468 1028.7 64.526 1028.75 64.642ZM1028.46 64.99C1028.46 65.048 1028.41 65.048 1028.41 65.164C1028.46 65.106 1028.52 65.048 1028.46 64.99ZM1028.29 65.686C1028.35 65.686 1028.35 65.686 1028.35 65.512C1028.35 65.57 1028.29 65.628 1028.29 65.686ZM1085.8 78.504C1085.11 78.446 1084.64 78.446 1084.12 78.33C1083.77 78.272 1083.42 78.214 1083.02 78.156C1082.67 78.098 1082.26 77.982 1081.92 77.808C1081.1 77.402 1080.41 76.938 1079.71 76.416C1079.36 76.242 1079.02 75.952 1078.73 75.72C1078.44 75.43 1078.2 75.14 1077.97 74.85C1077.68 74.502 1077.51 74.038 1077.22 73.632C1077.22 73.574 1077.16 73.458 1077.16 73.458C1076.87 73.284 1076.87 72.994 1076.7 72.762C1076.46 72.414 1076.35 72.066 1076.17 71.66C1076 71.254 1075.77 70.848 1075.54 70.442C1075.48 70.326 1075.48 70.21 1075.42 70.036C1075.36 69.978 1075.3 69.862 1075.25 69.746C1075.13 69.63 1075.07 69.456 1075.01 69.224C1075.01 68.818 1074.84 68.412 1074.67 68.006C1074.55 67.832 1074.49 67.6 1074.43 67.426C1074.38 67.194 1074.26 66.904 1074.14 66.672C1074.14 66.556 1074.09 66.44 1074.09 66.324C1074.09 66.15 1074.09 65.976 1073.97 65.802C1073.8 65.454 1073.74 65.106 1073.74 64.758C1073.74 64.468 1073.68 64.178 1073.62 63.888C1073.56 63.598 1073.51 63.308 1073.56 63.018C1073.56 62.844 1073.56 62.67 1073.56 62.438C1073.51 62.206 1073.51 61.974 1073.56 61.684C1073.56 61.394 1073.62 61.046 1073.74 60.756C1073.91 60.466 1073.91 60.118 1074.09 59.828C1074.2 59.654 1074.32 59.538 1074.38 59.364C1074.49 58.9 1074.72 58.494 1074.9 58.146C1075.13 57.798 1075.25 57.392 1075.48 57.044C1075.59 56.812 1075.77 56.58 1075.94 56.348C1076.35 56.348 1076.46 55.884 1076.87 55.768C1076.87 55.768 1076.87 55.768 1076.93 55.768C1077.22 55.13 1077.86 54.898 1078.38 54.55C1078.44 54.492 1078.55 54.434 1078.61 54.376C1078.78 54.202 1078.9 54.086 1079.13 54.086C1079.31 54.086 1079.42 53.97 1079.54 53.854C1079.71 53.738 1079.89 53.622 1080.06 53.506C1080.35 53.332 1080.7 53.216 1080.99 53.042C1081.16 52.984 1081.39 52.926 1081.57 52.868C1081.63 52.868 1081.68 52.868 1081.74 52.81C1081.97 52.578 1082.21 52.578 1082.5 52.462C1082.96 52.346 1083.42 52.172 1083.89 52.056C1084.53 51.94 1085.16 51.824 1085.8 51.708C1086.21 51.65 1086.67 51.592 1087.08 51.534C1087.25 51.476 1087.43 51.476 1087.54 51.476C1088.01 51.476 1088.47 51.534 1088.93 51.534H1088.99C1089.34 51.708 1089.69 51.592 1090.04 51.592C1090.33 51.65 1090.44 51.476 1090.44 51.244C1090.38 50.838 1090.33 50.432 1090.27 50.026C1090.21 49.736 1090.21 49.446 1090.21 49.098C1090.15 48.924 1090.38 48.866 1090.56 48.924C1090.73 48.982 1090.79 49.156 1090.85 49.33C1090.85 49.678 1090.85 50.026 1090.91 50.374C1090.91 50.722 1091.02 51.012 1091.08 51.36C1091.08 51.708 1091.14 52.056 1091.14 52.346C1091.25 53.1 1091.31 53.796 1091.43 54.55C1091.49 55.246 1091.54 56 1091.6 56.754C1091.66 57.044 1091.72 57.392 1091.72 57.682C1091.72 57.798 1091.72 57.856 1091.72 57.972C1091.72 58.204 1091.6 58.262 1091.37 58.262C1091.14 58.204 1090.91 58.146 1090.67 58.146C1090.15 58.146 1089.69 58.03 1089.22 58.262C1089.11 58.262 1089.05 58.262 1088.93 58.262C1088.01 58.204 1087.08 58.32 1086.21 58.436C1086.15 58.436 1086.09 58.436 1086.09 58.436C1085.51 58.32 1084.99 58.552 1084.53 58.842C1084.35 58.958 1084.24 59.016 1084.06 59.132C1083.54 59.422 1083.13 59.828 1082.67 60.176C1082.44 60.408 1082.32 60.64 1082.15 60.872C1082.09 60.93 1082.03 61.046 1081.92 61.104C1081.39 61.452 1081.28 62.032 1081.16 62.612C1081.16 62.902 1081.16 63.192 1081.16 63.482C1081.1 64.062 1081.34 64.584 1081.57 65.106C1081.68 65.338 1081.8 65.57 1081.92 65.802C1082.32 66.672 1082.9 67.426 1083.71 67.948C1084 68.122 1084.29 68.354 1084.64 68.47C1085.11 68.586 1085.57 68.644 1085.98 68.76C1086.73 68.934 1087.48 68.876 1088.24 68.934C1088.88 68.934 1089.46 68.992 1090.09 69.05C1090.38 69.05 1090.73 69.05 1091.08 69.05C1091.31 69.05 1091.37 69.108 1091.37 69.34C1091.37 69.398 1091.37 69.456 1091.37 69.514C1091.25 70.384 1091.31 71.312 1091.14 72.182C1091.08 72.414 1091.02 72.704 1091.08 72.994C1091.14 73.458 1091.02 73.922 1090.96 74.444C1090.96 74.966 1090.96 75.488 1090.96 76.068C1090.96 76.242 1091.02 76.474 1090.96 76.706C1090.96 76.764 1090.91 76.88 1090.85 76.88C1090.62 76.996 1090.44 76.996 1090.21 77.112C1089.69 77.286 1089.17 77.46 1088.7 77.75L1088.64 77.808C1088.24 77.866 1087.95 78.04 1087.6 78.156C1087.37 78.214 1087.19 78.33 1086.96 78.33C1086.56 78.388 1086.09 78.446 1085.8 78.504ZM1090.85 53.216C1090.85 53.216 1090.85 53.216 1090.91 53.274V53.216H1090.85ZM1091.02 54.84L1091.08 54.782H1091.02V54.84ZM1124.44 60.176C1124.5 60.756 1124.39 61.336 1124.39 61.916C1124.33 62.438 1124.21 62.96 1124.21 63.482C1124.21 64.12 1124.15 64.816 1124.04 65.454C1123.98 65.976 1123.86 66.556 1123.69 67.02C1123.52 67.6 1123.46 68.122 1123.4 68.76C1123.28 69.862 1122.99 70.964 1122.88 72.066C1122.7 73.284 1122.53 74.502 1122.12 75.604C1121.78 76.648 1121.14 77.518 1120.67 78.504C1120.21 79.548 1119.98 80.65 1118.82 81.114C1118.3 81.346 1117.72 81.404 1117.19 81.462C1116.61 81.578 1115.98 81.636 1115.4 81.694C1114.24 81.81 1113.02 82.274 1111.8 82.216C1110.64 82.216 1109.48 82.274 1108.32 82.274C1106.99 82.216 1105.59 81.578 1104.67 80.592C1104.2 80.012 1103.68 79.49 1103.16 78.91C1102.69 78.33 1102.4 77.808 1102.06 77.112C1101.94 76.88 1101.71 76.706 1101.59 76.416C1101.48 76.126 1101.42 75.836 1101.3 75.488C1101.01 74.908 1100.84 74.27 1100.55 73.632C1100.61 73.168 1100.43 72.704 1100.43 72.182C1100.49 71.776 1100.37 71.37 1100.37 70.964C1100.37 70.674 1100.43 70.442 1100.43 70.21C1100.43 69.92 1100.32 69.63 1100.32 69.34C1100.32 69.108 1100.43 68.934 1100.37 68.76C1100.37 68.47 1100.2 68.238 1100.14 68.006C1100.03 67.542 1100.37 67.252 1100.43 66.788C1100.49 66.324 1100.49 65.86 1100.61 65.338C1100.66 64.816 1100.61 64.294 1100.66 63.83C1100.66 63.366 1100.9 62.902 1101.01 62.438C1101.07 61.974 1101.07 61.51 1101.19 61.046C1101.24 60.524 1101.36 60.234 1101.53 59.77C1101.77 59.306 1101.82 58.842 1102 58.436C1102.06 58.204 1102.29 58.03 1102.4 57.798C1102.52 57.624 1102.52 57.45 1102.64 57.276C1102.98 56.406 1103.56 55.71 1104.03 54.898C1104.14 54.666 1104.26 54.434 1104.38 54.26C1104.43 54.144 1104.55 54.086 1104.61 53.97C1104.84 53.68 1104.96 52.926 1105.42 53.216C1105.54 53.042 1105.48 52.926 1105.65 52.752C1105.83 52.578 1106.17 52.404 1106.41 52.23C1106.81 51.882 1107.22 51.476 1107.68 51.128C1108.09 50.78 1108.38 50.316 1108.9 50.142C1109.48 49.91 1109.83 49.794 1110.35 50.026C1110.87 50.316 1111.45 49.852 1111.97 49.678C1112.67 49.388 1113.19 49.33 1113.89 49.446C1114.53 49.504 1115.05 49.678 1115.63 49.91C1116.09 50.142 1116.61 50.258 1117.08 50.49C1117.6 50.664 1118.06 51.012 1118.53 51.36C1118.99 51.65 1119.63 51.998 1120.09 52.346C1120.5 52.694 1120.96 53.1 1121.25 53.506C1121.66 54.028 1121.95 54.55 1122.41 55.014C1123.4 55.884 1123.75 57.044 1124.04 58.262C1124.21 58.9 1124.39 59.538 1124.44 60.176ZM1119.8 64.816C1119.86 63.946 1120.04 63.018 1120.04 62.09C1120.04 61.22 1119.8 60.118 1119.51 59.306C1119.22 58.436 1118.7 58.03 1117.95 57.682C1117.48 57.45 1117.08 57.276 1116.61 57.218C1116.15 57.102 1115.63 57.218 1115.16 57.044C1114.76 56.928 1114.41 56.58 1114 56.406C1113.6 56.232 1113.19 56.116 1112.73 56C1111.8 55.768 1110.76 55.478 1109.77 55.536C1109.02 55.594 1107.97 56 1107.86 56.87C1107.51 57.276 1107.22 57.508 1107.22 58.088C1107.22 58.61 1107.04 58.958 1106.87 59.422C1106.7 59.944 1106.58 60.466 1106.41 60.988C1106.29 61.452 1106 61.916 1105.88 62.438C1105.71 62.902 1105.59 63.366 1105.48 63.83C1105.3 64.352 1105.42 64.758 1105.48 65.28C1105.48 65.57 1105.42 65.802 1105.48 66.034C1105.48 66.266 1105.59 66.498 1105.65 66.672C1105.77 67.194 1105.77 67.658 1106.06 68.122C1106.29 68.47 1106.41 68.818 1106.64 69.224C1106.75 69.514 1107.04 69.804 1107.22 70.094C1107.39 70.326 1107.68 70.558 1107.86 70.79C1108.15 71.08 1108.38 71.312 1108.61 71.66C1108.78 72.066 1109.02 72.124 1109.42 72.356C1109.83 72.588 1110.12 72.936 1110.58 73.168C1111.34 73.516 1112.15 73.748 1112.96 73.748C1114.53 73.806 1116.67 73.516 1117.77 72.24C1118.88 70.848 1119.11 68.992 1119.51 67.31C1119.63 66.556 1119.75 65.628 1119.8 64.816ZM1148.03 56.87C1148.03 57.392 1147.98 57.914 1147.92 58.436C1147.86 58.726 1147.86 59.016 1147.8 59.248C1147.8 59.538 1147.63 59.77 1147.57 60.002C1147.51 60.176 1147.34 60.35 1147.22 60.582C1147.11 60.756 1147.11 60.93 1146.99 61.104C1146.93 61.278 1146.82 61.336 1146.76 61.51C1146.64 61.8 1146.53 61.916 1146.35 62.09C1145.37 62.902 1144.44 63.54 1143.28 64.062C1142.7 64.294 1142 64.468 1141.42 64.642C1140.84 64.758 1140.15 64.816 1139.68 65.164C1139.8 65.28 1139.91 65.222 1140.03 65.28C1140.26 65.338 1140.44 65.396 1140.61 65.454C1140.96 65.57 1141.31 65.628 1141.65 65.802C1142.06 66.034 1142.41 66.208 1142.76 66.44C1143.05 66.672 1143.34 66.73 1143.57 66.962C1144.15 67.542 1144.67 68.006 1145.13 68.702C1145.48 69.282 1145.66 69.92 1145.83 70.558C1145.95 70.906 1145.95 71.312 1145.95 71.718C1145.95 72.124 1145.83 72.53 1145.83 72.936C1145.83 73.284 1145.89 73.574 1145.71 73.922C1145.54 74.212 1145.48 74.502 1145.31 74.792C1144.96 75.372 1144.61 76.126 1143.92 76.416C1143.22 76.648 1142.52 76.996 1141.77 77.112C1140.96 77.228 1140.09 77.228 1139.28 77.344C1138.35 77.518 1137.42 77.75 1136.55 77.924C1136.55 78.098 1136.67 78.098 1136.55 78.214C1136.49 78.272 1136.43 78.33 1136.38 78.33C1136.14 78.388 1135.91 78.446 1135.74 78.446C1135.51 78.504 1135.33 78.504 1135.1 78.562C1134.93 78.62 1134.64 78.562 1134.58 78.678C1134.46 78.852 1134.58 79.084 1134.58 79.2C1134.58 79.316 1134.64 79.316 1134.52 79.374C1134.52 79.374 1134.35 79.374 1134.29 79.374C1134.06 79.258 1134.06 78.91 1134 78.678C1133.71 78.852 1133.42 78.852 1133.13 78.794C1133.24 78.272 1133.53 78.62 1133.88 78.504C1134.06 78.446 1134 78.272 1134 78.098C1133.94 77.866 1133.88 77.692 1133.88 77.46C1133.71 76.648 1133.53 75.836 1133.48 75.024C1133.36 74.212 1133.19 73.458 1133.19 72.646C1133.24 71.776 1133.3 70.964 1133.24 70.094C1133.24 69.224 1133.24 68.296 1133.24 67.426C1133.24 67.02 1133.19 66.672 1133.19 66.266C1133.13 66.034 1133.13 65.802 1133.13 65.57C1133.13 65.338 1133.07 65.338 1133.01 65.164C1132.95 64.874 1133.01 64.468 1133.01 64.236C1133.07 64.062 1132.95 64.004 1132.95 63.83C1132.9 63.656 1132.9 63.482 1132.9 63.308C1132.78 62.902 1132.84 62.612 1132.78 62.206C1132.72 61.742 1132.61 61.394 1132.61 60.872C1132.66 60.466 1132.61 60.06 1132.55 59.654C1132.49 59.19 1132.55 58.784 1132.37 58.32C1132.2 57.972 1132.2 57.508 1132.14 57.102C1132.08 56.87 1132.03 56.638 1132.03 56.406C1132.03 56.232 1132.14 56.116 1131.91 56C1132.2 55.768 1132.03 55.246 1131.97 54.898C1131.97 54.492 1132.08 54.086 1132.08 53.68C1132.03 53.274 1131.85 52.868 1131.91 52.462C1131.91 52.23 1131.97 52.172 1131.97 51.94C1131.91 51.766 1131.91 51.592 1131.97 51.418C1132.03 50.49 1131.97 49.62 1131.97 48.75C1131.91 48.344 1131.85 47.938 1131.91 47.474C1131.91 47.416 1131.91 47.3 1131.91 47.242C1131.91 47.184 1131.97 47.068 1131.97 46.952C1131.97 46.778 1131.79 46.662 1131.91 46.488C1132.66 46.778 1133.59 46.952 1134.35 47.3C1134.75 47.416 1135.16 47.59 1135.51 47.764C1135.74 47.938 1135.68 48.228 1135.68 48.518C1135.91 48.112 1136.49 47.996 1136.84 47.88C1137.42 47.648 1138.06 47.648 1138.58 47.648C1139.22 47.648 1139.74 47.706 1140.32 47.822C1140.9 47.88 1141.42 47.996 1142 48.17C1142.23 48.228 1142.41 48.344 1142.64 48.46C1142.87 48.518 1143.05 48.576 1143.28 48.692C1143.39 48.808 1143.51 48.924 1143.63 48.982C1143.8 49.156 1143.92 49.33 1144.03 49.446C1144.32 49.736 1144.73 50.026 1145.02 50.316C1145.48 50.78 1145.83 51.186 1146.24 51.65C1146.47 51.882 1146.7 52.172 1146.82 52.462C1146.93 52.694 1147.11 52.81 1147.22 52.984C1147.4 53.216 1147.51 53.506 1147.63 53.738C1147.8 54.202 1147.98 54.608 1148.03 55.072C1148.03 55.652 1147.98 56.29 1148.03 56.87ZM1135.33 54.26C1135.33 54.608 1135.27 54.956 1135.33 55.362C1135.33 55.768 1135.33 56.174 1135.33 56.522C1135.33 57.682 1135.45 58.842 1135.51 60.002C1135.85 59.944 1136.67 59.944 1136.78 59.886C1136.78 60.118 1136.72 60.234 1136.9 60.292C1137.01 60.35 1137.19 60.35 1137.3 60.35C1137.48 60.35 1137.65 60.408 1137.83 60.408C1138.17 60.408 1138.52 60.408 1138.87 60.35C1139.1 60.292 1139.33 60.118 1139.57 60.06C1140.15 59.944 1140.96 59.77 1141.31 59.248C1141.48 58.958 1141.71 58.668 1141.83 58.378C1141.94 58.088 1141.94 57.74 1141.94 57.392C1141.94 57.102 1141.89 56.812 1141.89 56.522C1141.83 56.174 1141.71 55.942 1141.48 55.71C1141.07 55.188 1140.61 54.84 1140.09 54.434C1139.45 53.912 1138.99 53.448 1138.23 53.274C1137.54 53.1 1136.84 52.926 1136.14 52.81C1135.97 52.81 1135.68 52.752 1135.56 52.81C1135.39 52.81 1135.45 52.926 1135.39 53.1C1135.39 53.448 1135.39 53.854 1135.33 54.26ZM1136.32 72.356C1136.38 72.53 1136.38 72.704 1136.38 72.936C1136.38 73.11 1136.32 73.284 1136.55 73.284C1136.72 73.284 1136.9 73.168 1137.01 73.168C1137.19 73.168 1137.36 73.168 1137.54 73.168C1137.88 73.11 1138.17 73.11 1138.52 73.168C1138.87 73.168 1139.28 73.168 1139.62 73.11C1139.91 73.11 1140.26 72.878 1140.49 72.762C1141.02 72.472 1141.54 72.008 1141.83 71.544C1142 71.196 1142 71.022 1142 70.616C1141.94 70.326 1142 69.978 1141.94 69.63C1141.94 69.398 1141.71 69.108 1141.48 68.934C1141.25 68.76 1140.84 68.702 1140.55 68.644C1139.1 68.412 1137.59 68.412 1136.14 68.296C1136.26 68.934 1136.26 69.63 1136.2 70.268C1136.2 70.616 1136.55 71.486 1136.14 71.718C1136.49 71.834 1136.32 72.124 1136.32 72.356Z" fill="white"/>
</g>
<defs>
<clipPath id="clip0_601_34">
<rect width="1201" height="789" fill="white"/>
</clipPath>
</defs>
</svg>
