<svg width="9261" height="2609" viewBox="0 0 9261 2609" fill="none" xmlns="http://www.w3.org/2000/svg">
<path fill-rule="evenodd" clip-rule="evenodd" d="M8269.51 409.633L8063.79 0.385742L7987.58 452.04L7844.75 1298.4L7767.09 1758.61L8062.91 1808.53L8114.39 1503.48L8529.1 1594.05L8992.48 2515.89L9260.52 2381.16L8765.01 1395.4L8269.51 409.633ZM8355.71 1249.11L8164.36 1207.32L8207.18 953.614L8355.71 1249.11ZM6412.22 362.982L5925.75 664.544L5767.69 409.562L6254.15 108L6412.22 362.982ZM5289 1840.71V401.146H5589V1383.04L5942.22 902.067L6161.28 603.773L6211.72 970.411L6341.8 1915.93L6044.6 1956.81L5964.96 1377.93L5559.9 1929.5L5289 2298.38V1840.71ZM3876.66 499.435L3085 721.306V833.183C3219.67 816.106 3371.41 813.336 3510.63 838.786C3615.83 858.017 3724.87 895.336 3813.53 965.03C3906.25 1037.91 3970.6 1141.9 3985.29 1276.02C4002.74 1435.33 3980.56 1574.88 3914.69 1689.49C3848.37 1804.89 3746.7 1879.44 3634.02 1924.07C3416.99 2010.06 3141.41 1992.8 2904.94 1944.44L2785 1919.91V1797.48V1013.54V607.565V493.825L2894.52 463.13L3795.71 210.565L3876.66 499.435ZM3085 1671.04V1136.1C3203.65 1117.72 3340.49 1112.65 3456.69 1133.9C3534.03 1148.03 3591.2 1171.85 3628.13 1200.88C3661.01 1226.73 3681.64 1259.07 3687.08 1308.68C3699.53 1422.41 3680.94 1494.16 3654.59 1540.01C3628.69 1585.07 3586.71 1620.13 3523.53 1645.16C3413.83 1688.62 3257.51 1694.54 3085 1671.04ZM454.652 385.223C613.145 317.597 808.544 286.021 953.47 316.868L1072.24 342.148V463.581V2155.47H772.243V1367.32L215.591 1940.34L0.408203 1731.31L464.789 1253.27C425.761 1239.27 386.929 1222.71 350.068 1203.14C220.91 1134.56 76.9775 1004.52 96.8906 790.659C116.673 578.194 303.741 449.615 454.652 385.223ZM772.243 1020.24V608.463C711.148 615.266 640.153 632.241 572.387 661.155C444.115 715.887 399.148 780.353 395.599 818.471C392.18 855.187 407.272 893.846 490.754 938.171C572.736 981.7 683.143 1007.15 772.243 1020.24ZM1946.62 1362.52L1585.77 688.636L1850.23 547.016L2111.06 1034.09L2408.45 453.083L2408.67 452.655L2675.93 588.917L2675.72 589.345L1879.74 2156.81L1612.25 2020.97L1946.62 1362.52ZM4084 1718.56V279H4384V1260.9L4737.22 779.921L4956.28 481.628L5006.72 848.265L5136.8 1793.78L4839.6 1834.67L4759.96 1255.79L4354.9 1807.35L4084 2176.23V1718.56ZM7278.89 1876.89L7381.55 434.352L7680.79 455.648L7579.65 1876.89H7763.91H7995.22L7900.86 2088.08L7668.12 2608.96L7394.22 2486.58L7532.59 2176.89H7418.6H6715.73H6591.31L6568.32 2054.61L6307.58 668.125L6602.42 612.681L6840.15 1876.89H7278.89Z" fill="#E61EAA"/>
</svg>
