<svg width="314" height="314" viewBox="0 0 314 314" fill="none" xmlns="http://www.w3.org/2000/svg">
<circle cx="157.256" cy="157.35" r="110.688" transform="rotate(3.92892 157.256 157.35)" fill="#7036CC"/>
<rect x="70.752" y="193.895" width="30.7467" height="53.985" transform="rotate(56.5315 70.752 193.895)" fill="#7036CC"/>
<rect width="30.7467" height="53.985" transform="matrix(-0.660347 0.75096 0.75096 0.660347 238.027 205.383)" fill="#7036CC"/>
<rect x="268.978" y="54.0737" width="30.7467" height="53.985" transform="rotate(56.5315 268.978 54.0737)" fill="#7036CC"/>
<rect width="30.7467" height="53.985" transform="matrix(-0.660347 0.75096 0.75096 0.660347 60.7773 39.7739)" fill="#7036CC"/>
<rect width="30.7467" height="53.985" transform="matrix(-0.99765 -0.068519 -0.068519 0.99765 179.639 10.9551)" fill="#7036CC"/>
<rect width="30.7467" height="53.985" transform="matrix(-0.99765 -0.068519 -0.068519 0.99765 163.208 250.215)" fill="#7036CC"/>
<rect width="30.7467" height="53.985" transform="matrix(0.0685189 -0.99765 -0.99765 -0.0685189 302.295 179.639)" fill="#7036CC"/>
<rect width="30.7467" height="53.985" transform="matrix(0.0685189 -0.99765 -0.99765 -0.0685189 63.0352 163.207)" fill="#7036CC"/>
<circle cx="160.116" cy="160.627" r="21.5227" transform="rotate(3.92892 160.116 160.627)" fill="#FEDA00"/>
</svg>
