<svg width="523" height="529" viewBox="0 0 523 529" fill="none" xmlns="http://www.w3.org/2000/svg">
<circle cx="261.347" cy="261.347" r="218.301" fill="#1EE7D2"/>
<rect x="239.823" width="36.896" height="61.4934" fill="#1EE7D2"/>
<rect x="317.003" y="6.14941" width="36.896" height="61.4934" transform="rotate(14.7782 317.003 6.14941)" fill="#1EE7D2"/>
<rect width="36.896" height="61.4934" transform="matrix(-0.96692 0.255078 0.255078 0.96692 202.447 0)" fill="#1EE7D2"/>
<rect x="175.568" y="448.902" width="36.896" height="61.4934" transform="rotate(14.7782 175.568 448.902)" fill="#1EE7D2"/>
<rect width="36.896" height="61.4934" transform="matrix(-0.96692 0.255078 0.255078 0.96692 343.145 455.051)" fill="#1EE7D2"/>
<rect x="61.4932" y="245.974" width="36.896" height="61.4934" transform="rotate(90 61.4932 245.974)" fill="#1EE7D2"/>
<rect x="522.693" y="245.974" width="36.896" height="61.4934" transform="rotate(90 522.693 245.974)" fill="#1EE7D2"/>
<rect x="501.291" y="167.422" width="36.896" height="61.4934" transform="rotate(70.9985 501.291 167.422)" fill="#1EE7D2"/>
<rect width="36.896" height="61.4934" transform="matrix(-0.325593 0.94551 0.94551 0.325593 18.1592 161.273)" fill="#1EE7D2"/>
<rect x="64.291" y="301.317" width="36.896" height="61.4934" transform="rotate(70.9985 64.291 301.317)" fill="#1EE7D2"/>
<rect width="36.896" height="61.4934" transform="matrix(-0.325593 0.94551 0.94551 0.325593 454.42 307.467)" fill="#1EE7D2"/>
<rect x="86" y="362.811" width="36.896" height="61.4934" transform="rotate(52.9874 86 362.811)" fill="#1EE7D2"/>
<rect width="36.896" height="61.4934" transform="matrix(-0.601991 0.798503 0.798503 0.601991 432.711 368.96)" fill="#1EE7D2"/>
<rect x="461.11" y="98.3894" width="36.896" height="61.4934" transform="rotate(52.9874 461.11 98.3894)" fill="#1EE7D2"/>
<rect width="36.896" height="61.4934" transform="matrix(-0.601991 0.798503 0.798503 0.601991 58.3408 92.24)" fill="#1EE7D2"/>
<rect x="402.56" y="36.8962" width="36.896" height="61.4934" transform="rotate(40.2693 402.56 36.8962)" fill="#1EE7D2"/>
<rect width="36.896" height="61.4934" transform="matrix(-0.763015 0.646381 0.646381 0.763015 116.892 30.7466)" fill="#1EE7D2"/>
<rect x="125.839" y="412.006" width="36.896" height="61.4934" transform="rotate(40.2693 125.839 412.006)" fill="#1EE7D2"/>
<rect width="36.896" height="61.4934" transform="matrix(-0.763015 0.646381 0.646381 0.763015 392.872 418.155)" fill="#1EE7D2"/>
<rect x="239.823" y="467.35" width="36.896" height="61.4934" fill="#1EE7D2"/>
<circle cx="260.896" cy="263.896" r="36.896" fill="#7036CC"/>
</svg>
