<svg width="570" height="325" viewBox="0 0 570 325" fill="none" xmlns="http://www.w3.org/2000/svg">
<path d="M101.998 54.9863C116.622 43.5468 177.151 19.1424 302.278 13.0413C458.687 5.41488 565.503 11.1347 559.781 41.6402C554.058 72.1457 519.725 95.024 493.021 91.2108C471.658 88.1603 386.205 89.9398 346.149 91.2108C337.248 97.5661 324.786 112.946 346.149 123.623C372.853 136.969 412.909 159.848 393.835 178.914C378.575 194.167 396.378 204.335 407.187 207.513C412.273 220.859 416.724 247.551 393.835 247.551C393.194 247.551 392.581 247.542 391.994 247.524C396.728 251.409 402.27 258.418 407.187 270.431C424.353 312.376 369.038 318.095 346.149 308.562C323.26 299.03 269.852 335.255 185.925 297.123C118.784 266.617 91.8255 224.672 86.7391 207.513C52.4054 222.13 -9.77669 236.875 16.1643 178.914C42.1053 120.954 84.1958 72.1454 101.998 54.9863Z" fill="white"/>
<path d="M101.998 54.9863C116.622 43.5468 177.151 19.1424 302.278 13.0413C458.687 5.41488 565.503 11.1347 559.781 41.6402C554.058 72.1457 519.725 95.024 493.021 91.2108C471.658 88.1603 386.205 89.9398 346.149 91.2108C337.248 97.5661 324.786 112.946 346.149 123.623C372.853 136.969 412.909 159.848 393.835 178.914C378.575 194.167 396.378 204.335 407.187 207.513C412.273 220.859 416.724 247.551 393.835 247.551C365.223 247.551 390.02 228.486 407.187 270.431C424.353 312.376 369.038 318.095 346.149 308.562C323.26 299.03 269.852 335.255 185.925 297.123C118.784 266.617 91.8255 224.672 86.7391 207.513C52.4054 222.13 -9.77669 236.875 16.1643 178.914C42.1053 120.954 84.1958 72.1454 101.998 54.9863Z" stroke="black" stroke-width="20"/>
</svg>
