<svg width="788" height="1592" viewBox="0 0 788 1592" fill="none" xmlns="http://www.w3.org/2000/svg">
<rect x="787.266" y="1592" width="786.443" height="1592" transform="rotate(-180 787.266 1592)" fill="#1EE7D2"/>
<path d="M313.488 1326.6C313.488 1298.99 335.874 1276.6 363.488 1276.6H424.6C452.214 1276.6 474.6 1298.99 474.6 1326.6V1592H313.488V1326.6Z" fill="white"/>
<rect x="389.947" y="397.317" width="8.19211" height="228.014" fill="#1EE6D2"/>
<rect x="467.773" y="548.871" width="9.55747" height="150.189" transform="rotate(90 467.773 548.871)" fill="#1EE6D2"/>
<rect x="469.139" y="475.142" width="9.55747" height="150.189" transform="rotate(90 469.139 475.142)" fill="#1EE6D2"/>
<rect x="646.633" y="1292.99" width="8.19211" height="228.014" fill="#1EE6D2"/>
<rect x="724.459" y="1444.54" width="9.55747" height="150.189" transform="rotate(90 724.459 1444.54)" fill="#1EE6D2"/>
<rect x="725.824" y="1370.81" width="9.55747" height="150.189" transform="rotate(90 725.824 1370.81)" fill="#1EE6D2"/>
<rect x="137.357" y="991.245" width="8.19211" height="228.014" fill="#1EE6D2"/>
<rect x="215.184" y="1142.8" width="9.55747" height="150.189" transform="rotate(90 215.184 1142.8)" fill="#1EE6D2"/>
<rect x="216.549" y="1069.07" width="9.55747" height="150.189" transform="rotate(90 216.549 1069.07)" fill="#1EE6D2"/>
<rect x="56.8027" y="92.844" width="196.197" height="244.899" fill="white"/>
<rect x="56.8027" y="377.743" width="196.197" height="244.899" fill="white"/>
<rect x="150.068" y="386.441" width="9.92833" height="232.375" fill="#1EE6D2"/>
<rect x="244.387" y="540.894" width="9.7403" height="182.019" transform="rotate(90 244.387 540.894)" fill="#1EE6D2"/>
<rect x="246.041" y="465.755" width="9.7403" height="182.019" transform="rotate(90 246.041 465.755)" fill="#1EE6D2"/>
<rect x="56.8027" y="662.641" width="196.197" height="244.899" fill="white"/>
<rect x="150.068" y="671.339" width="9.92833" height="232.375" fill="#1EE6D2"/>
<rect x="244.387" y="825.792" width="9.7403" height="182.019" transform="rotate(90 244.387 825.792)" fill="#1EE6D2"/>
<rect x="246.041" y="750.653" width="9.7403" height="182.019" transform="rotate(90 246.041 750.653)" fill="#1EE6D2"/>
<rect x="56.8027" y="947.54" width="196.197" height="244.899" fill="white"/>
<rect x="150.068" y="956.238" width="9.92833" height="232.375" fill="#1EE6D2"/>
<rect x="244.387" y="1110.69" width="9.7403" height="182.019" transform="rotate(90 244.387 1110.69)" fill="#1EE6D2"/>
<rect x="246.041" y="1035.55" width="9.7403" height="182.019" transform="rotate(90 246.041 1035.55)" fill="#1EE6D2"/>
<rect x="56.8027" y="1232.44" width="196.197" height="244.899" fill="white"/>
<rect x="150.068" y="1241.14" width="9.92833" height="232.375" fill="#1EE6D2"/>
<rect x="244.387" y="1395.59" width="9.7403" height="182.019" transform="rotate(90 244.387 1395.59)" fill="#1EE6D2"/>
<rect x="246.041" y="1320.45" width="9.7403" height="182.019" transform="rotate(90 246.041 1320.45)" fill="#1EE6D2"/>
<rect x="534.676" y="93.1867" width="196.324" height="245.057" fill="white"/>
<rect x="628.002" y="101.89" width="9.93475" height="232.526" fill="#1EE6D2"/>
<rect x="722.381" y="256.443" width="9.7466" height="182.137" transform="rotate(90 722.381 256.443)" fill="#1EE6D2"/>
<rect x="724.037" y="181.255" width="9.7466" height="182.137" transform="rotate(90 724.037 181.255)" fill="#1EE6D2"/>
<rect x="534.676" y="378.244" width="196.324" height="245.057" fill="white"/>
<rect x="628.002" y="386.948" width="9.93475" height="232.526" fill="#1EE6D2"/>
<rect x="722.381" y="541.501" width="9.7466" height="182.137" transform="rotate(90 722.381 541.501)" fill="#1EE6D2"/>
<rect x="724.037" y="466.313" width="9.7466" height="182.137" transform="rotate(90 724.037 466.313)" fill="#1EE6D2"/>
<rect x="534.676" y="663.301" width="196.324" height="245.057" fill="white"/>
<rect x="628.002" y="672.005" width="9.93475" height="232.526" fill="#1EE6D2"/>
<rect x="722.381" y="826.558" width="9.7466" height="182.137" transform="rotate(90 722.381 826.558)" fill="#1EE6D2"/>
<rect x="724.037" y="751.37" width="9.7466" height="182.137" transform="rotate(90 724.037 751.37)" fill="#1EE6D2"/>
<rect x="534.676" y="948.358" width="196.324" height="245.057" fill="white"/>
<rect x="628.002" y="957.062" width="9.93475" height="232.526" fill="#1EE6D2"/>
<rect x="722.381" y="1111.62" width="9.7466" height="182.137" transform="rotate(90 722.381 1111.62)" fill="#1EE6D2"/>
<rect x="724.037" y="1036.43" width="9.7466" height="182.137" transform="rotate(90 724.037 1036.43)" fill="#1EE6D2"/>
<rect x="534.676" y="1233.42" width="196.324" height="245.057" fill="white"/>
<rect x="628.002" y="1242.12" width="9.93475" height="232.526" fill="#1EE6D2"/>
<rect x="722.381" y="1396.67" width="9.7466" height="182.137" transform="rotate(90 722.381 1396.67)" fill="#1EE6D2"/>
<rect x="724.037" y="1321.48" width="9.7466" height="182.137" transform="rotate(90 724.037 1321.48)" fill="#1EE6D2"/>
<rect x="295.738" y="93.1867" width="196.262" height="244.979" fill="white"/>
<rect x="295.738" y="378.166" width="196.262" height="244.979" fill="white"/>
<rect x="389.035" y="386.867" width="9.93159" height="232.452" fill="#1EE6D2"/>
<rect x="483.383" y="541.371" width="9.7435" height="182.079" transform="rotate(90 483.383 541.371)" fill="#1EE6D2"/>
<rect x="485.039" y="466.207" width="9.7435" height="182.079" transform="rotate(90 485.039 466.207)" fill="#1EE6D2"/>
<rect x="295.738" y="663.145" width="196.262" height="244.979" fill="white"/>
<rect x="389.035" y="671.846" width="9.93159" height="232.452" fill="#1EE6D2"/>
<rect x="483.383" y="826.35" width="9.7435" height="182.079" transform="rotate(90 483.383 826.35)" fill="#1EE6D2"/>
<rect x="485.039" y="751.186" width="9.7435" height="182.079" transform="rotate(90 485.039 751.186)" fill="#1EE6D2"/>
<rect x="295.738" y="948.124" width="196.262" height="244.979" fill="white"/>
<rect x="389.035" y="956.825" width="9.93159" height="232.452" fill="#1EE6D2"/>
<rect x="483.383" y="1111.33" width="9.7435" height="182.079" transform="rotate(90 483.383 1111.33)" fill="#1EE6D2"/>
<rect x="485.039" y="1036.17" width="9.7435" height="182.079" transform="rotate(90 485.039 1036.17)" fill="#1EE6D2"/>
</svg>
