<svg width="394" height="787" viewBox="0 0 394 787" fill="none" xmlns="http://www.w3.org/2000/svg">
<rect x="0.77832" y="0.557495" width="393.221" height="786.443" fill="#FEDA00"/>
<rect x="137.313" y="583.563" width="121.516" height="203.437" fill="#7036CC"/>
<rect x="44.4697" y="26.4991" width="139.266" height="151.554" fill="black"/>
<rect x="44.4697" y="203.995" width="139.266" height="151.554" fill="#7036CC"/>
<rect x="44.4697" y="381.491" width="139.266" height="151.554" fill="#7036CC"/>
<rect x="212.408" y="26.4991" width="139.266" height="151.554" fill="#7036CC"/>
<rect x="212.408" y="203.995" width="139.266" height="151.554" fill="#7036CC"/>
<rect x="212.408" y="381.491" width="139.266" height="151.554" fill="#7036CC"/>
<rect x="276.579" y="195.803" width="10.9228" height="167.938" fill="#FEDA00"/>
<rect x="108.641" y="18.3071" width="10.9228" height="167.938" fill="#FEDA00"/>
<rect x="191.928" y="97.4974" width="10.9228" height="167.938" transform="rotate(90 191.928 97.4974)" fill="#FEDA00"/>
<rect x="365.327" y="97.4974" width="10.9228" height="167.938" transform="rotate(90 365.327 97.4974)" fill="#FEDA00"/>
<rect x="365.327" y="273.628" width="10.9228" height="167.938" transform="rotate(90 365.327 273.628)" fill="#FEDA00"/>
<rect x="191.928" y="274.993" width="10.9228" height="167.938" transform="rotate(90 191.928 274.993)" fill="#FEDA00"/>
<rect x="197.389" y="452.489" width="10.9228" height="167.938" transform="rotate(90 197.389 452.489)" fill="#FEDA00"/>
<rect x="370.789" y="452.489" width="10.9228" height="167.938" transform="rotate(90 370.789 452.489)" fill="#FEDA00"/>
<rect x="108.641" y="199.899" width="10.9228" height="167.938" fill="#FEDA00"/>
<rect x="108.641" y="381.491" width="10.9228" height="167.938" fill="#FEDA00"/>
<rect x="276.579" y="381.491" width="10.9228" height="167.938" fill="#FEDA00"/>
<rect x="276.579" y="27.8645" width="10.9228" height="167.938" fill="#FEDA00"/>
</svg>
