<svg width="787" height="1592" viewBox="0 0 787 1592" fill="none" xmlns="http://www.w3.org/2000/svg">
<rect x="786.688" y="1592" width="786.443" height="1592" transform="rotate(-180 786.688 1592)" fill="#1EE7D2"/>
<path d="M312.912 1326.6C312.912 1298.99 335.298 1276.6 362.912 1276.6H424.024C451.638 1276.6 474.024 1298.99 474.024 1326.6V1592H312.912V1326.6Z" fill="white"/>
<rect x="389.371" y="397.317" width="8.19211" height="228.014" fill="#1EE6D2"/>
<rect x="467.197" y="548.871" width="9.55747" height="150.189" transform="rotate(90 467.197 548.871)" fill="#1EE6D2"/>
<rect x="468.562" y="475.142" width="9.55747" height="150.189" transform="rotate(90 468.562 475.142)" fill="#1EE6D2"/>
<rect x="646.057" y="1292.99" width="8.19211" height="228.014" fill="#1EE6D2"/>
<rect x="723.882" y="1444.54" width="9.55747" height="150.189" transform="rotate(90 723.882 1444.54)" fill="#1EE6D2"/>
<rect x="725.247" y="1370.81" width="9.55747" height="150.189" transform="rotate(90 725.247 1370.81)" fill="#1EE6D2"/>
<rect x="136.781" y="991.245" width="8.19211" height="228.014" fill="#1EE6D2"/>
<rect x="214.607" y="1142.8" width="9.55747" height="150.189" transform="rotate(90 214.607 1142.8)" fill="#1EE6D2"/>
<rect x="215.973" y="1069.07" width="9.55747" height="150.189" transform="rotate(90 215.973 1069.07)" fill="#1EE6D2"/>
<rect x="56.2266" y="92.844" width="196.611" height="245.618" fill="white"/>
<rect x="149.689" y="101.568" width="9.94924" height="233.058" fill="#1EE6D2"/>
<rect x="244.205" y="256.474" width="9.7689" height="182.403" transform="rotate(90 244.205 256.474)" fill="#1EE6D2"/>
<rect x="245.863" y="181.114" width="9.7689" height="182.403" transform="rotate(90 245.863 181.114)" fill="#1EE6D2"/>
<rect x="56.2266" y="378.462" width="196.611" height="245.618" fill="white"/>
<rect x="149.689" y="387.185" width="9.94924" height="233.058" fill="#1EE6D2"/>
<rect x="244.205" y="542.092" width="9.7689" height="182.403" transform="rotate(90 244.205 542.092)" fill="#1EE6D2"/>
<rect x="245.863" y="466.732" width="9.7689" height="182.403" transform="rotate(90 245.863 466.732)" fill="#1EE6D2"/>
<rect x="56.2266" y="664.08" width="196.611" height="245.618" fill="white"/>
<rect x="149.689" y="672.803" width="9.94924" height="233.058" fill="#1EE6D2"/>
<rect x="244.205" y="827.71" width="9.7689" height="182.403" transform="rotate(90 244.205 827.71)" fill="#1EE6D2"/>
<rect x="245.863" y="752.35" width="9.7689" height="182.403" transform="rotate(90 245.863 752.35)" fill="#1EE6D2"/>
<rect x="56.2266" y="949.698" width="196.611" height="245.618" fill="white"/>
<rect x="149.689" y="958.421" width="9.94924" height="233.058" fill="#1EE6D2"/>
<rect x="244.205" y="1113.33" width="9.7689" height="182.403" transform="rotate(90 244.205 1113.33)" fill="#1EE6D2"/>
<rect x="245.863" y="1037.97" width="9.7689" height="182.403" transform="rotate(90 245.863 1037.97)" fill="#1EE6D2"/>
<rect x="56.2266" y="1235.32" width="196.611" height="245.618" fill="white"/>
<rect x="149.689" y="1244.04" width="9.94924" height="233.058" fill="#1EE6D2"/>
<rect x="244.205" y="1398.95" width="9.7689" height="182.403" transform="rotate(90 244.205 1398.95)" fill="#1EE6D2"/>
<rect x="245.863" y="1323.59" width="9.7689" height="182.403" transform="rotate(90 245.863 1323.59)" fill="#1EE6D2"/>
<rect x="534.1" y="93.1867" width="196.611" height="245.776" fill="white"/>
<rect x="627.562" y="101.916" width="9.94924" height="233.208" fill="#1EE6D2"/>
<rect x="722.078" y="256.923" width="9.7752" height="182.403" transform="rotate(90 722.078 256.923)" fill="#1EE6D2"/>
<rect x="723.737" y="181.514" width="9.7752" height="182.403" transform="rotate(90 723.737 181.514)" fill="#1EE6D2"/>
<rect x="534.1" y="378.963" width="196.611" height="245.776" fill="white"/>
<rect x="627.562" y="387.692" width="9.94924" height="233.208" fill="#1EE6D2"/>
<rect x="722.078" y="542.699" width="9.7752" height="182.403" transform="rotate(90 722.078 542.699)" fill="#1EE6D2"/>
<rect x="723.737" y="467.29" width="9.7752" height="182.403" transform="rotate(90 723.737 467.29)" fill="#1EE6D2"/>
<rect x="534.1" y="664.739" width="196.611" height="245.776" fill="white"/>
<rect x="627.562" y="673.469" width="9.94924" height="233.208" fill="#1EE6D2"/>
<rect x="722.078" y="828.475" width="9.7752" height="182.403" transform="rotate(90 722.078 828.475)" fill="#1EE6D2"/>
<rect x="723.737" y="753.067" width="9.7752" height="182.403" transform="rotate(90 723.737 753.067)" fill="#1EE6D2"/>
<rect x="534.1" y="950.516" width="196.611" height="245.776" fill="white"/>
<rect x="627.562" y="959.245" width="9.94924" height="233.208" fill="#1EE6D2"/>
<rect x="722.078" y="1114.25" width="9.7752" height="182.403" transform="rotate(90 722.078 1114.25)" fill="#1EE6D2"/>
<rect x="723.737" y="1038.84" width="9.7752" height="182.403" transform="rotate(90 723.737 1038.84)" fill="#1EE6D2"/>
<rect x="534.1" y="1236.29" width="196.611" height="245.776" fill="white"/>
<rect x="627.562" y="1245.02" width="9.94924" height="233.208" fill="#1EE6D2"/>
<rect x="722.078" y="1400.03" width="9.7752" height="182.403" transform="rotate(90 722.078 1400.03)" fill="#1EE6D2"/>
<rect x="723.737" y="1324.62" width="9.7752" height="182.403" transform="rotate(90 723.737 1324.62)" fill="#1EE6D2"/>
<rect x="295.162" y="93.1867" width="196.611" height="245.698" fill="white"/>
<rect x="388.625" y="101.913" width="9.94924" height="233.134" fill="#1EE6D2"/>
<rect x="483.141" y="256.871" width="9.7721" height="182.403" transform="rotate(90 483.141 256.871)" fill="#1EE6D2"/>
<rect x="484.799" y="181.486" width="9.7721" height="182.403" transform="rotate(90 484.799 181.486)" fill="#1EE6D2"/>
<rect x="295.162" y="378.885" width="196.611" height="245.698" fill="white"/>
<rect x="388.625" y="387.611" width="9.94924" height="233.134" fill="#1EE6D2"/>
<rect x="483.141" y="542.569" width="9.7721" height="182.403" transform="rotate(90 483.141 542.569)" fill="#1EE6D2"/>
<rect x="484.799" y="467.184" width="9.7721" height="182.403" transform="rotate(90 484.799 467.184)" fill="#1EE6D2"/>
<rect x="295.162" y="664.583" width="196.611" height="245.698" fill="white"/>
<rect x="388.625" y="673.31" width="9.94924" height="233.134" fill="#1EE6D2"/>
<rect x="483.141" y="828.267" width="9.7721" height="182.403" transform="rotate(90 483.141 828.267)" fill="#1EE6D2"/>
<rect x="484.799" y="752.883" width="9.7721" height="182.403" transform="rotate(90 484.799 752.883)" fill="#1EE6D2"/>
<rect x="295.162" y="950.282" width="196.611" height="245.698" fill="white"/>
<rect x="388.625" y="959.008" width="9.94924" height="233.134" fill="#1EE6D2"/>
<rect x="483.141" y="1113.97" width="9.7721" height="182.403" transform="rotate(90 483.141 1113.97)" fill="#1EE6D2"/>
<rect x="484.799" y="1038.58" width="9.7721" height="182.403" transform="rotate(90 484.799 1038.58)" fill="#1EE6D2"/>
</svg>
