<svg width="1201" height="936" viewBox="0 0 1201 936" fill="none" xmlns="http://www.w3.org/2000/svg">
<rect width="1201" height="936" fill="#1EE7D2"/>
<path d="M664.147 190.198C675.157 164.518 746.647 118.294 788.924 127.099C841.77 138.104 857.183 153.512 874.798 166.719C876.22 167.785 876.815 169.386 876.69 171.431L1106 742.682C1014.5 805.781 829.732 924.935 822.686 896.761C819.097 882.41 808.927 842.84 797.986 797.71C764.222 763.959 674.423 755.155 653.138 756.622C631.852 758.09 496.068 769.829 486.526 756.622C478.893 746.057 556.254 525.504 592.952 391.969L614.972 242.292L664.147 190.198Z" fill="#FEDA00"/>
<path d="M664.147 190.198C675.157 164.518 746.647 118.294 788.924 127.099C841.77 138.104 857.183 153.512 874.798 166.719M664.147 190.198L614.972 242.292L592.952 391.969M664.147 190.198L592.952 391.969M874.798 166.719C888.891 177.284 821.708 240.335 778.648 267.971C766.904 291.45 743.857 343.25 745.619 362.62C747.821 386.832 761.032 577.597 763.234 626.022C764.539 654.714 782.077 732.089 797.986 797.71M874.798 166.719L1106 742.682C1014.5 805.781 829.732 924.935 822.686 896.761C819.097 882.41 808.927 842.84 797.986 797.71M592.952 391.969C556.254 525.504 478.893 746.057 486.526 756.622C496.068 769.829 631.852 758.09 653.138 756.622C674.423 755.155 764.222 763.959 797.986 797.71M812.411 377.294C812.411 364.087 812.411 334.005 822.686 326.668C849.53 307.501 901.955 305.39 909.295 334.005C915.167 356.897 952.844 591.048 970.949 705.263C944.77 725.562 888.891 761.465 874.798 742.682C860.706 723.899 812.411 390.501 812.411 377.294Z" stroke="#7036CC" stroke-width="10"/>
<path d="M704.195 269.726C689.084 265.002 678.525 284.488 675.135 294.821C671.26 321.146 665.835 379.406 675.135 401.844C686.759 429.892 715.093 377.487 724.538 366.416C733.982 355.344 723.085 275.631 704.195 269.726Z" fill="#7036CC" stroke="#7036CC" stroke-width="5"/>
<path d="M780.864 265L802 332.449L759 515" stroke="#7036CC" stroke-width="10"/>
<line x1="658.743" y1="429.208" x2="695.743" y2="465.208" stroke="#E61EAA" stroke-width="5"/>
<line x1="693.816" y1="428.718" x2="658.816" y2="465.718" stroke="#E61EAA" stroke-width="5"/>
<path d="M39.988 76.964C40.104 76.442 39.988 75.92 40.104 75.456C40.278 75.05 40.162 74.586 40.336 74.18C40.626 73.252 40.684 72.324 40.8 71.338C40.916 70.758 40.858 70.12 40.916 69.54C41.032 68.96 41.09 68.322 41.148 67.742C41.206 67.278 41.322 66.872 41.438 66.408C41.554 65.828 41.496 65.248 41.612 64.668C41.67 64.146 41.786 63.624 41.844 63.102C41.902 62.464 41.96 61.71 42.134 61.072C42.308 60.608 42.656 60.318 42.656 59.796C42.656 59.448 42.54 58.23 42.83 58.056C43.178 57.882 44.106 58.23 44.454 58.288C45.092 58.404 45.788 58.52 46.426 58.636C47.586 58.81 48.804 58.926 49.964 59.042C52.284 59.274 54.488 59.622 56.808 59.97C59.012 60.26 61.448 60.55 63.536 61.362C63.942 61.536 64.348 61.652 64.696 61.768C65.334 61.942 65.508 62.29 65.566 62.87C65.624 63.276 65.624 63.624 65.624 63.972C65.682 64.61 65.682 65.19 65.624 65.828C65.624 67.046 65.624 68.264 65.566 69.482C65.566 70.12 65.392 70.7 65.334 71.28C65.276 71.918 65.276 72.556 65.218 73.136C65.102 74.47 65.334 75.688 65.334 76.964C65.392 78.124 65.276 79.284 65.276 80.444C65.218 80.966 65.16 81.488 65.102 81.952C65.044 82.184 65.102 82.474 65.044 82.706C64.986 82.996 64.754 83.054 64.58 83.286C64.464 83.46 64.406 83.75 64.464 83.924C64.58 84.388 64.406 83.982 64.696 84.156C64.754 84.214 64.87 84.156 64.986 84.272C65.218 84.62 64.058 84.62 63.884 84.62C62.666 84.736 61.448 84.736 60.23 84.852C59.65 84.91 59.012 84.968 58.374 85.084C57.91 85.142 57.156 85.548 56.866 84.968C56.634 84.504 56.808 83.808 56.808 83.286C56.866 82.648 56.924 82.01 56.924 81.372C56.982 80.734 56.982 80.154 56.982 79.516C57.04 78.82 57.04 78.182 56.982 77.486C56.924 76.906 57.04 76.326 57.04 75.746C57.098 75.166 57.04 74.586 57.04 74.006C57.04 72.788 56.866 71.512 56.982 70.294C57.098 69.018 56.982 67.742 57.04 66.466C57.04 66.06 57.33 65.074 56.982 64.784C56.808 64.668 56.344 64.726 56.112 64.726C55.764 64.726 55.358 64.668 55.01 64.668C53.676 64.61 52.4 64.378 51.124 64.088C50.544 63.972 49.964 63.856 49.384 63.798C48.978 63.74 48.05 63.45 47.702 63.624C47.354 63.798 47.528 64.9 47.528 65.248C47.47 65.886 47.296 66.582 47.296 67.22C47.238 68.322 47.064 69.424 46.948 70.526C46.832 71.57 46.832 72.614 46.832 73.658C46.832 74.296 46.716 74.934 46.716 75.63C46.658 76.21 46.774 76.79 46.716 77.428C46.658 78.008 46.658 78.588 46.658 79.168C46.6 79.748 46.658 80.212 46.716 80.792C46.832 81.952 46.832 83.17 46.774 84.33C46.716 84.852 46.658 85.432 46.658 85.954C46.658 86.244 46.542 86.592 46.6 86.882C46.6 86.998 46.832 87.288 46.774 87.462C46.658 87.926 45.788 87.288 45.614 87.172C45.034 86.824 44.396 86.708 43.816 86.534C42.656 86.128 41.496 85.78 40.336 85.49C39.756 85.316 39.292 85.374 39.234 84.678C39.118 84.04 39.06 83.402 39.118 82.764C39.118 82.126 39.176 81.488 39.234 80.908C39.292 80.56 39.35 80.27 39.408 79.922C39.408 79.748 39.698 79.342 39.698 79.11C39.698 78.878 39.582 78.704 39.64 78.53C39.698 78.414 39.814 78.414 39.872 78.298C39.988 78.182 39.93 77.892 39.988 77.718C39.988 77.37 40.104 77.196 39.988 76.964ZM93.556 71.338C93.846 72.382 93.846 73.31 93.73 74.412C93.672 75.282 92.976 75.92 92.454 76.558C91.816 77.254 91.062 77.66 90.192 77.95C89.264 78.24 88.336 78.472 87.408 78.53C86.422 78.588 85.436 78.646 84.508 78.762C84.044 78.82 83.638 78.878 83.174 78.878C82.768 78.878 82.072 78.704 81.724 78.878C81.318 78.994 81.492 79.458 81.492 79.864C81.492 80.386 81.492 80.966 81.492 81.546C81.492 82.648 81.492 83.75 81.492 84.852C81.55 85.896 81.666 86.94 81.724 87.984C81.782 88.448 81.724 88.97 81.782 89.492C81.84 89.782 82.072 90.536 81.898 90.768C81.724 91.058 81.086 90.942 80.854 90.942C80.274 90.942 79.694 91 79.172 91.058C78.07 91.174 77.026 91.348 75.924 91.464C75.228 91.522 73.778 91.986 73.198 91.406C73.662 91.232 74.068 91.116 74.532 91.058C74.242 90.536 74.3 89.086 74.3 88.854C74.184 88.042 74.184 87.23 74.01 86.418C73.836 85.722 73.894 85.026 73.836 84.33C73.72 83.634 73.836 83.054 73.894 82.3C73.894 81.546 73.836 80.792 73.836 80.038C73.836 79.168 73.952 78.298 74.01 77.428C74.01 77.08 74.01 76.674 74.068 76.326C74.126 76.036 74.3 75.804 74.358 75.514C74.416 75.34 74.358 75.224 74.358 75.05C74.358 75.05 74.358 74.992 74.358 74.934C74.184 74.818 74.184 74.702 74.358 74.644C74.416 74.296 74.474 74.064 74.474 73.716C74.532 72.962 74.59 72.266 74.59 71.57C74.532 70.7 74.3 69.888 74.242 69.076C74.242 68.728 74.242 68.38 74.184 67.974C74.126 67.626 73.952 67.278 73.894 66.93C73.894 66.582 74.068 66.292 74.068 66.002C74.068 65.538 74.01 65.074 74.01 64.61C74.01 63.74 74.184 62.812 74.242 61.942C74.3 61.304 74.474 60.782 75.228 60.724C75.982 60.666 76.794 60.724 77.606 60.666C78.128 60.608 78.708 60.55 79.23 60.492C79.578 60.492 80.158 60.376 80.506 60.55C80.97 60.84 80.68 62.464 80.738 62.986C80.738 63.044 80.738 63.102 80.738 63.16C81.202 62.696 83.232 62.232 83.58 62.174C84.508 62.058 85.552 62.116 86.422 62.464C88.278 63.16 89.902 64.088 91.062 65.77C91.642 66.64 92.048 67.568 92.454 68.496C92.918 69.424 93.324 70.352 93.556 71.338ZM80.912 71.512C80.912 72.092 81.028 72.846 81.144 73.426C81.376 74.47 82.478 73.658 83.174 73.774C84.276 73.89 85.378 74.238 86.48 74.18C87.118 74.122 87.756 73.89 88.336 73.716C88.858 73.6 89.496 73.542 89.67 72.962C89.902 72.382 89.67 71.628 89.67 71.048C89.67 70.41 89.612 69.888 89.496 69.308C89.612 69.308 88.858 67.104 88.568 66.93C88.22 66.698 87.756 66.524 87.408 66.35C86.886 66.118 86.48 66.002 85.958 65.77C85.088 65.48 83.928 65.422 83.058 65.538C82.304 65.596 80.97 65.654 80.854 66.582C80.796 67.684 80.854 68.844 80.912 69.946C80.97 70.526 80.912 70.99 80.912 71.512ZM122.234 55.214C122.408 55.098 122.524 54.982 122.524 54.808C122.988 55.04 123.452 54.634 123.916 54.402C124.438 54.17 125.076 53.996 125.54 53.764C126.004 53.474 126.526 53.242 126.99 53.01C127.57 52.72 128.15 52.372 128.73 52.14C129.252 51.966 129.252 52.256 129.31 52.662C129.31 52.894 129.426 53.126 129.484 53.358C129.542 53.706 129.484 54.054 129.542 54.402C129.542 54.692 129.716 54.982 129.716 55.272C129.716 55.562 129.658 55.794 129.658 56.084C129.716 56.722 129.774 57.302 129.832 57.94C129.89 59.216 130.122 60.434 130.296 61.71C130.528 62.87 130.644 64.088 130.876 65.306C131.108 66.35 131.34 67.394 131.514 68.438C131.63 69.018 131.63 69.598 131.688 70.12C131.746 70.816 131.862 71.512 131.92 72.15C131.978 72.73 132.036 73.31 132.094 73.832C132.152 74.064 132.21 74.238 132.268 74.47C132.326 74.76 132.21 75.108 132.268 75.456C132.326 76.036 132.268 76.616 132.268 77.196C132.268 77.776 132.326 78.356 132.268 78.936C132.152 80.154 131.92 81.372 131.862 82.59C131.862 82.822 132.036 83.286 131.92 83.46C131.804 83.634 131.456 83.634 131.224 83.692C130.586 83.692 129.948 83.692 129.31 83.75C128.15 83.866 127.048 84.098 125.888 83.866C125.366 83.808 125.424 83.17 125.366 82.706C125.25 82.068 125.134 81.372 125.076 80.734C125.018 80.096 125.076 79.458 125.076 78.82C125.018 78.182 124.902 77.544 124.902 76.906C124.96 75.572 124.844 74.238 124.786 72.962C124.786 72.208 124.67 71.512 124.728 70.758C124.786 70.12 124.902 69.424 124.902 68.786C124.96 68.206 124.902 67.626 124.902 67.046C124.96 66.234 124.96 65.48 124.844 64.726C124.67 63.276 124.322 61.826 124.09 60.318C124.032 59.622 123.858 58.984 123.684 58.288C123.452 57.592 123.394 56.838 123.046 56.2C122.988 56.258 122.988 56.374 122.93 56.49C122.756 56.432 122.524 56.026 122.35 55.852C122.118 56.258 121.944 56.722 121.828 57.186C121.712 57.766 121.48 58.172 121.19 58.694C120.9 59.216 120.668 59.622 120.494 60.202C120.32 60.666 120.03 60.956 119.74 61.362C119.102 62.174 118.87 63.218 118.232 64.03C117.942 64.378 117.826 64.784 117.652 65.248C117.536 65.48 117.362 65.596 117.246 65.77C117.014 66.002 116.84 66.292 116.666 66.524C116.086 67.452 115.622 68.496 115.216 69.482C114.81 70.526 114.23 71.57 113.882 72.672C113.592 73.484 113.244 74.296 112.78 75.05C112.316 75.92 111.678 76.674 111.214 77.544C110.982 78.066 110.808 78.588 110.518 79.11C110.402 79.342 110.344 79.632 110.228 79.922C110.054 80.154 109.938 80.27 109.822 80.56C109.648 81.024 109.474 81.43 109.358 81.836C109.3 82.068 109.184 82.242 109.068 82.474C109.068 82.474 109.068 82.474 109.068 82.532C108.894 82.532 108.836 82.59 108.894 82.764C108.836 82.938 108.604 83.17 108.604 83.344C108.604 83.286 108.662 83.866 108.604 83.808C108.836 84.04 109.416 83.402 109.59 83.808C109.416 84.04 108.952 83.924 108.72 83.982C108.546 84.098 108.372 84.446 108.082 84.33C107.966 84.33 107.966 84.272 107.908 84.272C107.908 84.214 107.85 84.214 107.85 84.156C107.734 84.156 107.618 84.156 107.502 84.156C107.038 84.214 106.574 84.388 106.11 84.446C105.762 84.504 105.414 84.62 105.066 84.678C104.834 84.794 104.196 85.084 103.964 84.968C103.79 84.852 103.79 84.62 103.732 84.446C103.674 84.156 103.616 83.808 103.5 83.518C103.442 83.228 103.326 83.054 103.326 82.764C103.326 82.474 103.326 82.3 103.268 82.01C103.152 81.43 103.094 80.908 103.036 80.328C103.036 80.038 102.92 79.748 102.862 79.458C102.804 79.052 102.862 78.704 102.804 78.298C102.746 78.124 102.688 78.008 102.688 77.776C102.63 77.37 102.746 77.022 102.688 76.558C102.572 75.92 102.688 75.166 102.572 74.528C102.514 74.18 102.398 73.89 102.398 73.542C102.398 73.252 102.398 72.962 102.398 72.672C102.282 71.918 102.224 71.164 102.282 70.468C102.282 69.714 102.108 68.96 102.05 68.264C101.992 67.568 101.876 66.93 101.818 66.292C101.818 66.002 101.76 65.77 101.702 65.48C101.644 65.364 101.586 65.248 101.586 65.132C101.528 64.842 101.702 64.552 101.644 64.32C101.586 64.088 101.528 63.972 101.528 63.74C101.528 63.392 101.412 63.218 101.354 62.928C101.296 62.348 101.296 61.768 101.238 61.188C101.18 60.782 101.18 60.376 101.122 59.97C101.064 59.912 101.006 59.912 101.006 59.854C100.948 59.796 101.006 59.738 101.064 59.68C101.006 59.564 101.122 59.39 101.122 59.274C101.122 59.158 101.006 59.042 101.006 58.926C101.006 58.694 101.122 58.578 101.122 58.346C101.18 58.056 101.18 57.708 101.122 57.418C101.006 57.012 101.006 56.664 101.006 56.258C101.006 56.2 101.064 55.736 101.006 55.678C100.948 55.562 100.6 55.562 100.426 55.504C100.31 55.504 99.3238 55.33 99.7878 55.04C99.9618 54.982 100.716 55.272 100.89 55.33C100.948 55.156 100.89 54.808 101.122 54.75C101.412 54.692 101.238 55.214 101.354 55.33C101.47 55.504 101.934 55.504 102.108 55.562C102.456 55.62 102.804 55.678 103.094 55.736C103.616 55.794 104.138 55.968 104.66 56.026C105.24 56.084 105.936 56.084 106.458 56.258C106.922 56.49 106.806 56.954 106.864 57.418C106.922 58.056 107.038 58.636 107.038 59.274C107.154 60.434 107.154 61.594 107.154 62.754C107.154 63.972 107.27 65.132 107.212 66.35C107.212 67.336 107.27 68.322 107.154 69.25C107.096 69.598 107.212 70.004 107.212 70.352C107.27 70.642 107.328 70.874 107.386 71.164C107.386 71.454 107.328 71.744 107.386 72.034C107.502 73.136 107.56 74.18 107.676 75.282C107.792 75.978 107.85 82.532 108.14 82.532C108.256 81.952 108.198 81.372 108.198 80.85C108.14 80.27 107.966 79.632 108.082 79.052C108.198 78.53 108.488 78.066 108.778 77.602C109.068 77.196 109.3 76.616 109.59 76.152C109.88 75.63 110.054 75.05 110.46 74.528C110.808 74.064 111.156 73.542 111.562 73.078C112.084 72.382 112.548 71.57 113.012 70.816C114.114 68.96 114.868 66.93 115.854 65.016C116.376 64.03 116.782 62.986 117.304 61.942C117.536 61.478 117.652 61.014 117.884 60.55C118.116 60.086 118.406 59.622 118.522 59.1C118.87 57.882 119.392 56.838 119.972 55.736C120.146 55.504 120.262 55.272 120.436 55.04C120.552 54.866 120.726 54.46 120.958 54.402C121.48 54.228 122.002 54.924 122.234 55.214ZM122.64 55.388C122.35 55.504 122.814 55.91 122.93 55.968C122.872 55.794 122.814 55.562 122.64 55.388ZM170.503 87.578C170.503 87.984 170.677 88.854 170.445 89.202C170.213 89.608 169.517 89.434 169.111 89.376C166.675 89.26 164.297 88.854 161.919 88.68C159.715 88.506 157.627 87.578 155.481 87.114C154.321 86.882 153.219 86.708 152.059 86.534C150.957 86.36 149.913 86.302 148.869 85.78C147.883 85.258 146.433 85.432 145.331 85.316C144.693 85.258 144.055 85.2 143.417 85.2C143.011 85.142 142.663 85.142 142.315 85.084C142.199 85.084 141.561 85.142 141.445 84.968C141.387 84.852 141.561 84.214 141.561 84.098C141.619 83.808 141.677 83.46 141.677 83.112C141.735 82.474 141.677 81.894 141.619 81.256C141.619 80.908 141.851 79.748 141.619 79.574C141.503 79.458 141.271 79.574 141.155 79.516C141.039 79.4 141.039 79.168 140.981 79.052C141.155 79.11 141.271 79.168 141.445 79.168C141.445 78.762 140.865 79.11 140.807 78.82C140.691 78.472 141.677 78.936 141.735 78.936C141.851 78.82 141.735 77.776 141.735 77.544C141.735 77.138 141.735 76.616 141.851 76.21C141.967 75.978 142.025 76.036 141.967 75.746C141.967 75.572 141.909 75.34 141.851 75.166C141.793 74.644 141.735 74.18 141.677 73.658C141.619 73.194 141.619 72.672 141.619 72.15C141.619 71.686 141.793 71.28 141.735 70.758C141.677 70.294 141.793 69.946 141.793 69.482C141.793 68.902 141.677 68.38 141.677 67.858C141.677 66.814 141.735 65.77 141.677 64.784C141.619 63.856 141.387 62.87 141.213 61.942C141.155 61.42 141.097 60.898 141.039 60.376C141.039 60.144 140.981 59.912 140.923 59.738C140.923 59.506 140.981 59.332 140.981 59.158C140.981 58.984 140.865 58.81 140.865 58.578C140.923 58.404 140.981 58.114 140.981 57.94C141.039 57.65 141.155 57.476 141.329 57.418C140.865 57.418 140.401 57.36 139.995 57.07C140.285 56.78 140.807 57.128 141.213 57.128C141.735 57.128 142.199 56.954 142.779 56.954C143.301 56.954 143.881 56.896 144.403 56.896C144.751 56.896 145.737 56.838 145.969 57.07C146.143 57.36 146.027 58.114 145.969 58.462C145.969 58.984 145.853 59.506 145.853 60.028C145.853 61.246 145.853 62.406 145.853 63.566C145.911 64.668 146.143 65.654 146.259 66.698C146.259 67.162 146.375 67.568 146.433 68.032C146.491 68.67 146.491 69.308 146.549 69.946C146.665 71.106 146.781 72.15 146.723 73.31C146.665 74.354 146.781 75.398 146.897 76.384C147.013 77.022 146.955 77.66 147.013 78.298C147.071 78.646 147.187 79.516 146.955 79.864C147.071 79.864 147.187 79.922 147.303 79.922C149.043 80.212 150.435 81.256 152.175 81.488C152.001 78.936 151.827 76.326 151.943 73.774C151.943 73.194 152.117 72.672 152.175 72.092C152.175 71.454 152.349 70.874 152.349 70.236C152.407 69.018 152.581 67.8 152.639 66.64C152.639 66.06 152.523 65.48 152.523 64.9C152.523 64.32 152.581 63.682 152.581 63.102C152.581 62.522 152.639 62 152.581 61.478C152.523 60.724 152.465 60.028 152.407 59.332C152.349 58.752 152.291 58.114 152.291 57.534C152.291 57.244 152.175 56.78 152.349 56.664C152.581 56.49 153.161 56.722 153.393 56.78C153.973 56.896 154.495 57.07 155.075 57.186C155.249 57.186 155.597 57.128 155.771 57.244C155.945 57.36 155.945 57.708 155.945 57.94C156.003 58.52 155.945 59.158 156.061 59.738C156.119 60.376 156.293 60.956 156.351 61.536C156.467 62.754 156.699 63.914 156.815 65.074C156.815 65.596 156.815 66.176 156.815 66.756C156.815 67.394 156.931 68.032 156.989 68.67C157.105 69.946 157.163 71.222 157.337 72.498C157.453 73.136 157.569 73.774 157.627 74.412C157.743 75.05 157.685 75.688 157.743 76.326C157.743 76.964 157.569 77.544 157.511 78.124C157.511 78.82 157.395 79.458 157.395 80.096C157.395 80.676 157.221 81.314 157.279 81.894C157.279 82.59 157.801 82.532 158.439 82.648C159.773 82.88 161.107 82.88 162.499 82.938C162.847 82.938 163.195 83.054 163.543 82.996C163.833 82.938 163.717 83.054 163.833 82.764C163.891 82.59 163.833 82.358 163.833 82.184C163.833 81.894 163.775 81.546 163.775 81.256C163.775 80.966 163.775 80.676 163.717 80.444C163.427 78.936 163.079 77.486 162.963 75.978C162.905 75.282 163.021 74.644 162.963 73.948C162.905 73.194 162.731 72.44 162.673 71.628C162.615 70.874 162.673 70.062 162.673 69.25C162.731 68.554 162.557 67.858 162.731 67.162C162.441 66.988 162.557 65.944 162.557 65.654C162.499 65.074 162.615 64.494 162.557 63.856C162.557 63.392 162.557 62.87 162.557 62.348C162.557 62.058 162.557 61.768 162.557 61.478C162.557 61.246 162.441 60.666 162.557 60.492C162.789 60.086 163.427 60.318 163.833 60.376C164.355 60.434 164.877 60.434 165.399 60.492C166.327 60.492 167.313 60.434 168.299 60.318C168.299 60.84 168.183 61.362 168.125 61.826C168.067 62.174 168.183 62.696 167.777 62.754C168.241 62.986 168.067 63.392 168.125 63.798C168.125 64.262 168.125 64.784 168.183 65.248C168.183 65.828 168.241 66.292 168.241 66.814C168.183 67.336 168.415 67.916 168.299 68.438C168.183 68.902 168.241 69.424 168.183 69.888C168.125 70.468 168.067 70.99 167.951 71.512C167.777 72.614 167.777 73.716 167.545 74.818C167.313 75.804 167.429 76.964 167.255 78.008C167.139 79.052 166.965 80.038 166.849 81.024C166.791 81.256 166.907 81.488 166.907 81.72C166.907 81.836 166.791 82.184 166.849 82.3C167.023 82.532 168.067 81.952 168.299 81.952C168.705 81.894 168.821 82.416 168.995 82.764C169.227 83.228 169.517 83.692 169.633 84.214C169.923 85.258 170.387 86.476 170.503 87.578ZM167.777 71.164C167.777 71.222 167.835 71.222 167.835 71.164C167.777 71.164 167.719 71.106 167.777 71.164ZM202.8 84.446C202.8 84.678 202.974 85.142 202.742 85.316C202.51 85.548 201.93 85.432 201.64 85.432C201.176 85.432 200.77 85.548 200.306 85.606C199.842 85.664 199.378 85.606 198.914 85.664C197.986 85.722 197.116 85.78 196.246 86.012C195.782 86.128 195.318 86.128 194.796 86.186C194.274 86.186 193.81 86.244 193.288 86.302C192.302 86.418 191.316 86.534 190.388 86.476C189.402 86.36 188.416 86.36 187.546 86.012C187.14 85.896 186.676 85.78 186.27 85.606C186.096 85.548 185.864 85.374 185.69 85.374C185.458 85.316 185.226 85.49 184.994 85.606C184.994 85.316 184.82 85.2 184.588 85.2C184.472 85.2 184.356 85.258 184.24 85.2C184.008 85.2 183.834 85.2 183.602 85.2C183.312 85.2 183.022 85.2 182.674 85.142C182.326 85.026 181.978 84.91 181.63 84.736C181.34 84.62 181.05 84.504 180.818 84.33C180.528 84.156 180.354 84.214 180.296 83.866C180.238 83.576 180.18 83.228 180.18 82.938C180.122 82.59 180.238 82.184 180.296 81.836C180.296 80.386 180.18 78.936 180.064 77.486C180.006 77.196 179.89 76.906 179.832 76.616C179.832 76.268 179.832 75.978 179.716 75.63C179.6 74.934 179.6 74.238 179.484 73.6C179.368 72.962 179.368 72.324 179.368 71.744C179.368 71.396 179.368 71.048 179.368 70.7C179.368 70.294 179.252 69.888 179.252 69.482C179.194 69.134 179.31 68.786 179.31 68.438C179.31 68.032 179.368 67.626 179.31 67.278C179.31 66.93 179.426 66.64 179.426 66.35C179.484 65.944 179.484 65.538 179.484 65.19C179.6 64.436 179.658 63.682 179.658 62.986C179.658 62.58 179.716 62.232 179.774 61.826C179.774 61.478 179.716 61.072 179.716 60.666C179.716 60.376 179.832 60.028 179.832 59.738C179.832 59.332 179.832 58.926 179.832 58.52C179.832 57.824 180.006 57.128 180.006 56.432C180.006 56.084 180.122 55.678 180.18 55.33C180.18 54.924 180.18 54.518 180.18 54.112C180.238 53.706 180.238 53.3 180.296 52.894C180.296 52.488 180.354 52.314 180.702 52.14C181.05 52.024 181.514 51.966 181.862 51.966C182.268 51.908 182.674 52.024 183.08 52.14C183.486 52.256 183.892 52.256 184.24 52.372C184.646 52.488 184.936 52.662 185.284 52.778C185.342 52.604 185.342 52.488 185.4 52.372C185.4 52.198 185.4 52.14 185.516 52.082C185.864 51.85 185.806 52.256 185.806 52.488C185.806 52.546 185.806 52.778 185.806 52.836C185.864 52.894 186.154 52.894 186.212 52.952C186.502 53.068 186.444 53.242 186.618 53.474C186.734 53.59 186.734 53.59 186.908 53.59C187.024 53.59 187.14 53.59 187.256 53.59C187.546 53.59 187.778 53.59 188.068 53.59C188.706 53.648 189.286 53.706 189.924 53.822C190.388 53.88 190.852 53.996 191.316 54.054C191.896 54.112 192.36 53.996 192.94 53.996C194.1 53.996 195.26 53.88 196.42 54.054C196.942 54.112 197.58 54.112 198.102 54.344C198.276 54.402 198.508 54.46 198.566 54.576C198.682 54.866 198.566 55.33 198.566 55.562C198.566 56.142 198.45 56.664 198.45 57.244C198.45 57.592 198.566 57.94 198.218 58.114C197.986 58.172 197.696 58.172 197.464 58.23C197.174 58.288 196.884 58.346 196.594 58.404C196.072 58.462 195.492 58.404 194.912 58.462C194.68 58.52 194.39 58.52 194.1 58.578C193.868 58.636 193.636 58.578 193.404 58.52C192.766 58.52 192.186 58.578 191.548 58.462C190.968 58.404 190.446 58.288 189.924 58.114C189.286 57.882 188.706 57.824 188.068 57.766C187.546 57.708 187.024 57.592 186.502 57.534C186.328 57.534 185.632 57.476 185.342 57.36C185.342 57.65 185.284 57.94 185.284 58.23C185.284 58.868 185.342 59.564 185.4 60.144C185.4 60.492 185.4 60.84 185.4 61.13C185.4 61.478 185.458 61.768 185.458 62.116C186.444 62.58 187.662 62.348 188.706 62.29C189.228 62.29 189.75 62.406 190.33 62.406C190.968 62.406 191.548 62.406 192.186 62.522C192.708 62.58 193.288 62.638 193.81 62.696C194.1 62.754 194.39 62.754 194.68 62.754C194.796 62.754 194.97 62.812 195.086 62.812C195.26 62.812 195.376 62.754 195.55 62.812C195.782 62.812 195.956 62.87 196.188 62.928C196.478 62.928 196.768 62.928 197.058 62.928C197.348 62.928 197.638 62.986 197.928 62.986C198.276 63.044 198.682 62.986 198.972 63.102C199.436 63.276 199.262 63.74 199.262 64.146C199.262 64.726 199.262 65.306 199.262 65.886C199.204 67.104 199.03 68.322 199.146 69.482C199.146 69.598 199.262 70.062 199.146 70.12C199.03 70.294 198.45 70.178 198.334 70.178C197.638 70.12 197 70.062 196.304 70.004C195.086 69.83 193.926 69.656 192.708 69.656C191.374 69.656 190.214 69.018 188.938 68.96C188.706 68.96 188.416 68.96 188.126 68.96C187.778 68.902 187.488 68.844 187.14 68.786C186.792 68.786 186.444 68.786 186.154 68.728C185.864 68.728 185.574 68.612 185.284 68.554C185.284 69.424 185.4 70.294 185.4 71.164C185.4 71.628 185.458 72.034 185.516 72.498C185.574 72.962 185.574 73.484 185.69 73.948C185.69 74.122 185.806 74.238 185.806 74.412C185.864 74.644 185.806 74.818 185.806 75.05C185.748 75.514 185.864 75.92 185.806 76.384C185.748 77.196 185.516 78.066 185.69 78.878C185.748 79.11 185.574 79.4 185.632 79.574C185.69 79.748 185.748 79.69 185.98 79.748C186.444 79.748 186.908 79.806 187.43 79.806C188.184 79.806 188.996 79.98 189.75 80.096C190.156 80.096 190.504 80.27 190.852 80.27C191.258 80.386 191.664 80.502 192.07 80.502C192.998 80.502 193.926 80.56 194.854 80.56C195.318 80.56 195.782 80.444 196.188 80.502C196.594 80.618 196.942 80.56 197.348 80.56C197.754 80.56 198.102 80.676 198.508 80.618C198.74 80.56 198.972 80.56 199.204 80.56C199.436 80.56 199.726 80.444 199.958 80.386C200.364 80.27 200.77 80.212 201.118 80.154C201.35 80.096 201.524 80.096 201.756 80.096C201.988 80.096 202.22 79.98 202.452 79.922C202.858 79.922 202.742 80.328 202.684 80.618C202.626 81.14 202.626 81.604 202.626 82.068C202.684 82.88 202.684 83.634 202.8 84.446ZM186.038 53.3C185.632 53.126 185.632 53.59 185.632 53.822C185.806 53.764 186.27 53.822 186.328 53.648C186.328 53.532 186.154 53.358 186.038 53.3ZM211.385 65.944C211.153 65.712 211.327 65.422 211.269 65.19C211.269 64.842 211.269 64.552 211.269 64.262C211.269 63.914 211.327 63.624 211.269 63.276C211.211 62.928 211.211 62.58 211.211 62.29C211.153 61.652 211.153 61.014 211.153 60.376C211.153 60.086 211.443 58.926 210.689 59.274C210.631 58.926 211.095 59.216 211.211 58.984C211.269 58.868 211.095 58.752 211.153 58.636C211.269 58.462 211.385 58.52 211.501 58.694C211.617 58.926 211.443 59.042 211.733 59.1C211.849 59.158 212.023 59.1 212.197 59.158C212.603 59.216 212.951 59.39 213.241 59.622C213.589 59.854 213.821 60.028 213.995 60.434C214.169 60.782 214.111 61.13 214.169 61.478C214.169 61.768 214.285 62 214.285 62.29C214.227 62.464 214.169 62.638 214.169 62.812C214.169 63.044 214.227 63.218 214.285 63.392C214.285 63.74 214.285 64.088 214.285 64.436C214.285 64.842 214.169 65.248 214.227 65.654C214.285 66.408 214.343 67.162 214.285 67.916C214.169 68.67 214.169 69.54 214.285 70.236C214.401 70.99 214.401 71.744 214.401 72.498C214.401 73.252 214.459 74.006 214.633 74.818C214.633 74.992 214.691 75.224 214.691 75.456C214.691 75.63 214.575 75.746 214.575 75.862C214.575 75.978 214.691 76.094 214.691 76.268C214.749 76.442 214.691 76.674 214.633 76.848C214.923 76.79 215.039 76.268 215.097 76.036C215.271 75.688 215.445 75.34 215.619 74.934C215.677 74.76 215.677 74.586 215.735 74.412C215.793 74.238 215.909 74.122 215.967 74.006C216.083 73.658 216.315 73.252 216.373 72.904C216.489 72.208 216.837 71.628 217.069 70.99C217.185 70.642 217.359 70.294 217.475 69.946C217.533 69.83 217.591 69.714 217.649 69.598C217.707 69.424 217.823 69.25 217.939 69.076C218.403 68.322 219.099 67.626 219.621 66.93C219.853 66.698 220.085 66.408 220.375 66.118C220.665 65.828 221.071 65.48 221.361 65.132C221.535 64.842 221.593 64.552 221.651 64.262C221.709 63.914 221.825 63.624 221.825 63.276C221.825 63.218 221.767 63.102 221.825 63.044C221.825 62.928 221.941 62.87 221.941 62.754C221.999 62.58 221.999 62.406 221.999 62.174C221.999 62 221.941 61.826 221.941 61.652C221.941 61.42 222.057 61.246 222.115 61.014C222.173 60.898 222.289 60.608 222.289 60.492C222.231 60.318 221.883 60.26 222.057 60.086C222.173 60.028 222.463 60.028 222.579 60.086C222.811 60.086 223.043 60.144 223.275 60.202C224.029 60.318 224.899 60.318 225.653 60.608C226.233 60.782 226.059 61.13 225.943 61.652C225.827 62.058 225.711 62.522 225.653 62.928C225.537 63.914 225.537 64.9 225.537 65.944C225.537 66.872 225.537 67.742 225.653 68.67C225.711 69.134 225.769 69.598 225.769 70.062C225.769 70.526 225.885 70.932 225.885 71.396C226.001 73.368 225.943 75.34 225.885 77.254C225.827 78.24 225.827 79.168 225.769 80.154C225.769 80.56 225.769 80.966 225.769 81.43C225.827 81.952 225.711 82.474 225.769 82.996C225.827 83.286 225.943 83.982 225.769 84.214C225.653 84.33 225.363 84.388 225.189 84.504C225.015 84.62 224.841 84.736 224.609 84.852C224.145 85.142 223.681 85.258 223.101 85.374C222.927 85.432 222.695 85.548 222.463 85.548C222.289 85.548 222.057 85.49 221.883 85.548C221.941 85.432 221.883 85.316 221.883 85.2C221.883 85.142 221.941 85.142 221.941 85.084L221.825 84.852C221.767 84.62 221.825 84.388 221.825 84.156C221.767 83.982 221.767 83.808 221.709 83.576C221.709 83.46 221.767 83.402 221.767 83.286C221.825 82.938 221.651 82.532 221.593 82.184C221.593 82.01 221.535 81.836 221.535 81.72C221.535 81.604 221.593 81.488 221.593 81.43C221.593 81.314 221.477 81.314 221.477 81.256C221.477 81.14 221.535 81.024 221.535 80.908C221.477 80.676 221.361 80.85 221.361 80.502C221.361 80.212 221.419 79.922 221.419 79.632C221.419 79.458 221.477 79.284 221.535 79.168C221.535 78.994 221.477 78.878 221.477 78.704C221.477 78.646 221.477 78.53 221.477 78.53C221.477 78.414 221.477 78.414 221.419 78.356C221.419 78.182 221.419 78.066 221.419 77.892C221.419 77.776 221.477 77.718 221.477 77.602C221.419 77.37 221.303 77.37 221.303 77.138C221.303 76.964 221.419 76.79 221.477 76.616C221.477 76.442 221.361 76.268 221.361 76.094C221.303 75.862 221.245 75.514 221.303 75.224C221.361 75.05 221.361 74.992 221.361 74.876C221.361 74.934 221.303 74.586 221.303 74.702C221.303 74.644 221.361 74.586 221.361 74.586C221.303 74.47 221.187 74.412 221.129 74.296C221.071 74.064 221.187 73.832 221.129 73.6C221.129 73.31 221.129 72.962 221.071 72.614C221.071 72.498 221.013 72.382 220.955 72.266C220.955 72.034 221.013 71.86 221.013 71.628C221.013 71.396 220.897 71.164 220.839 70.932C220.839 70.642 220.955 70.294 220.897 69.946C220.897 69.598 220.897 69.192 220.955 68.786C221.013 68.438 221.245 67.974 221.129 67.684C220.839 68.264 220.549 68.902 220.201 69.54C219.911 70.12 219.563 70.7 219.331 71.338C219.157 71.918 218.925 72.44 218.693 73.02C218.461 73.658 218.113 74.238 217.881 74.934C217.417 76.384 216.953 77.776 216.315 79.168C216.025 79.864 215.503 80.676 215.619 81.488C215.735 81.952 215.793 82.358 215.851 82.822C215.909 83.17 215.967 83.634 215.909 83.982C215.793 84.62 214.981 84.562 214.517 84.562C214.169 84.562 213.821 84.62 213.473 84.62C213.125 84.562 212.777 84.562 212.429 84.504C211.965 84.504 210.979 84.33 210.805 83.866C210.747 83.692 210.805 83.518 210.805 83.402C210.805 83.228 210.747 83.054 210.747 82.88C210.747 82.532 210.689 82.184 210.689 81.778C210.689 81.082 210.805 80.502 210.747 79.806C210.747 79.458 210.805 79.11 210.805 78.762C210.805 78.472 210.863 78.182 210.863 77.892C210.863 77.834 210.805 77.718 210.805 77.66C210.805 77.602 210.805 77.486 210.805 77.428C210.863 77.254 210.805 77.08 210.863 76.906C210.921 76.558 211.037 76.326 211.037 76.036C211.095 75.34 211.211 74.644 211.211 73.948C211.211 73.774 211.153 73.658 211.095 73.484C211.095 73.252 211.153 73.02 211.153 72.788C211.211 72.44 211.153 72.092 211.211 71.744C211.269 71.164 211.269 70.584 211.327 69.946C211.327 69.656 211.327 69.366 211.385 69.076C211.443 68.67 211.327 68.322 211.327 67.974C211.327 67.626 211.385 67.336 211.385 66.988C211.385 66.64 211.211 66.292 211.385 65.944ZM219.157 53.416C218.577 53.126 218.693 53.59 218.751 53.996C218.809 54.402 218.925 54.866 219.041 55.272C219.157 55.736 219.331 55.968 219.737 56.316C220.027 56.606 220.433 57.012 220.839 57.128C221.535 57.36 222.231 57.128 222.753 56.664C222.985 56.432 223.275 56.258 223.507 55.968C223.681 55.678 223.739 55.388 223.855 55.098C223.971 54.75 224.203 54.46 224.261 54.112C224.319 53.764 224.319 53.3 224.319 52.952C224.319 52.72 224.261 52.546 224.087 52.778C224.029 52.894 223.971 53.3 223.971 53.416C223.971 53.59 223.913 53.706 223.855 53.822C223.855 53.938 223.855 54.054 223.855 54.112C223.797 54.286 223.681 54.46 223.623 54.576C223.565 54.75 223.565 54.866 223.507 54.982C223.333 55.272 223.217 55.678 223.043 55.91C222.927 56.084 222.753 56.142 222.637 56.258C222.521 56.316 222.463 56.49 222.347 56.606C222.231 56.664 221.941 56.722 221.767 56.78C221.651 56.896 221.477 56.896 221.303 56.954C220.839 56.954 220.607 56.664 220.259 56.432C219.911 56.142 219.679 55.91 219.447 55.504C219.273 55.214 218.693 53.648 219.157 53.416ZM264.851 76.964C264.967 76.442 264.851 75.92 264.967 75.456C265.141 75.05 265.025 74.586 265.199 74.18C265.489 73.252 265.547 72.324 265.663 71.338C265.779 70.758 265.721 70.12 265.779 69.54C265.895 68.96 265.953 68.322 266.011 67.742C266.069 67.278 266.185 66.872 266.301 66.408C266.417 65.828 266.359 65.248 266.475 64.668C266.533 64.146 266.649 63.624 266.707 63.102C266.765 62.464 266.823 61.71 266.997 61.072C267.171 60.608 267.519 60.318 267.519 59.796C267.519 59.448 267.403 58.23 267.693 58.056C268.041 57.882 268.969 58.23 269.317 58.288C269.955 58.404 270.651 58.52 271.289 58.636C272.449 58.81 273.667 58.926 274.827 59.042C277.147 59.274 279.351 59.622 281.671 59.97C283.875 60.26 286.311 60.55 288.399 61.362C288.805 61.536 289.211 61.652 289.559 61.768C290.197 61.942 290.371 62.29 290.429 62.87C290.487 63.276 290.487 63.624 290.487 63.972C290.545 64.61 290.545 65.19 290.487 65.828C290.487 67.046 290.487 68.264 290.429 69.482C290.429 70.12 290.255 70.7 290.197 71.28C290.139 71.918 290.139 72.556 290.081 73.136C289.965 74.47 290.197 75.688 290.197 76.964C290.255 78.124 290.139 79.284 290.139 80.444C290.081 80.966 290.023 81.488 289.965 81.952C289.907 82.184 289.965 82.474 289.907 82.706C289.849 82.996 289.617 83.054 289.443 83.286C289.327 83.46 289.269 83.75 289.327 83.924C289.443 84.388 289.269 83.982 289.559 84.156C289.617 84.214 289.733 84.156 289.849 84.272C290.081 84.62 288.921 84.62 288.747 84.62C287.529 84.736 286.311 84.736 285.093 84.852C284.513 84.91 283.875 84.968 283.237 85.084C282.773 85.142 282.019 85.548 281.729 84.968C281.497 84.504 281.671 83.808 281.671 83.286C281.729 82.648 281.787 82.01 281.787 81.372C281.845 80.734 281.845 80.154 281.845 79.516C281.903 78.82 281.903 78.182 281.845 77.486C281.787 76.906 281.903 76.326 281.903 75.746C281.961 75.166 281.903 74.586 281.903 74.006C281.903 72.788 281.729 71.512 281.845 70.294C281.961 69.018 281.845 67.742 281.903 66.466C281.903 66.06 282.193 65.074 281.845 64.784C281.671 64.668 281.207 64.726 280.975 64.726C280.627 64.726 280.221 64.668 279.873 64.668C278.539 64.61 277.263 64.378 275.987 64.088C275.407 63.972 274.827 63.856 274.247 63.798C273.841 63.74 272.913 63.45 272.565 63.624C272.217 63.798 272.391 64.9 272.391 65.248C272.333 65.886 272.159 66.582 272.159 67.22C272.101 68.322 271.927 69.424 271.811 70.526C271.695 71.57 271.695 72.614 271.695 73.658C271.695 74.296 271.579 74.934 271.579 75.63C271.521 76.21 271.637 76.79 271.579 77.428C271.521 78.008 271.521 78.588 271.521 79.168C271.463 79.748 271.521 80.212 271.579 80.792C271.695 81.952 271.695 83.17 271.637 84.33C271.579 84.852 271.521 85.432 271.521 85.954C271.521 86.244 271.405 86.592 271.463 86.882C271.463 86.998 271.695 87.288 271.637 87.462C271.521 87.926 270.651 87.288 270.477 87.172C269.897 86.824 269.259 86.708 268.679 86.534C267.519 86.128 266.359 85.78 265.199 85.49C264.619 85.316 264.155 85.374 264.097 84.678C263.981 84.04 263.923 83.402 263.981 82.764C263.981 82.126 264.039 81.488 264.097 80.908C264.155 80.56 264.213 80.27 264.271 79.922C264.271 79.748 264.561 79.342 264.561 79.11C264.561 78.878 264.445 78.704 264.503 78.53C264.561 78.414 264.677 78.414 264.735 78.298C264.851 78.182 264.793 77.892 264.851 77.718C264.851 77.37 264.967 77.196 264.851 76.964ZM322.595 84.446C322.595 84.678 322.769 85.142 322.537 85.316C322.305 85.548 321.725 85.432 321.435 85.432C320.971 85.432 320.565 85.548 320.101 85.606C319.637 85.664 319.173 85.606 318.709 85.664C317.781 85.722 316.911 85.78 316.041 86.012C315.577 86.128 315.113 86.128 314.591 86.186C314.069 86.186 313.605 86.244 313.083 86.302C312.097 86.418 311.111 86.534 310.183 86.476C309.197 86.36 308.211 86.36 307.341 86.012C306.935 85.896 306.471 85.78 306.065 85.606C305.891 85.548 305.659 85.374 305.485 85.374C305.253 85.316 305.021 85.49 304.789 85.606C304.789 85.316 304.615 85.2 304.383 85.2C304.267 85.2 304.151 85.258 304.035 85.2C303.803 85.2 303.629 85.2 303.397 85.2C303.107 85.2 302.817 85.2 302.469 85.142C302.121 85.026 301.773 84.91 301.425 84.736C301.135 84.62 300.845 84.504 300.613 84.33C300.323 84.156 300.149 84.214 300.091 83.866C300.033 83.576 299.975 83.228 299.975 82.938C299.917 82.59 300.033 82.184 300.091 81.836C300.091 80.386 299.975 78.936 299.859 77.486C299.801 77.196 299.685 76.906 299.627 76.616C299.627 76.268 299.627 75.978 299.511 75.63C299.395 74.934 299.395 74.238 299.279 73.6C299.163 72.962 299.163 72.324 299.163 71.744C299.163 71.396 299.163 71.048 299.163 70.7C299.163 70.294 299.047 69.888 299.047 69.482C298.989 69.134 299.105 68.786 299.105 68.438C299.105 68.032 299.163 67.626 299.105 67.278C299.105 66.93 299.221 66.64 299.221 66.35C299.279 65.944 299.279 65.538 299.279 65.19C299.395 64.436 299.453 63.682 299.453 62.986C299.453 62.58 299.511 62.232 299.569 61.826C299.569 61.478 299.511 61.072 299.511 60.666C299.511 60.376 299.627 60.028 299.627 59.738C299.627 59.332 299.627 58.926 299.627 58.52C299.627 57.824 299.801 57.128 299.801 56.432C299.801 56.084 299.917 55.678 299.975 55.33C299.975 54.924 299.975 54.518 299.975 54.112C300.033 53.706 300.033 53.3 300.091 52.894C300.091 52.488 300.149 52.314 300.497 52.14C300.845 52.024 301.309 51.966 301.657 51.966C302.063 51.908 302.469 52.024 302.875 52.14C303.281 52.256 303.687 52.256 304.035 52.372C304.441 52.488 304.731 52.662 305.079 52.778C305.137 52.604 305.137 52.488 305.195 52.372C305.195 52.198 305.195 52.14 305.311 52.082C305.659 51.85 305.601 52.256 305.601 52.488C305.601 52.546 305.601 52.778 305.601 52.836C305.659 52.894 305.949 52.894 306.007 52.952C306.297 53.068 306.239 53.242 306.413 53.474C306.529 53.59 306.529 53.59 306.703 53.59C306.819 53.59 306.935 53.59 307.051 53.59C307.341 53.59 307.573 53.59 307.863 53.59C308.501 53.648 309.081 53.706 309.719 53.822C310.183 53.88 310.647 53.996 311.111 54.054C311.691 54.112 312.155 53.996 312.735 53.996C313.895 53.996 315.055 53.88 316.215 54.054C316.737 54.112 317.375 54.112 317.897 54.344C318.071 54.402 318.303 54.46 318.361 54.576C318.477 54.866 318.361 55.33 318.361 55.562C318.361 56.142 318.245 56.664 318.245 57.244C318.245 57.592 318.361 57.94 318.013 58.114C317.781 58.172 317.491 58.172 317.259 58.23C316.969 58.288 316.679 58.346 316.389 58.404C315.867 58.462 315.287 58.404 314.707 58.462C314.475 58.52 314.185 58.52 313.895 58.578C313.663 58.636 313.431 58.578 313.199 58.52C312.561 58.52 311.981 58.578 311.343 58.462C310.763 58.404 310.241 58.288 309.719 58.114C309.081 57.882 308.501 57.824 307.863 57.766C307.341 57.708 306.819 57.592 306.297 57.534C306.123 57.534 305.427 57.476 305.137 57.36C305.137 57.65 305.079 57.94 305.079 58.23C305.079 58.868 305.137 59.564 305.195 60.144C305.195 60.492 305.195 60.84 305.195 61.13C305.195 61.478 305.253 61.768 305.253 62.116C306.239 62.58 307.457 62.348 308.501 62.29C309.023 62.29 309.545 62.406 310.125 62.406C310.763 62.406 311.343 62.406 311.981 62.522C312.503 62.58 313.083 62.638 313.605 62.696C313.895 62.754 314.185 62.754 314.475 62.754C314.591 62.754 314.765 62.812 314.881 62.812C315.055 62.812 315.171 62.754 315.345 62.812C315.577 62.812 315.751 62.87 315.983 62.928C316.273 62.928 316.563 62.928 316.853 62.928C317.143 62.928 317.433 62.986 317.723 62.986C318.071 63.044 318.477 62.986 318.767 63.102C319.231 63.276 319.057 63.74 319.057 64.146C319.057 64.726 319.057 65.306 319.057 65.886C318.999 67.104 318.825 68.322 318.941 69.482C318.941 69.598 319.057 70.062 318.941 70.12C318.825 70.294 318.245 70.178 318.129 70.178C317.433 70.12 316.795 70.062 316.099 70.004C314.881 69.83 313.721 69.656 312.503 69.656C311.169 69.656 310.009 69.018 308.733 68.96C308.501 68.96 308.211 68.96 307.921 68.96C307.573 68.902 307.283 68.844 306.935 68.786C306.587 68.786 306.239 68.786 305.949 68.728C305.659 68.728 305.369 68.612 305.079 68.554C305.079 69.424 305.195 70.294 305.195 71.164C305.195 71.628 305.253 72.034 305.311 72.498C305.369 72.962 305.369 73.484 305.485 73.948C305.485 74.122 305.601 74.238 305.601 74.412C305.659 74.644 305.601 74.818 305.601 75.05C305.543 75.514 305.659 75.92 305.601 76.384C305.543 77.196 305.311 78.066 305.485 78.878C305.543 79.11 305.369 79.4 305.427 79.574C305.485 79.748 305.543 79.69 305.775 79.748C306.239 79.748 306.703 79.806 307.225 79.806C307.979 79.806 308.791 79.98 309.545 80.096C309.951 80.096 310.299 80.27 310.647 80.27C311.053 80.386 311.459 80.502 311.865 80.502C312.793 80.502 313.721 80.56 314.649 80.56C315.113 80.56 315.577 80.444 315.983 80.502C316.389 80.618 316.737 80.56 317.143 80.56C317.549 80.56 317.897 80.676 318.303 80.618C318.535 80.56 318.767 80.56 318.999 80.56C319.231 80.56 319.521 80.444 319.753 80.386C320.159 80.27 320.565 80.212 320.913 80.154C321.145 80.096 321.319 80.096 321.551 80.096C321.783 80.096 322.015 79.98 322.247 79.922C322.653 79.922 322.537 80.328 322.479 80.618C322.421 81.14 322.421 81.604 322.421 82.068C322.479 82.88 322.479 83.634 322.595 84.446ZM305.833 53.3C305.427 53.126 305.427 53.59 305.427 53.822C305.601 53.764 306.065 53.822 306.123 53.648C306.123 53.532 305.949 53.358 305.833 53.3ZM338.72 64.552C338.546 64.378 338.662 64.146 338.662 63.972C338.72 63.682 338.778 63.334 338.836 63.044C338.836 62.812 338.778 62.754 338.546 62.754C337.966 62.754 337.328 62.638 336.748 62.522C335.994 62.406 335.298 62.29 334.544 62.174C334.196 62.116 333.79 62 333.442 61.942C333.094 61.884 332.746 61.826 332.398 61.768C332.05 61.71 331.644 61.652 331.296 61.594C331.006 61.594 330.658 61.536 330.368 61.478C330.02 61.42 329.846 61.188 329.904 60.84C329.904 60.608 329.962 60.434 329.962 60.26C329.904 59.912 329.962 59.564 330.02 59.216V59.158C330.02 58.868 330.02 58.636 330.02 58.404C330.02 58.114 329.962 57.882 329.846 57.65C329.73 57.36 329.614 57.012 329.498 56.722C329.44 56.548 329.44 56.374 329.44 56.2C329.44 55.91 329.44 55.562 329.44 55.272C329.44 54.866 329.44 54.46 329.44 54.054C329.44 53.648 329.44 53.3 329.44 52.894C329.44 52.778 329.498 52.662 329.614 52.72C329.788 52.72 329.904 52.778 330.078 52.836C330.368 52.952 330.716 53.184 331.064 53.3C331.354 53.416 331.644 53.59 331.934 53.706C332.282 53.822 332.688 53.938 333.036 54.054C333.442 54.112 333.848 54.228 334.254 54.344C334.834 54.46 335.414 54.46 335.994 54.286C336.052 54.286 336.11 54.286 336.168 54.286C336.574 54.228 336.922 54.17 337.328 54.112C337.734 54.112 338.14 54.054 338.546 54.054C338.894 53.996 339.242 53.996 339.59 53.938C339.822 53.938 340.054 53.938 340.228 53.88C340.402 53.88 340.576 53.88 340.75 53.822C340.808 53.822 340.924 53.88 340.924 53.88C341.098 53.88 341.214 53.822 341.33 53.822C341.446 53.822 341.62 53.764 341.736 53.764C342.258 53.764 342.722 53.706 343.186 53.822C343.302 53.88 343.592 53.822 343.592 53.706C344.578 53.648 345.622 53.648 346.608 53.59C346.608 53.648 346.724 53.648 346.84 53.532C347.594 53.532 348.406 53.474 349.16 53.474C349.276 53.416 349.392 53.474 349.508 53.474C349.508 53.474 349.566 53.474 349.624 53.474C349.914 53.358 350.204 53.474 350.436 53.474C350.494 53.474 350.61 53.474 350.668 53.474C350.9 53.59 351.016 53.822 350.9 54.112C350.726 54.402 350.726 54.75 350.726 55.04C350.668 55.098 350.726 55.156 350.668 55.214C350.552 55.446 350.552 55.736 350.494 56.026C350.436 56.026 350.436 56.084 350.436 56.084C350.436 56.432 350.494 56.78 350.494 57.07C350.494 57.128 350.494 57.128 350.494 57.128C350.436 57.65 350.32 58.114 350.262 58.636C350.204 58.984 350.204 59.39 350.204 59.796C350.204 59.97 350.146 60.144 350.146 60.26C350.146 60.55 350.088 60.782 350.146 61.072C350.204 61.42 350.204 61.826 350.262 62.174C350.262 62.232 350.262 62.232 350.262 62.29C350.262 62.406 350.378 62.464 350.262 62.58C350.146 62.638 350.03 62.696 349.914 62.696C349.682 62.696 349.45 62.696 349.276 62.638C349.218 62.638 349.16 62.638 349.102 62.638C348.638 62.754 348.116 62.638 347.652 62.696C347.362 62.696 347.072 62.696 346.782 62.696C346.608 62.696 346.376 62.696 346.202 62.754C345.854 62.812 345.564 62.812 345.216 62.87C345.1 62.87 344.984 62.928 344.868 62.928C344.52 62.87 344.172 62.87 343.766 62.87C343.592 62.87 343.418 62.87 343.186 62.87C343.128 63.102 343.128 63.334 343.128 63.624C343.128 63.74 343.07 63.914 343.07 64.088C343.07 64.494 343.012 64.9 342.954 65.306C342.954 65.538 342.896 65.77 342.838 66.002C342.838 66.118 342.838 66.292 342.78 66.408C342.78 66.872 342.78 67.278 342.722 67.742C342.722 68.032 342.664 68.322 342.664 68.612C342.664 69.25 342.548 69.888 342.432 70.584C342.316 71.222 342.2 71.918 342.2 72.672C342.2 73.078 342.142 73.484 342.084 73.89C342.084 74.122 342.084 74.412 342.084 74.702C342.084 74.992 342.084 75.282 342.084 75.572C342.026 76.384 341.852 77.254 341.852 78.066C341.852 78.588 341.852 79.11 341.794 79.632C341.794 80.386 341.736 81.14 341.562 81.836C341.562 82.01 341.504 82.184 341.446 82.358C341.388 82.648 341.388 82.938 341.33 83.228C341.272 83.634 341.214 84.098 341.214 84.504C341.156 84.678 341.156 84.794 341.156 84.968C341.156 85.142 341.156 85.2 340.924 85.2C340.286 85.142 339.59 85.084 338.952 85.026C338.604 84.968 338.256 84.91 337.966 84.852C337.85 84.852 337.734 84.852 337.676 84.852C337.444 84.852 337.444 84.852 337.444 85.084C337.444 85.2 337.444 85.258 337.27 85.316C337.154 85.316 337.038 85.2 336.98 85.142C336.806 84.852 336.864 84.62 336.922 84.33C336.98 84.04 336.864 83.75 336.806 83.46C336.748 83.402 336.748 83.344 336.748 83.286C336.748 82.996 336.806 82.648 336.806 82.358C336.748 82.126 336.748 81.836 336.748 81.604C336.806 81.198 336.806 80.792 336.864 80.386C336.864 79.98 336.864 79.632 336.922 79.284C336.922 78.994 336.98 78.704 336.98 78.414C336.98 78.008 337.212 77.602 337.096 77.196C337.212 76.79 337.154 76.442 337.212 76.036C337.27 75.746 337.328 75.514 337.27 75.224C337.212 75.05 337.27 74.818 337.212 74.644C337.212 74.586 337.212 74.528 337.212 74.528C337.444 74.296 337.386 73.948 337.386 73.716C337.502 73.02 337.56 72.324 337.676 71.628C337.676 71.57 337.676 71.512 337.676 71.512C337.56 71.28 337.618 71.048 337.734 70.816C337.85 70.468 337.85 70.178 337.908 69.83C337.908 69.424 338.024 69.018 338.082 68.612C338.14 68.38 338.198 68.148 338.198 67.916C338.14 67.742 338.198 67.51 338.256 67.336C338.256 67.046 338.314 66.814 338.372 66.582C338.43 66.35 338.488 66.176 338.488 66.002C338.546 65.77 338.546 65.538 338.546 65.306C338.604 65.132 338.662 64.958 338.604 64.784C338.604 64.726 338.662 64.61 338.72 64.552ZM362.318 63.798C362.434 63.74 362.666 63.74 362.724 63.508C362.724 63.276 362.376 63.392 362.318 63.218C362.202 63.044 362.434 62.812 362.434 62.638C362.492 62.464 362.434 62.232 362.492 62.058C362.55 61.594 362.724 61.188 362.84 60.724C363.014 60.202 363.072 60.028 363.594 59.854C364.522 59.506 365.45 59.448 366.32 59.158C366.9 58.984 367.538 58.81 368.118 58.694C368.698 58.578 369.278 58.694 369.858 58.81C371.134 59.042 372.468 59.042 373.744 59.158C375.02 59.216 376.238 59.274 377.456 59.274C378.79 59.274 380.008 59.332 381.284 59.738C381.69 59.854 381.98 59.854 382.038 60.318C382.096 60.55 381.922 60.666 381.922 60.898C381.922 61.13 382.212 61.13 381.98 61.478C381.922 61.362 381.864 61.246 381.864 61.188C381.632 61.304 381.922 61.536 381.98 61.652C381.98 61.826 381.98 62.058 381.922 62.29C381.922 62.986 381.806 63.566 381.748 64.262C381.69 64.842 381.806 65.422 381.864 66.06C381.922 66.698 381.922 67.394 382.038 68.09C382.386 70.294 382.386 72.614 382.618 74.876C382.792 76.094 382.85 77.312 383.024 78.53C383.198 79.69 383.546 80.908 383.662 82.068C383.778 83.112 383.778 84.098 383.72 85.142C383.72 85.722 383.778 86.302 383.662 86.882C383.662 87.346 383.43 88.738 383.488 89.086C383.488 89.376 383.72 89.666 383.43 89.84C383.256 89.956 382.966 89.782 382.734 89.724C382.502 89.666 382.038 89.434 381.864 89.608C381.69 89.376 381.69 89.492 381.458 89.434C381.4 89.434 381.284 89.434 381.226 89.434C381.168 89.26 381.11 89.144 380.994 89.028C380.936 89.028 380.878 89.086 380.936 89.202C380.414 89.086 379.37 88.622 378.848 88.912C378.79 88.506 378.848 88.158 378.79 87.752C378.732 87.23 378.674 86.708 378.616 86.128C378.442 85.142 378.268 84.156 378.094 83.17C377.92 82.242 378.152 81.256 377.978 80.27C377.862 79.226 377.688 78.182 377.63 77.138C377.514 74.992 377.282 72.846 377.05 70.7C376.934 69.598 376.876 68.496 376.702 67.394C376.586 66.292 376.354 65.248 376.354 64.146C376.354 63.624 376.354 63.102 376.296 62.58C376.238 61.884 375.89 62 375.31 61.942C374.266 61.884 373.28 61.768 372.294 61.826C371.192 61.942 370.032 62.058 368.93 62.058C367.886 62.116 366.9 61.826 365.798 61.942C365.392 62 365.218 62.058 365.218 62.522C365.16 63.044 365.276 63.624 365.218 64.146C365.102 65.19 364.986 66.176 364.928 67.162C364.87 69.25 364.464 71.28 364.406 73.368C364.348 75.746 363.826 78.066 363.536 80.444C363.362 81.604 363.014 82.706 362.434 83.692C362.144 84.156 361.912 84.562 361.506 84.91C361.158 85.2 360.694 85.432 360.462 85.838C362.202 86.128 363.942 86.36 365.74 86.418C366.204 86.418 366.61 86.36 367.132 86.244C367.306 86.186 367.886 86.012 368.002 86.244C368.176 86.476 367.306 86.534 367.132 86.534C366.668 86.65 366.262 86.766 365.856 86.766C364.116 86.824 362.434 86.418 360.752 86.244C359.882 86.186 358.954 86.186 358.084 86.07C357.446 85.954 356.228 86.012 355.764 85.49C355.996 85.258 356.286 85.258 356.634 85.258C356.17 85.2 355.938 85.258 355.938 84.794C355.938 84.562 355.996 84.04 356.344 84.098C355.938 83.924 356.286 83.228 356.286 82.88C356.286 82.358 356.344 81.894 356.46 81.43C356.46 81.256 356.576 81.082 356.576 80.908C356.634 80.618 356.518 80.386 356.576 80.096C356.692 79.69 356.75 79.168 356.866 78.762C357.156 77.95 358.084 77.196 358.722 76.674C359.36 76.094 359.766 75.456 360.23 74.818C360.52 74.412 360.636 73.948 360.81 73.542C360.984 73.078 361.216 72.614 361.39 72.15C361.448 71.86 361.564 71.454 361.564 71.164C361.506 70.7 361.622 70.236 361.68 69.772C361.796 69.25 362.086 68.728 362.144 68.206C362.202 67.742 362.144 67.394 362.144 66.93C362.086 66.35 362.202 65.828 362.318 65.306C362.434 64.784 362.318 64.32 362.318 63.798ZM426.801 75.63C427.149 76.268 426.975 76.964 426.859 77.66C426.859 78.008 426.743 78.414 426.801 78.762C426.917 79.284 426.743 79.69 426.685 80.212C426.627 80.908 426.337 81.604 426.047 82.3C425.989 82.59 425.873 82.938 425.815 83.228C425.641 83.982 425.119 84.562 424.829 85.2C424.539 85.722 424.191 86.128 423.785 86.476C423.205 86.998 422.567 87.462 421.929 87.81C421.349 88.158 420.827 88.622 420.247 88.912C419.783 89.26 419.261 89.434 418.739 89.666C418.043 90.014 417.347 90.13 416.651 90.188C415.781 90.304 414.969 90.478 414.157 90.246C413.635 90.13 413.171 90.014 412.707 89.724C412.301 89.492 411.895 89.318 411.547 89.144C411.141 88.912 410.735 88.738 410.329 88.506C410.271 88.506 410.213 88.448 410.155 88.39C409.923 88.158 409.633 87.868 409.343 87.694C408.937 87.404 408.531 87.114 408.183 86.708C407.777 86.244 407.429 85.664 406.907 85.258C406.559 84.968 406.327 84.562 405.979 84.272C405.863 84.098 405.805 83.924 405.689 83.75C405.457 83.17 405.225 82.59 405.051 82.01C404.819 81.488 404.761 80.908 404.645 80.328C404.529 79.516 404.413 78.646 404.239 77.776C404.181 77.312 404.065 76.848 404.007 76.384C403.427 76.384 402.905 76.384 402.325 76.384C402.035 76.384 401.687 76.326 401.397 76.21C401.049 76.094 400.759 76.152 400.411 76.152C400.121 76.152 399.831 76.094 399.599 76.094C399.425 76.094 399.309 76.094 399.193 76.152C399.077 76.21 399.019 76.326 398.961 76.384C398.903 77.08 398.787 77.776 398.787 78.472C398.729 79.11 398.787 79.69 398.729 80.328C398.671 81.198 398.613 82.126 398.555 82.996C398.555 83.75 398.439 84.446 398.613 85.2C398.671 85.548 398.555 85.722 398.207 85.78C397.453 85.896 396.699 86.07 395.945 86.244C395.191 86.36 394.437 86.534 393.683 86.592C393.393 86.592 393.103 86.592 392.755 86.534C392.233 86.476 391.769 86.244 391.305 85.954C391.247 85.896 391.131 85.838 391.131 85.722C391.073 85.316 390.957 84.91 390.957 84.446C390.957 84.272 391.073 84.04 391.131 83.866C390.957 83.692 390.957 83.518 391.015 83.228C391.073 83.054 391.015 82.822 391.073 82.59C391.073 82.3 391.131 82.01 391.189 81.72C391.189 81.604 391.247 81.488 391.131 81.372C391.073 81.314 391.073 81.198 391.073 81.082C391.247 80.56 391.305 79.98 391.363 79.4C391.421 79.052 391.479 78.762 391.595 78.472C391.711 78.24 391.711 78.066 391.711 77.834C391.711 77.602 391.653 77.37 391.769 77.196C391.943 76.674 391.943 76.152 392.001 75.688C392.001 75.514 392.059 75.398 392.059 75.224C392.059 75.108 392.059 74.934 392.117 74.818C392.117 74.702 392.117 74.644 392.117 74.528C392.175 74.528 392.175 74.47 392.175 74.47C391.943 74.122 392.291 73.716 392.175 73.368C392.117 73.252 392.175 73.078 392.233 72.962C392.407 72.672 392.349 72.324 392.349 71.976C392.349 71.57 392.407 71.164 392.407 70.758C392.407 70.352 392.523 70.004 392.581 69.598C392.639 68.902 392.697 68.264 392.813 67.568C392.929 66.756 392.813 65.944 392.755 65.132C392.755 64.958 392.697 64.784 392.755 64.61C392.813 63.914 392.871 63.218 392.871 62.522C392.871 62.29 393.045 62.058 393.161 61.884C393.219 61.768 393.277 61.652 393.161 61.478C393.161 61.478 393.161 61.362 393.161 61.304C393.219 60.956 393.335 60.608 393.393 60.26C393.509 59.912 393.567 59.564 393.335 59.158C393.683 59.158 393.857 59.1 394.089 59.1C394.321 59.448 394.031 59.796 394.147 60.144C394.437 60.028 394.727 59.912 394.959 59.796C395.655 59.622 396.293 59.68 396.989 59.854C397.685 60.028 398.381 60.26 399.135 60.434C399.483 60.55 399.657 60.724 399.773 61.13C399.831 61.42 399.889 61.652 399.947 61.942C399.947 62 400.005 62.058 400.005 62.116C399.947 62.986 399.947 63.914 399.947 64.784C399.889 65.306 399.831 65.77 399.773 66.292C399.715 66.988 399.715 67.626 399.657 68.322C399.599 68.612 399.541 68.844 399.483 69.134C399.483 69.25 399.483 69.366 399.483 69.54C401.281 69.54 402.963 69.83 404.587 70.526C404.703 70.178 404.761 69.83 404.877 69.482C404.993 69.018 405.109 68.496 405.283 67.974C405.283 67.916 405.283 67.858 405.283 67.8C405.341 67.568 405.399 67.394 405.457 67.162C405.457 67.046 405.515 66.93 405.573 66.814C405.689 66.408 405.805 65.944 405.979 65.538C406.153 65.248 406.269 64.9 406.385 64.552C406.443 64.262 406.617 63.972 406.675 63.624C406.733 63.508 406.791 63.334 406.791 63.218C406.791 62.754 406.965 62.406 407.255 62.058C407.313 61.884 407.429 61.768 407.545 61.536C407.371 61.536 407.313 61.536 407.255 61.536C407.139 61.478 407.023 61.42 406.907 61.362C407.023 61.246 407.081 61.13 407.197 61.072C407.313 60.956 407.487 60.956 407.661 60.898C407.835 60.898 408.009 60.84 408.241 60.782C408.415 60.724 408.589 60.666 408.821 60.608C409.111 60.55 409.459 60.434 409.807 60.376C409.981 60.376 410.155 60.376 410.329 60.376C410.793 60.318 411.257 60.318 411.721 60.26C412.475 60.26 413.229 60.26 413.925 60.26C414.563 60.318 415.143 60.492 415.781 60.666C416.129 60.782 416.477 60.84 416.825 61.014C417.637 61.362 418.449 61.768 419.203 62.232C419.609 62.464 419.957 62.812 420.305 63.16C420.479 63.276 420.595 63.392 420.769 63.508C421.117 63.856 421.523 64.204 421.929 64.494C421.987 64.552 422.103 64.668 422.103 64.726C422.335 65.074 422.451 65.364 422.683 65.654C422.741 65.77 422.799 65.886 422.915 66.002C422.915 66.06 423.031 66.118 423.031 66.176C423.089 66.524 423.263 66.698 423.495 66.872C424.133 67.336 424.481 68.032 424.829 68.728C424.829 68.844 424.887 68.96 425.003 69.018C425.467 69.598 425.641 70.178 425.757 70.874C425.757 71.048 425.815 71.164 425.873 71.28C426.047 71.918 426.221 72.556 426.395 73.252C426.453 73.542 426.511 73.89 426.569 74.238C426.685 74.702 426.743 75.108 426.801 75.514C426.801 75.572 426.801 75.572 426.801 75.63ZM422.625 76.558C422.741 76.21 422.799 75.746 422.799 75.34C422.741 74.528 422.625 73.658 422.567 73.02C422.625 72.324 422.625 71.918 422.451 71.454C422.219 71.048 422.045 70.642 421.929 70.236C421.639 69.482 421.465 68.67 421.059 67.916C421.001 67.8 421.001 67.626 420.943 67.51C420.421 66.582 419.609 66.002 418.739 65.538C418.101 65.248 417.521 64.958 416.825 64.726C416.593 64.61 416.245 64.61 415.955 64.726C415.723 64.784 415.607 64.842 415.375 64.726C415.201 64.61 415.027 64.494 414.795 64.436C414.621 64.378 414.389 64.32 414.215 64.262C413.983 64.204 413.809 64.146 413.635 64.146C413.345 64.146 413.113 64.146 412.881 64.204C412.301 64.494 411.779 64.784 411.199 65.132C410.677 65.48 410.097 65.886 409.575 66.35C409.343 66.524 409.111 66.756 408.995 67.104C408.937 67.452 408.589 67.742 408.589 68.148L408.531 68.206C408.473 68.38 408.473 68.496 408.415 68.612C408.357 68.96 408.241 69.308 408.183 69.656C408.125 69.83 408.067 70.062 408.009 70.236C407.777 70.758 407.893 71.396 407.603 71.976C407.545 72.034 407.545 72.092 407.545 72.15C407.545 72.498 407.487 72.846 407.429 73.136C407.371 73.6 407.429 74.006 407.661 74.354C407.951 74.818 408.241 75.34 408.589 75.804C408.647 75.92 408.763 76.036 408.879 76.21C409.053 76.442 409.227 76.674 409.459 76.906C409.575 77.022 409.749 77.08 409.865 77.196C410.155 77.486 410.445 77.834 410.735 78.124C411.199 78.588 411.605 79.11 412.069 79.574C412.533 80.038 412.997 80.502 413.577 80.85C413.925 81.024 414.273 81.198 414.621 81.314C415.143 81.488 415.607 81.836 416.187 81.836C416.477 81.836 416.825 81.894 417.115 81.894C417.347 81.894 417.637 81.836 417.927 81.778C418.449 81.662 419.029 81.488 419.435 81.082C419.841 80.734 420.189 80.328 420.653 80.038C421.117 79.632 421.407 79.168 421.755 78.704C422.277 78.066 422.451 77.37 422.625 76.558ZM499.836 86.998C500.01 87.23 500.416 87.23 500.706 87.288C500.3 87.636 499.836 87.462 499.372 87.346C498.676 87.23 498.038 87.172 497.342 86.998C496.066 86.708 494.848 86.244 493.572 85.954C492.992 85.838 492.354 85.722 491.774 85.548C491.484 85.49 491.31 85.432 491.02 85.432C490.846 85.432 490.15 85.432 490.382 85.142C490.44 84.968 490.962 84.91 491.136 84.852C491.368 84.736 491.6 84.562 491.832 84.446C492.412 84.04 492.934 83.634 493.398 83.17C494.384 82.358 495.544 81.894 496.646 81.198C497.516 80.618 496.994 79.574 496.182 79.342C494.906 78.936 493.746 78.472 492.47 78.182C491.252 77.892 489.976 77.544 488.758 77.428C487.366 77.254 486.032 77.08 484.698 76.732C484.118 76.558 483.48 76.442 482.842 76.326C482.552 76.268 482.204 76.21 481.914 76.094C481.624 75.978 481.276 75.804 480.986 75.746C479.826 75.514 478.666 75.166 477.564 74.934C476.926 74.876 476.346 74.818 475.766 74.644C475.186 74.528 474.548 74.47 473.968 74.296C472.866 74.006 471.706 73.832 470.604 73.658C470.314 73.6 470.082 73.484 469.85 73.426C469.56 73.368 469.27 73.368 468.98 73.31C468.69 73.31 468.458 73.194 468.168 73.136C467.82 73.02 467.414 73.02 467.066 72.962C465.848 72.73 464.63 72.498 463.354 72.382C463.238 72.324 462.89 72.15 462.716 72.266C462.6 72.382 462.774 72.614 462.89 72.672C463.064 72.846 463.18 72.962 463.354 73.136C463.528 73.368 463.76 73.658 463.992 73.89C464.456 74.354 464.746 74.992 465.21 75.456C465.674 75.978 466.08 76.558 466.486 77.08C466.95 77.66 467.356 78.24 467.704 78.878C467.878 79.11 468.052 79.284 468.226 79.458C468.458 79.69 468.516 79.98 468.69 80.212C469.096 80.618 469.444 81.082 469.85 81.488C470.024 81.72 470.198 81.894 470.43 82.01C470.72 82.184 470.836 82.358 471.068 82.59C471.3 82.822 471.59 82.996 471.822 83.112C471.938 83.17 472.054 83.286 472.17 83.344C472.344 83.402 472.518 83.344 472.634 83.402C472.924 83.518 472.982 83.634 472.75 83.808C472.692 83.866 472.518 83.866 472.518 83.924C472.46 83.982 472.46 84.272 472.46 84.33C472.286 84.214 472.112 84.156 471.938 84.04C471.764 83.924 471.706 83.75 471.474 83.692C471.126 83.576 470.604 83.634 470.198 83.576C469.734 83.576 469.27 83.576 468.806 83.46C468.342 83.402 467.936 83.46 467.472 83.402C466.718 83.228 465.906 83.228 465.094 83.112C464.63 83.054 464.224 83.054 463.818 83.054C463.586 82.996 463.354 82.938 463.122 82.88C463.006 82.822 462.89 82.764 462.716 82.88C462.542 83.054 462.542 83.518 462.484 83.75C462.368 84.098 462.078 84.504 461.904 83.982C461.73 83.576 461.962 83.402 462.078 83.054C462.136 82.764 462.02 82.764 461.788 82.59C461.672 82.532 461.324 82.358 461.556 82.184C461.788 82.068 461.904 82.3 462.02 82.3C462.136 82.3 462.252 82.068 462.31 82.01C462.31 81.952 462.31 81.836 462.31 81.778C462.368 81.72 462.426 81.72 462.484 81.662C462.658 81.488 462.6 81.372 462.658 81.14C462.774 80.792 463.006 80.676 463.18 80.444C463.238 80.27 463.238 80.154 463.354 79.98C463.47 79.806 463.644 79.69 463.76 79.458C463.934 79.11 464.05 78.704 464.282 78.298C464.514 77.95 464.804 77.718 464.978 77.37C465.036 77.196 465.094 76.964 465.21 76.906C465.326 76.79 465.5 76.848 465.5 76.616C465.558 76.326 464.978 75.862 464.804 75.63C464.514 75.34 464.34 74.992 464.05 74.702C463.76 74.354 463.47 74.006 463.18 73.658C462.948 73.31 462.658 72.904 462.368 72.614C462.194 72.44 462.02 72.266 461.846 72.15C461.788 72.092 461.672 72.034 461.614 71.976C461.44 71.86 461.382 71.802 461.498 71.686C461.614 71.512 461.73 71.57 461.846 71.512C462.078 71.454 462.136 71.396 462.252 71.222C462.542 70.874 462.716 70.584 462.948 70.12C463.064 69.83 463.412 69.772 463.586 69.482C463.76 69.076 463.992 68.728 464.224 68.322C464.398 68.032 464.572 67.684 464.688 67.394C464.862 67.104 464.92 67.104 465.21 67.104C465.442 67.104 465.732 67.162 465.964 67.22C466.834 67.336 467.704 67.452 468.574 67.742C469.038 67.858 469.444 68.032 469.908 68.206C470.314 68.322 470.778 68.438 471.242 68.612C472.054 68.902 472.924 68.96 473.736 69.25C474.084 69.366 474.2 69.424 474.49 69.076C474.606 68.96 474.722 68.786 474.838 68.67C474.896 68.612 475.012 68.554 475.012 68.554C475.07 68.496 475.012 68.38 475.07 68.38C475.244 68.09 475.418 67.858 475.592 67.568C475.882 67.22 476.056 66.872 476.23 66.466C477.042 65.074 477.796 63.682 478.666 62.29C478.84 61.942 479.13 61.536 479.304 61.188C479.42 60.84 479.594 60.55 479.826 60.26C480 59.912 480.116 59.564 480.29 59.216C480.406 59.042 480.464 58.868 480.58 58.636C480.696 58.462 480.696 58.346 480.754 58.172C480.87 57.882 481.218 57.592 481.392 57.302C481.566 57.012 481.74 56.78 481.972 56.49C482.204 56.258 482.32 55.852 482.494 55.562C482.668 55.272 483.016 55.156 483.132 54.808C483.19 54.634 483.132 54.634 483.364 54.634C483.48 54.634 483.712 54.692 483.828 54.808C484.118 55.098 484.06 55.736 484.118 56.084C484.292 57.012 484.524 57.94 484.64 58.868C484.698 59.332 484.756 59.68 484.872 60.144C485.046 60.55 485.104 61.014 485.162 61.478C485.162 61.884 485.22 62.348 485.22 62.754C485.278 63.218 485.394 63.624 485.452 64.088C485.626 65.886 486.032 67.684 486.264 69.482C486.322 69.946 486.438 70.41 486.612 70.874C486.67 71.106 486.728 71.744 486.96 71.918C487.25 72.092 487.888 72.034 488.178 72.034C488.7 72.092 489.164 72.092 489.628 72.208C491.484 72.498 493.34 72.672 495.196 73.02C496.066 73.194 496.994 73.368 497.922 73.484C498.328 73.542 498.792 73.6 499.198 73.658C499.546 73.716 500.126 73.716 500.358 74.064C500.59 74.296 500.416 74.818 500.416 75.108C500.358 75.63 500.358 76.152 500.358 76.674C500.358 77.08 500.358 77.544 500.358 77.95C500.3 78.182 500.3 78.356 500.3 78.53C500.358 78.704 500.416 78.936 500.358 79.11C500.3 79.226 500.242 79.284 500.184 79.4C500.126 79.516 500.068 79.69 500.01 79.806C499.952 79.922 499.894 80.096 499.836 80.154C499.72 80.328 499.72 80.27 499.488 80.212C499.488 80.212 499.488 80.154 499.546 80.154C499.256 80.386 498.792 80.618 498.502 80.734C498.27 80.85 497.864 80.908 497.69 81.198C497.574 81.546 497.748 82.068 497.806 82.358C497.864 82.764 497.922 83.228 498.038 83.692C498.328 84.504 498.734 85.258 499.198 86.012C499.256 86.186 499.43 86.36 499.546 86.534C499.604 86.65 499.662 86.882 499.836 86.998ZM482.61 67.162C482.494 66.814 482.61 66.408 482.552 66.002C482.552 65.596 482.436 65.19 482.436 64.784C482.378 64.436 482.378 64.03 482.262 63.682C482.146 63.392 482.03 62.928 481.74 62.928C481.276 64.204 480.638 65.422 480.058 66.698C479.768 67.336 479.478 67.974 479.246 68.67C479.13 69.018 479.014 69.366 478.898 69.714C478.84 69.946 478.55 70.526 478.724 70.7C478.898 70.874 479.536 70.932 479.768 70.99C480.116 71.048 480.464 71.164 480.87 71.222C481.218 71.28 481.624 71.338 481.972 71.396C482.146 71.454 482.32 71.454 482.436 71.454C482.552 71.454 482.61 71.454 482.668 71.454C482.9 71.454 482.842 71.512 482.9 71.338C483.016 71.106 483.016 70.642 483.016 70.41C482.958 70.062 482.842 69.714 482.842 69.308C482.784 68.96 482.726 68.554 482.726 68.206C482.668 67.858 482.726 67.51 482.61 67.162ZM513.039 63.798C513.155 63.74 513.387 63.74 513.445 63.508C513.445 63.276 513.097 63.392 513.039 63.218C512.923 63.044 513.155 62.812 513.155 62.638C513.213 62.464 513.155 62.232 513.213 62.058C513.271 61.594 513.445 61.188 513.561 60.724C513.735 60.202 513.793 60.028 514.315 59.854C515.243 59.506 516.171 59.448 517.041 59.158C517.621 58.984 518.259 58.81 518.839 58.694C519.419 58.578 519.999 58.694 520.579 58.81C521.855 59.042 523.189 59.042 524.465 59.158C525.741 59.216 526.959 59.274 528.177 59.274C529.511 59.274 530.729 59.332 532.005 59.738C532.411 59.854 532.701 59.854 532.759 60.318C532.817 60.55 532.643 60.666 532.643 60.898C532.643 61.13 532.933 61.13 532.701 61.478C532.643 61.362 532.585 61.246 532.585 61.188C532.353 61.304 532.643 61.536 532.701 61.652C532.701 61.826 532.701 62.058 532.643 62.29C532.643 62.986 532.527 63.566 532.469 64.262C532.411 64.842 532.527 65.422 532.585 66.06C532.643 66.698 532.643 67.394 532.759 68.09C533.107 70.294 533.107 72.614 533.339 74.876C533.513 76.094 533.571 77.312 533.745 78.53C533.919 79.69 534.267 80.908 534.383 82.068C534.499 83.112 534.499 84.098 534.441 85.142C534.441 85.722 534.499 86.302 534.383 86.882C534.383 87.346 534.151 88.738 534.209 89.086C534.209 89.376 534.441 89.666 534.151 89.84C533.977 89.956 533.687 89.782 533.455 89.724C533.223 89.666 532.759 89.434 532.585 89.608C532.411 89.376 532.411 89.492 532.179 89.434C532.121 89.434 532.005 89.434 531.947 89.434C531.889 89.26 531.831 89.144 531.715 89.028C531.657 89.028 531.599 89.086 531.657 89.202C531.135 89.086 530.091 88.622 529.569 88.912C529.511 88.506 529.569 88.158 529.511 87.752C529.453 87.23 529.395 86.708 529.337 86.128C529.163 85.142 528.989 84.156 528.815 83.17C528.641 82.242 528.873 81.256 528.699 80.27C528.583 79.226 528.409 78.182 528.351 77.138C528.235 74.992 528.003 72.846 527.771 70.7C527.655 69.598 527.597 68.496 527.423 67.394C527.307 66.292 527.075 65.248 527.075 64.146C527.075 63.624 527.075 63.102 527.017 62.58C526.959 61.884 526.611 62 526.031 61.942C524.987 61.884 524.001 61.768 523.015 61.826C521.913 61.942 520.753 62.058 519.651 62.058C518.607 62.116 517.621 61.826 516.519 61.942C516.113 62 515.939 62.058 515.939 62.522C515.881 63.044 515.997 63.624 515.939 64.146C515.823 65.19 515.707 66.176 515.649 67.162C515.591 69.25 515.185 71.28 515.127 73.368C515.069 75.746 514.547 78.066 514.257 80.444C514.083 81.604 513.735 82.706 513.155 83.692C512.865 84.156 512.633 84.562 512.227 84.91C511.879 85.2 511.415 85.432 511.183 85.838C512.923 86.128 514.663 86.36 516.461 86.418C516.925 86.418 517.331 86.36 517.853 86.244C518.027 86.186 518.607 86.012 518.723 86.244C518.897 86.476 518.027 86.534 517.853 86.534C517.389 86.65 516.983 86.766 516.577 86.766C514.837 86.824 513.155 86.418 511.473 86.244C510.603 86.186 509.675 86.186 508.805 86.07C508.167 85.954 506.949 86.012 506.485 85.49C506.717 85.258 507.007 85.258 507.355 85.258C506.891 85.2 506.659 85.258 506.659 84.794C506.659 84.562 506.717 84.04 507.065 84.098C506.659 83.924 507.007 83.228 507.007 82.88C507.007 82.358 507.065 81.894 507.181 81.43C507.181 81.256 507.297 81.082 507.297 80.908C507.355 80.618 507.239 80.386 507.297 80.096C507.413 79.69 507.471 79.168 507.587 78.762C507.877 77.95 508.805 77.196 509.443 76.674C510.081 76.094 510.487 75.456 510.951 74.818C511.241 74.412 511.357 73.948 511.531 73.542C511.705 73.078 511.937 72.614 512.111 72.15C512.169 71.86 512.285 71.454 512.285 71.164C512.227 70.7 512.343 70.236 512.401 69.772C512.517 69.25 512.807 68.728 512.865 68.206C512.923 67.742 512.865 67.394 512.865 66.93C512.807 66.35 512.923 65.828 513.039 65.306C513.155 64.784 513.039 64.32 513.039 63.798ZM561.746 66.002C561.862 66.64 561.804 67.336 561.804 67.974C561.804 68.612 561.746 69.25 561.746 69.888C561.746 70.468 561.63 70.99 561.514 71.57C561.398 72.208 561.398 72.846 561.34 73.484C561.282 74.122 561.224 74.76 561.166 75.398C561.108 76.036 561.166 76.616 561.166 77.254C561.224 77.834 561.166 78.472 561.282 79.11C561.34 79.4 561.398 79.69 561.398 79.98C561.456 80.27 561.398 80.618 561.456 80.966C561.456 81.604 561.456 82.242 561.456 82.88C561.456 83.518 561.514 84.156 561.514 84.794C561.514 85.2 561.63 85.838 561.108 85.896C560.992 85.896 560.934 85.838 560.818 85.896C560.76 85.954 560.644 86.012 560.528 86.012C560.296 86.07 560.006 86.07 559.716 86.128C559.136 86.244 558.556 86.418 558.034 86.708C557.512 86.998 557.048 87.056 556.468 87.172C556.584 87.404 556.758 87.752 556.41 87.926C556.062 88.1 555.83 87.926 555.714 87.578C555.598 87.172 555.598 86.708 555.598 86.302C555.54 85.838 555.482 85.374 555.482 84.852C555.482 83.924 555.482 82.996 555.482 82.068C555.424 81.14 555.366 80.212 555.308 79.284C555.25 78.356 555.25 77.428 555.308 76.5C555.308 76.268 555.308 76.036 555.366 75.804C555.366 75.746 555.366 75.688 555.308 75.63C555.308 75.456 555.308 75.514 555.192 75.63C555.018 75.746 554.902 76.036 554.786 76.268C554.67 76.442 554.554 76.616 554.438 76.79C553.916 77.486 553.336 78.124 552.93 78.878C552.756 79.226 552.582 79.516 552.35 79.864C552.06 80.212 551.77 80.618 551.538 80.966C551.306 81.314 551.132 81.662 550.9 81.952C550.668 82.3 550.378 82.648 550.146 83.054C549.624 83.808 549.218 84.504 548.58 85.142C548 85.722 547.536 86.418 546.84 86.94C546.55 87.172 546.202 87.404 545.854 87.52C545.39 87.636 544.926 87.694 544.462 87.752C544.056 87.752 543.592 87.81 543.186 87.81C542.722 87.868 542.258 88.042 541.794 88.1C541.446 88.158 539.532 88.448 539.88 87.694C540.054 87.346 540.228 86.998 540.344 86.65C540.46 86.244 540.634 85.838 540.866 85.432C541.04 85.026 541.272 84.736 541.446 84.388C541.678 84.04 541.91 83.634 542.084 83.286C542.548 82.532 543.128 81.894 543.65 81.198C543.882 80.908 543.998 80.56 544.288 80.27C544.52 79.98 544.926 79.864 545.274 79.632C545.39 79.574 545.506 79.516 545.622 79.4C545.738 79.284 545.738 79.11 545.912 78.994C546.202 78.704 546.608 78.53 546.956 78.298C547.246 78.066 547.536 77.834 547.884 77.602C548.232 77.428 548.58 77.196 548.928 77.022C549.682 76.616 550.494 76.21 551.248 75.804C552.002 75.34 552.814 74.992 553.626 74.644C553.974 74.47 554.264 74.18 554.612 74.006C553.626 74.238 552.408 74.238 551.886 74.238C551.306 74.238 550.726 74.354 550.146 74.238C549.914 74.18 549.682 74.122 549.45 74.006C549.16 73.832 548.928 73.774 548.638 73.716C548.406 73.6 548.174 73.484 547.942 73.368C547.884 73.368 547.768 73.31 547.652 73.252C547.536 73.194 547.478 73.078 547.362 73.02C547.246 72.962 547.014 72.962 546.898 72.904C546.666 72.788 546.492 72.556 546.318 72.44C545.39 71.976 544.346 71.454 543.65 70.584C543.302 70.178 543.07 69.656 542.838 69.192C542.722 68.902 542.606 68.728 542.548 68.438C542.49 68.09 542.432 67.742 542.374 67.452C542.258 66.814 542.2 66.176 542.316 65.538C542.432 64.958 542.548 64.32 542.722 63.74C542.78 63.508 542.838 63.218 542.896 62.986C543.012 62.754 543.186 62.522 543.302 62.29C543.418 62.058 543.476 61.826 543.534 61.536C543.534 61.246 543.592 61.188 543.882 61.13C544.172 61.072 544.462 60.956 544.694 60.84C544.984 60.782 545.274 60.724 545.622 60.666C546.26 60.55 546.898 60.492 547.536 60.434C548.174 60.318 548.812 60.318 549.392 60.26C550.03 60.202 550.61 60.318 551.19 60.434C551.77 60.492 552.35 60.492 552.93 60.492C553.22 60.55 553.452 60.492 553.684 60.492C553.974 60.55 554.264 60.608 554.554 60.666C554.844 60.666 555.076 60.55 555.308 60.492C555.598 60.434 555.946 60.492 556.236 60.492C556.874 60.492 557.454 60.434 558.092 60.318C558.73 60.26 559.31 60.26 559.948 60.318C560.354 60.318 560.934 60.202 561.108 60.724C561.34 61.188 561.34 61.826 561.282 62.348C561.224 62.638 561.166 62.928 561.166 63.276C561.166 63.566 561.224 63.856 561.282 64.146C561.456 64.784 561.63 65.364 561.746 66.002ZM555.134 64.378C555.134 64.088 555.192 63.798 554.902 63.624C554.554 63.508 554.148 63.45 553.8 63.334C553.336 63.218 552.93 63.16 552.466 63.044C551.538 62.928 550.668 62.87 549.74 62.754C548.87 62.638 547.942 62.348 547.072 62.522C546.724 62.638 546.492 63.044 546.376 63.392C546.144 63.798 546.26 64.378 546.318 64.784C546.318 65.19 546.26 65.712 546.376 66.06C546.55 66.35 546.84 66.698 547.072 66.93C547.652 67.568 548.522 67.8 549.218 68.264C549.566 68.438 549.914 68.67 550.32 68.786C550.668 68.96 551.074 69.076 551.48 69.25C551.77 69.424 552.176 69.482 552.524 69.482C552.988 69.54 553.452 69.598 553.916 69.714C554.09 69.714 554.264 69.714 554.438 69.714C554.554 69.714 555.018 69.656 555.366 69.656C555.366 69.25 555.308 68.786 555.308 68.38C555.308 67.974 555.308 67.51 555.308 67.046C555.25 66.582 555.192 66.118 555.192 65.654C555.192 65.248 555.134 64.784 555.134 64.378ZM607.876 64.552C607.702 64.378 607.818 64.146 607.818 63.972C607.876 63.682 607.934 63.334 607.992 63.044C607.992 62.812 607.934 62.754 607.702 62.754C607.122 62.754 606.484 62.638 605.904 62.522C605.15 62.406 604.454 62.29 603.7 62.174C603.352 62.116 602.946 62 602.598 61.942C602.25 61.884 601.902 61.826 601.554 61.768C601.206 61.71 600.8 61.652 600.452 61.594C600.162 61.594 599.814 61.536 599.524 61.478C599.176 61.42 599.002 61.188 599.06 60.84C599.06 60.608 599.118 60.434 599.118 60.26C599.06 59.912 599.118 59.564 599.176 59.216V59.158C599.176 58.868 599.176 58.636 599.176 58.404C599.176 58.114 599.118 57.882 599.002 57.65C598.886 57.36 598.77 57.012 598.654 56.722C598.596 56.548 598.596 56.374 598.596 56.2C598.596 55.91 598.596 55.562 598.596 55.272C598.596 54.866 598.596 54.46 598.596 54.054C598.596 53.648 598.596 53.3 598.596 52.894C598.596 52.778 598.654 52.662 598.77 52.72C598.944 52.72 599.06 52.778 599.234 52.836C599.524 52.952 599.872 53.184 600.22 53.3C600.51 53.416 600.8 53.59 601.09 53.706C601.438 53.822 601.844 53.938 602.192 54.054C602.598 54.112 603.004 54.228 603.41 54.344C603.99 54.46 604.57 54.46 605.15 54.286C605.208 54.286 605.266 54.286 605.324 54.286C605.73 54.228 606.078 54.17 606.484 54.112C606.89 54.112 607.296 54.054 607.702 54.054C608.05 53.996 608.398 53.996 608.746 53.938C608.978 53.938 609.21 53.938 609.384 53.88C609.558 53.88 609.732 53.88 609.906 53.822C609.964 53.822 610.08 53.88 610.08 53.88C610.254 53.88 610.37 53.822 610.486 53.822C610.602 53.822 610.776 53.764 610.892 53.764C611.414 53.764 611.878 53.706 612.342 53.822C612.458 53.88 612.748 53.822 612.748 53.706C613.734 53.648 614.778 53.648 615.764 53.59C615.764 53.648 615.88 53.648 615.996 53.532C616.75 53.532 617.562 53.474 618.316 53.474C618.432 53.416 618.548 53.474 618.664 53.474C618.664 53.474 618.722 53.474 618.78 53.474C619.07 53.358 619.36 53.474 619.592 53.474C619.65 53.474 619.766 53.474 619.824 53.474C620.056 53.59 620.172 53.822 620.056 54.112C619.882 54.402 619.882 54.75 619.882 55.04C619.824 55.098 619.882 55.156 619.824 55.214C619.708 55.446 619.708 55.736 619.65 56.026C619.592 56.026 619.592 56.084 619.592 56.084C619.592 56.432 619.65 56.78 619.65 57.07C619.65 57.128 619.65 57.128 619.65 57.128C619.592 57.65 619.476 58.114 619.418 58.636C619.36 58.984 619.36 59.39 619.36 59.796C619.36 59.97 619.302 60.144 619.302 60.26C619.302 60.55 619.244 60.782 619.302 61.072C619.36 61.42 619.36 61.826 619.418 62.174C619.418 62.232 619.418 62.232 619.418 62.29C619.418 62.406 619.534 62.464 619.418 62.58C619.302 62.638 619.186 62.696 619.07 62.696C618.838 62.696 618.606 62.696 618.432 62.638C618.374 62.638 618.316 62.638 618.258 62.638C617.794 62.754 617.272 62.638 616.808 62.696C616.518 62.696 616.228 62.696 615.938 62.696C615.764 62.696 615.532 62.696 615.358 62.754C615.01 62.812 614.72 62.812 614.372 62.87C614.256 62.87 614.14 62.928 614.024 62.928C613.676 62.87 613.328 62.87 612.922 62.87C612.748 62.87 612.574 62.87 612.342 62.87C612.284 63.102 612.284 63.334 612.284 63.624C612.284 63.74 612.226 63.914 612.226 64.088C612.226 64.494 612.168 64.9 612.11 65.306C612.11 65.538 612.052 65.77 611.994 66.002C611.994 66.118 611.994 66.292 611.936 66.408C611.936 66.872 611.936 67.278 611.878 67.742C611.878 68.032 611.82 68.322 611.82 68.612C611.82 69.25 611.704 69.888 611.588 70.584C611.472 71.222 611.356 71.918 611.356 72.672C611.356 73.078 611.298 73.484 611.24 73.89C611.24 74.122 611.24 74.412 611.24 74.702C611.24 74.992 611.24 75.282 611.24 75.572C611.182 76.384 611.008 77.254 611.008 78.066C611.008 78.588 611.008 79.11 610.95 79.632C610.95 80.386 610.892 81.14 610.718 81.836C610.718 82.01 610.66 82.184 610.602 82.358C610.544 82.648 610.544 82.938 610.486 83.228C610.428 83.634 610.37 84.098 610.37 84.504C610.312 84.678 610.312 84.794 610.312 84.968C610.312 85.142 610.312 85.2 610.08 85.2C609.442 85.142 608.746 85.084 608.108 85.026C607.76 84.968 607.412 84.91 607.122 84.852C607.006 84.852 606.89 84.852 606.832 84.852C606.6 84.852 606.6 84.852 606.6 85.084C606.6 85.2 606.6 85.258 606.426 85.316C606.31 85.316 606.194 85.2 606.136 85.142C605.962 84.852 606.02 84.62 606.078 84.33C606.136 84.04 606.02 83.75 605.962 83.46C605.904 83.402 605.904 83.344 605.904 83.286C605.904 82.996 605.962 82.648 605.962 82.358C605.904 82.126 605.904 81.836 605.904 81.604C605.962 81.198 605.962 80.792 606.02 80.386C606.02 79.98 606.02 79.632 606.078 79.284C606.078 78.994 606.136 78.704 606.136 78.414C606.136 78.008 606.368 77.602 606.252 77.196C606.368 76.79 606.31 76.442 606.368 76.036C606.426 75.746 606.484 75.514 606.426 75.224C606.368 75.05 606.426 74.818 606.368 74.644C606.368 74.586 606.368 74.528 606.368 74.528C606.6 74.296 606.542 73.948 606.542 73.716C606.658 73.02 606.716 72.324 606.832 71.628C606.832 71.57 606.832 71.512 606.832 71.512C606.716 71.28 606.774 71.048 606.89 70.816C607.006 70.468 607.006 70.178 607.064 69.83C607.064 69.424 607.18 69.018 607.238 68.612C607.296 68.38 607.354 68.148 607.354 67.916C607.296 67.742 607.354 67.51 607.412 67.336C607.412 67.046 607.47 66.814 607.528 66.582C607.586 66.35 607.644 66.176 607.644 66.002C607.702 65.77 607.702 65.538 607.702 65.306C607.76 65.132 607.818 64.958 607.76 64.784C607.76 64.726 607.818 64.61 607.876 64.552ZM650.731 66.176C650.789 66.756 650.673 67.336 650.673 67.916C650.615 68.438 650.499 68.96 650.499 69.482C650.499 70.12 650.441 70.816 650.325 71.454C650.267 71.976 650.151 72.556 649.977 73.02C649.803 73.6 649.745 74.122 649.687 74.76C649.571 75.862 649.281 76.964 649.165 78.066C648.991 79.284 648.817 80.502 648.411 81.604C648.063 82.648 647.425 83.518 646.961 84.504C646.497 85.548 646.265 86.65 645.105 87.114C644.583 87.346 644.003 87.404 643.481 87.462C642.901 87.578 642.263 87.636 641.683 87.694C640.523 87.81 639.305 88.274 638.087 88.216C636.927 88.216 635.767 88.274 634.607 88.274C633.273 88.216 631.881 87.578 630.953 86.592C630.489 86.012 629.967 85.49 629.445 84.91C628.981 84.33 628.691 83.808 628.343 83.112C628.227 82.88 627.995 82.706 627.879 82.416C627.763 82.126 627.705 81.836 627.589 81.488C627.299 80.908 627.125 80.27 626.835 79.632C626.893 79.168 626.719 78.704 626.719 78.182C626.777 77.776 626.661 77.37 626.661 76.964C626.661 76.674 626.719 76.442 626.719 76.21C626.719 75.92 626.603 75.63 626.603 75.34C626.603 75.108 626.719 74.934 626.661 74.76C626.661 74.47 626.487 74.238 626.429 74.006C626.313 73.542 626.661 73.252 626.719 72.788C626.777 72.324 626.777 71.86 626.893 71.338C626.951 70.816 626.893 70.294 626.951 69.83C626.951 69.366 627.183 68.902 627.299 68.438C627.357 67.974 627.357 67.51 627.473 67.046C627.531 66.524 627.647 66.234 627.821 65.77C628.053 65.306 628.111 64.842 628.285 64.436C628.343 64.204 628.575 64.03 628.691 63.798C628.807 63.624 628.807 63.45 628.923 63.276C629.271 62.406 629.851 61.71 630.315 60.898C630.431 60.666 630.547 60.434 630.663 60.26C630.721 60.144 630.837 60.086 630.895 59.97C631.127 59.68 631.243 58.926 631.707 59.216C631.823 59.042 631.765 58.926 631.939 58.752C632.113 58.578 632.461 58.404 632.693 58.23C633.099 57.882 633.505 57.476 633.969 57.128C634.375 56.78 634.665 56.316 635.187 56.142C635.767 55.91 636.115 55.794 636.637 56.026C637.159 56.316 637.739 55.852 638.261 55.678C638.957 55.388 639.479 55.33 640.175 55.446C640.813 55.504 641.335 55.678 641.915 55.91C642.379 56.142 642.901 56.258 643.365 56.49C643.887 56.664 644.351 57.012 644.815 57.36C645.279 57.65 645.917 57.998 646.381 58.346C646.787 58.694 647.251 59.1 647.541 59.506C647.947 60.028 648.237 60.55 648.701 61.014C649.687 61.884 650.035 63.044 650.325 64.262C650.499 64.9 650.673 65.538 650.731 66.176ZM646.091 70.816C646.149 69.946 646.323 69.018 646.323 68.09C646.323 67.22 646.091 66.118 645.801 65.306C645.511 64.436 644.989 64.03 644.235 63.682C643.771 63.45 643.365 63.276 642.901 63.218C642.437 63.102 641.915 63.218 641.451 63.044C641.045 62.928 640.697 62.58 640.291 62.406C639.885 62.232 639.479 62.116 639.015 62C638.087 61.768 637.043 61.478 636.057 61.536C635.303 61.594 634.259 62 634.143 62.87C633.795 63.276 633.505 63.508 633.505 64.088C633.505 64.61 633.331 64.958 633.157 65.422C632.983 65.944 632.867 66.466 632.693 66.988C632.577 67.452 632.287 67.916 632.171 68.438C631.997 68.902 631.881 69.366 631.765 69.83C631.591 70.352 631.707 70.758 631.765 71.28C631.765 71.57 631.707 71.802 631.765 72.034C631.765 72.266 631.881 72.498 631.939 72.672C632.055 73.194 632.055 73.658 632.345 74.122C632.577 74.47 632.693 74.818 632.925 75.224C633.041 75.514 633.331 75.804 633.505 76.094C633.679 76.326 633.969 76.558 634.143 76.79C634.433 77.08 634.665 77.312 634.897 77.66C635.071 78.066 635.303 78.124 635.709 78.356C636.115 78.588 636.405 78.936 636.869 79.168C637.623 79.516 638.435 79.748 639.247 79.748C640.813 79.806 642.959 79.516 644.061 78.24C645.163 76.848 645.395 74.992 645.801 73.31C645.917 72.556 646.033 71.628 646.091 70.816ZM659.183 76.964C659.299 76.442 659.183 75.92 659.299 75.456C659.473 75.05 659.357 74.586 659.531 74.18C659.821 73.252 659.879 72.324 659.995 71.338C660.111 70.758 660.053 70.12 660.111 69.54C660.227 68.96 660.285 68.322 660.343 67.742C660.401 67.278 660.517 66.872 660.633 66.408C660.749 65.828 660.691 65.248 660.807 64.668C660.865 64.146 660.981 63.624 661.039 63.102C661.097 62.464 661.155 61.71 661.329 61.072C661.503 60.608 661.851 60.318 661.851 59.796C661.851 59.448 661.735 58.23 662.025 58.056C662.373 57.882 663.301 58.23 663.649 58.288C664.287 58.404 664.983 58.52 665.621 58.636C666.781 58.81 667.999 58.926 669.159 59.042C671.479 59.274 673.683 59.622 676.003 59.97C678.207 60.26 680.643 60.55 682.731 61.362C683.137 61.536 683.543 61.652 683.891 61.768C684.529 61.942 684.703 62.29 684.761 62.87C684.819 63.276 684.819 63.624 684.819 63.972C684.877 64.61 684.877 65.19 684.819 65.828C684.819 67.046 684.819 68.264 684.761 69.482C684.761 70.12 684.587 70.7 684.529 71.28C684.471 71.918 684.471 72.556 684.413 73.136C684.297 74.47 684.529 75.688 684.529 76.964C684.587 78.124 684.471 79.284 684.471 80.444C684.413 80.966 684.355 81.488 684.297 81.952C684.239 82.184 684.297 82.474 684.239 82.706C684.181 82.996 683.949 83.054 683.775 83.286C683.659 83.46 683.601 83.75 683.659 83.924C683.775 84.388 683.601 83.982 683.891 84.156C683.949 84.214 684.065 84.156 684.181 84.272C684.413 84.62 683.253 84.62 683.079 84.62C681.861 84.736 680.643 84.736 679.425 84.852C678.845 84.91 678.207 84.968 677.569 85.084C677.105 85.142 676.351 85.548 676.061 84.968C675.829 84.504 676.003 83.808 676.003 83.286C676.061 82.648 676.119 82.01 676.119 81.372C676.177 80.734 676.177 80.154 676.177 79.516C676.235 78.82 676.235 78.182 676.177 77.486C676.119 76.906 676.235 76.326 676.235 75.746C676.293 75.166 676.235 74.586 676.235 74.006C676.235 72.788 676.061 71.512 676.177 70.294C676.293 69.018 676.177 67.742 676.235 66.466C676.235 66.06 676.525 65.074 676.177 64.784C676.003 64.668 675.539 64.726 675.307 64.726C674.959 64.726 674.553 64.668 674.205 64.668C672.871 64.61 671.595 64.378 670.319 64.088C669.739 63.972 669.159 63.856 668.579 63.798C668.173 63.74 667.245 63.45 666.897 63.624C666.549 63.798 666.723 64.9 666.723 65.248C666.665 65.886 666.491 66.582 666.491 67.22C666.433 68.322 666.259 69.424 666.143 70.526C666.027 71.57 666.027 72.614 666.027 73.658C666.027 74.296 665.911 74.934 665.911 75.63C665.853 76.21 665.969 76.79 665.911 77.428C665.853 78.008 665.853 78.588 665.853 79.168C665.795 79.748 665.853 80.212 665.911 80.792C666.027 81.952 666.027 83.17 665.969 84.33C665.911 84.852 665.853 85.432 665.853 85.954C665.853 86.244 665.737 86.592 665.795 86.882C665.795 86.998 666.027 87.288 665.969 87.462C665.853 87.926 664.983 87.288 664.809 87.172C664.229 86.824 663.591 86.708 663.011 86.534C661.851 86.128 660.691 85.78 659.531 85.49C658.951 85.316 658.487 85.374 658.429 84.678C658.313 84.04 658.255 83.402 658.313 82.764C658.313 82.126 658.371 81.488 658.429 80.908C658.487 80.56 658.545 80.27 658.603 79.922C658.603 79.748 658.893 79.342 658.893 79.11C658.893 78.878 658.777 78.704 658.835 78.53C658.893 78.414 659.009 78.414 659.067 78.298C659.183 78.182 659.125 77.892 659.183 77.718C659.183 77.37 659.299 77.196 659.183 76.964ZM717.623 66.176C717.681 66.756 717.565 67.336 717.565 67.916C717.507 68.438 717.391 68.96 717.391 69.482C717.391 70.12 717.333 70.816 717.217 71.454C717.159 71.976 717.043 72.556 716.869 73.02C716.695 73.6 716.637 74.122 716.579 74.76C716.463 75.862 716.173 76.964 716.057 78.066C715.883 79.284 715.709 80.502 715.303 81.604C714.955 82.648 714.317 83.518 713.853 84.504C713.389 85.548 713.157 86.65 711.997 87.114C711.475 87.346 710.895 87.404 710.373 87.462C709.793 87.578 709.155 87.636 708.575 87.694C707.415 87.81 706.197 88.274 704.979 88.216C703.819 88.216 702.659 88.274 701.499 88.274C700.165 88.216 698.773 87.578 697.845 86.592C697.381 86.012 696.859 85.49 696.337 84.91C695.873 84.33 695.583 83.808 695.235 83.112C695.119 82.88 694.887 82.706 694.771 82.416C694.655 82.126 694.597 81.836 694.481 81.488C694.191 80.908 694.017 80.27 693.727 79.632C693.785 79.168 693.611 78.704 693.611 78.182C693.669 77.776 693.553 77.37 693.553 76.964C693.553 76.674 693.611 76.442 693.611 76.21C693.611 75.92 693.495 75.63 693.495 75.34C693.495 75.108 693.611 74.934 693.553 74.76C693.553 74.47 693.379 74.238 693.321 74.006C693.205 73.542 693.553 73.252 693.611 72.788C693.669 72.324 693.669 71.86 693.785 71.338C693.843 70.816 693.785 70.294 693.843 69.83C693.843 69.366 694.075 68.902 694.191 68.438C694.249 67.974 694.249 67.51 694.365 67.046C694.423 66.524 694.539 66.234 694.713 65.77C694.945 65.306 695.003 64.842 695.177 64.436C695.235 64.204 695.467 64.03 695.583 63.798C695.699 63.624 695.699 63.45 695.815 63.276C696.163 62.406 696.743 61.71 697.207 60.898C697.323 60.666 697.439 60.434 697.555 60.26C697.613 60.144 697.729 60.086 697.787 59.97C698.019 59.68 698.135 58.926 698.599 59.216C698.715 59.042 698.657 58.926 698.831 58.752C699.005 58.578 699.353 58.404 699.585 58.23C699.991 57.882 700.397 57.476 700.861 57.128C701.267 56.78 701.557 56.316 702.079 56.142C702.659 55.91 703.007 55.794 703.529 56.026C704.051 56.316 704.631 55.852 705.153 55.678C705.849 55.388 706.371 55.33 707.067 55.446C707.705 55.504 708.227 55.678 708.807 55.91C709.271 56.142 709.793 56.258 710.257 56.49C710.779 56.664 711.243 57.012 711.707 57.36C712.171 57.65 712.809 57.998 713.273 58.346C713.679 58.694 714.143 59.1 714.433 59.506C714.839 60.028 715.129 60.55 715.593 61.014C716.579 61.884 716.927 63.044 717.217 64.262C717.391 64.9 717.565 65.538 717.623 66.176ZM712.983 70.816C713.041 69.946 713.215 69.018 713.215 68.09C713.215 67.22 712.983 66.118 712.693 65.306C712.403 64.436 711.881 64.03 711.127 63.682C710.663 63.45 710.257 63.276 709.793 63.218C709.329 63.102 708.807 63.218 708.343 63.044C707.937 62.928 707.589 62.58 707.183 62.406C706.777 62.232 706.371 62.116 705.907 62C704.979 61.768 703.935 61.478 702.949 61.536C702.195 61.594 701.151 62 701.035 62.87C700.687 63.276 700.397 63.508 700.397 64.088C700.397 64.61 700.223 64.958 700.049 65.422C699.875 65.944 699.759 66.466 699.585 66.988C699.469 67.452 699.179 67.916 699.063 68.438C698.889 68.902 698.773 69.366 698.657 69.83C698.483 70.352 698.599 70.758 698.657 71.28C698.657 71.57 698.599 71.802 698.657 72.034C698.657 72.266 698.773 72.498 698.831 72.672C698.947 73.194 698.947 73.658 699.237 74.122C699.469 74.47 699.585 74.818 699.817 75.224C699.933 75.514 700.223 75.804 700.397 76.094C700.571 76.326 700.861 76.558 701.035 76.79C701.325 77.08 701.557 77.312 701.789 77.66C701.963 78.066 702.195 78.124 702.601 78.356C703.007 78.588 703.297 78.936 703.761 79.168C704.515 79.516 705.327 79.748 706.139 79.748C707.705 79.806 709.851 79.516 710.953 78.24C712.055 76.848 712.287 74.992 712.693 73.31C712.809 72.556 712.925 71.628 712.983 70.816ZM744.81 71.338C745.1 72.382 745.1 73.31 744.984 74.412C744.926 75.282 744.23 75.92 743.708 76.558C743.07 77.254 742.316 77.66 741.446 77.95C740.518 78.24 739.59 78.472 738.662 78.53C737.676 78.588 736.69 78.646 735.762 78.762C735.298 78.82 734.892 78.878 734.428 78.878C734.022 78.878 733.326 78.704 732.978 78.878C732.572 78.994 732.746 79.458 732.746 79.864C732.746 80.386 732.746 80.966 732.746 81.546C732.746 82.648 732.746 83.75 732.746 84.852C732.804 85.896 732.92 86.94 732.978 87.984C733.036 88.448 732.978 88.97 733.036 89.492C733.094 89.782 733.326 90.536 733.152 90.768C732.978 91.058 732.34 90.942 732.108 90.942C731.528 90.942 730.948 91 730.426 91.058C729.324 91.174 728.28 91.348 727.178 91.464C726.482 91.522 725.032 91.986 724.452 91.406C724.916 91.232 725.322 91.116 725.786 91.058C725.496 90.536 725.554 89.086 725.554 88.854C725.438 88.042 725.438 87.23 725.264 86.418C725.09 85.722 725.148 85.026 725.09 84.33C724.974 83.634 725.09 83.054 725.148 82.3C725.148 81.546 725.09 80.792 725.09 80.038C725.09 79.168 725.206 78.298 725.264 77.428C725.264 77.08 725.264 76.674 725.322 76.326C725.38 76.036 725.554 75.804 725.612 75.514C725.67 75.34 725.612 75.224 725.612 75.05C725.612 75.05 725.612 74.992 725.612 74.934C725.438 74.818 725.438 74.702 725.612 74.644C725.67 74.296 725.728 74.064 725.728 73.716C725.786 72.962 725.844 72.266 725.844 71.57C725.786 70.7 725.554 69.888 725.496 69.076C725.496 68.728 725.496 68.38 725.438 67.974C725.38 67.626 725.206 67.278 725.148 66.93C725.148 66.582 725.322 66.292 725.322 66.002C725.322 65.538 725.264 65.074 725.264 64.61C725.264 63.74 725.438 62.812 725.496 61.942C725.554 61.304 725.728 60.782 726.482 60.724C727.236 60.666 728.048 60.724 728.86 60.666C729.382 60.608 729.962 60.55 730.484 60.492C730.832 60.492 731.412 60.376 731.76 60.55C732.224 60.84 731.934 62.464 731.992 62.986C731.992 63.044 731.992 63.102 731.992 63.16C732.456 62.696 734.486 62.232 734.834 62.174C735.762 62.058 736.806 62.116 737.676 62.464C739.532 63.16 741.156 64.088 742.316 65.77C742.896 66.64 743.302 67.568 743.708 68.496C744.172 69.424 744.578 70.352 744.81 71.338ZM732.166 71.512C732.166 72.092 732.282 72.846 732.398 73.426C732.63 74.47 733.732 73.658 734.428 73.774C735.53 73.89 736.632 74.238 737.734 74.18C738.372 74.122 739.01 73.89 739.59 73.716C740.112 73.6 740.75 73.542 740.924 72.962C741.156 72.382 740.924 71.628 740.924 71.048C740.924 70.41 740.866 69.888 740.75 69.308C740.866 69.308 740.112 67.104 739.822 66.93C739.474 66.698 739.01 66.524 738.662 66.35C738.14 66.118 737.734 66.002 737.212 65.77C736.342 65.48 735.182 65.422 734.312 65.538C733.558 65.596 732.224 65.654 732.108 66.582C732.05 67.684 732.108 68.844 732.166 69.946C732.224 70.526 732.166 70.99 732.166 71.512ZM785.088 74.18C785.146 74.702 785.842 75.514 786.19 75.862C786.364 76.036 786.538 76.152 786.712 76.326C787.002 76.558 787.176 77.022 787.35 77.37C787.756 77.95 788.104 78.53 788.452 79.168C788.8 79.806 789.032 80.56 789.554 81.082C790.018 81.662 790.598 81.952 791.004 82.59C791.236 82.88 791.352 83.228 791.526 83.576C791.642 83.75 792.222 84.098 792.222 84.272C792.222 84.794 790.888 84.388 790.598 84.388C789.902 84.33 789.148 84.33 788.452 84.272C786.886 84.156 785.378 84.04 783.812 84.04C783.116 84.098 782.362 84.156 781.666 84.04C781.318 83.982 781.144 83.982 780.97 83.576C780.796 83.286 780.68 82.938 780.506 82.648C779.752 81.488 779.114 80.212 778.418 78.994C778.07 78.414 777.722 77.776 777.432 77.138C777.316 76.79 777.2 76.442 777.026 76.152C777.026 76.094 776.852 75.688 776.794 75.688C776.562 75.514 776.678 75.63 776.446 75.63C775.866 75.688 775.286 75.804 774.706 75.92C774.126 75.978 773.604 75.978 773.024 76.094C771.574 76.326 770.182 76.21 768.732 76.5C768.152 76.616 767.978 77.08 767.746 77.602C767.224 78.53 766.818 79.342 766.18 80.212C765.194 81.604 764.15 82.88 763.338 84.388C762.932 85.142 762.468 84.91 761.714 84.91C760.786 84.852 759.916 84.678 759.046 84.62C757.654 84.446 756.262 84.388 754.87 84.098C754.754 84.098 754.58 84.04 754.522 84.04C754.29 83.808 754.522 83.866 754.522 83.75C754.58 83.634 754.638 83.808 754.696 83.518C754.696 83.402 754.522 83.228 754.464 83.17C754.116 82.474 754.058 81.72 754.174 80.966C754.348 80.038 754.406 79.226 754.87 78.356C755.044 78.066 755.218 77.776 755.45 77.486C755.566 77.312 756.32 76.732 756.262 76.558C756.204 76.268 755.74 76.5 755.566 76.5C755.508 76.5 755.334 76.442 755.218 76.442C755.102 76.384 754.986 76.21 754.928 76.21C754.638 76.152 754.406 76.326 754.116 76.326C753.826 76.326 753.536 76.094 753.246 76.21C752.782 76.268 752.898 76.384 752.434 76.21C752.144 76.094 751.622 76.094 751.332 75.978C751.042 75.804 751.158 76.094 751.1 75.746C751.042 75.572 751.158 75.398 751.216 75.282C751.332 74.934 751.506 74.528 751.622 74.18C751.68 74.064 751.68 73.832 751.738 73.716C751.738 73.658 751.912 73.658 751.97 73.542C752.086 73.31 752.202 73.02 752.318 72.788C752.55 72.034 752.84 71.28 753.188 70.526C753.478 70.062 753.826 69.076 754.406 68.902C754.754 68.844 757.886 68.902 756.552 68.786C756.262 68.786 754.754 68.67 755.334 68.264C755.566 68.148 756.494 68.38 756.784 68.38C757.77 68.496 759.046 68.206 759.974 67.916C761.308 67.452 762.7 67.046 764.092 66.756C764.44 66.64 764.846 66.524 765.02 66.176C765.078 66.06 764.904 66.002 764.962 65.886C765.02 65.828 765.136 65.77 765.136 65.712C765.252 65.48 765.542 65.074 765.774 64.842C766.412 63.856 767.05 62.812 767.862 61.942C768.326 61.42 768.616 60.956 769.08 60.434C769.486 59.97 769.892 59.448 770.182 58.926C770.53 58.23 771.052 57.592 771.4 56.896C771.458 56.722 771.632 56.548 771.748 56.374C771.864 56.142 771.864 55.852 772.038 55.62C772.212 55.388 772.038 55.446 772.444 55.33C772.85 55.272 772.792 55.446 773.024 55.794C774.358 57.65 775.576 59.622 776.91 61.536C777.316 62.058 777.664 62.58 777.954 63.102C778.244 63.566 778.476 64.32 778.824 64.61C779.288 65.016 779.926 64.784 780.448 64.726C781.26 64.668 782.13 64.61 782.942 64.552C784.334 64.436 785.552 64.842 786.944 65.074C788.22 65.306 789.728 65.77 791.062 65.654C791.004 65.654 791.526 65.538 791.468 65.538C791.642 65.654 791.642 66.06 791.642 66.176C791.758 66.524 791.816 66.814 791.932 67.162C792.164 67.974 792.396 68.786 792.512 69.598C792.686 70.41 792.744 71.28 792.802 72.092C792.86 72.44 793.15 73.136 792.976 73.484C792.86 73.774 792.396 73.658 792.164 73.6C791.874 73.6 791.7 73.716 791.468 73.774C791.12 73.774 790.772 73.716 790.482 73.716C789.844 73.774 789.264 73.774 788.684 73.832C787.93 73.832 787.234 73.948 786.48 74.006C786.074 74.006 785.494 73.948 785.088 74.18ZM773.14 69.598C772.386 70.642 771.516 71.628 770.704 72.672C770.24 73.194 769.834 73.774 769.428 74.354C769.254 74.644 768.384 75.862 768.5 76.21C770.82 75.746 773.198 75.746 775.518 75.456C775.75 75.398 776.446 75.514 776.562 75.34C776.62 75.282 776.33 74.76 776.33 74.76C776.04 74.122 775.692 73.484 775.344 72.904C774.996 72.382 774.706 71.918 774.416 71.396C774.068 70.816 773.72 69.946 773.14 69.598ZM791.12 69.424C791.062 69.772 791.062 70.062 791.062 70.352C791.062 70.526 790.946 71.164 791.004 71.222C791.294 71.512 791.178 70.526 791.178 70.468C791.178 70.178 791.294 69.714 791.12 69.424ZM752.898 75.688C753.13 75.398 752.608 75.456 752.492 75.514C752.55 75.746 752.724 75.688 752.898 75.688ZM752.086 75.63C751.97 75.456 751.854 75.34 751.738 75.224C751.738 75.63 751.68 75.63 752.086 75.63ZM754.986 82.88C755.334 82.938 755.044 82.59 754.928 82.532C754.87 82.648 754.87 82.764 754.986 82.88ZM754.87 69.308C754.58 69.076 754.58 69.656 754.638 69.83C754.696 69.656 754.754 69.482 754.87 69.308ZM754.986 81.546C754.87 81.662 754.986 81.72 755.102 81.778C755.102 81.72 755.044 81.604 754.986 81.546ZM791.12 69.076C791.062 69.018 791.004 69.134 791.12 69.192C791.12 69.134 791.12 69.076 791.12 69.076ZM791.178 71.512C791.236 71.512 791.004 71.396 791.062 71.512C791.062 71.57 791.12 71.57 791.178 71.512ZM754.812 70.642C754.87 70.7 754.928 70.642 754.928 70.468C754.812 70.468 754.754 70.526 754.812 70.642ZM754.522 70.99C754.522 71.048 754.464 71.048 754.464 71.164C754.522 71.106 754.58 71.048 754.522 70.99ZM754.348 71.686C754.406 71.686 754.406 71.686 754.406 71.512C754.406 71.57 754.348 71.628 754.348 71.686Z" fill="#E61EAA"/>
<path d="M589.887 123.931C569.267 143.734 549.345 171.827 518.043 171.827" stroke="#E61EAA" stroke-width="10"/>
<path d="M465.656 194.279C451.663 192.53 437.723 190.155 423.747 188.292" stroke="#E61EAA" stroke-width="10"/>
<path d="M352.839 180.812C330.805 172.418 291.144 165.582 269.244 178.096C260.425 183.135 252.855 188.449 245.554 195.75C241.196 200.109 239.242 206.002 233.332 207.973" stroke="#E61EAA" stroke-width="10"/>
<path d="M233.332 240.565C236.436 254.725 237.908 264.382 245.705 275.723C249.79 281.665 252.345 282.021 252.345 289.454" stroke="#E61EAA" stroke-width="10"/>
<path d="M256.035 257.194L257.357 301.725L218.131 280.604L256.035 257.194Z" fill="#E61EAA"/>
</svg>
