<svg width="127" height="110" viewBox="0 0 127 110" fill="none" xmlns="http://www.w3.org/2000/svg">
<path fill-rule="evenodd" clip-rule="evenodd" d="M115.719 4.12168C118.401 3.75882 121.161 3.3856 124 3V58.2371C119.924 70.0435 107.471 95.1743 90.2674 101.246C68.7629 108.836 33.7653 108.836 23.6455 101.246C15.5497 95.1743 7.08138 65.8423 3.85918 51.9353C1.97858 47.4424 3.04182 42.5479 8.46585 37.5759C32.7137 15.3488 53.8628 12.4882 115.719 4.12168ZM94.0623 44.3223C87.878 43.1978 66.9919 41.6236 63.2813 44.3223C62.896 44.6025 62.3496 44.9928 61.6742 45.4754C55.8461 49.639 40.408 60.6682 35.8736 67.0919C40.5118 68.9191 47.68 70.4652 53.1615 70.4652C55.9901 70.4652 69.6062 68.7786 74.6661 64.1403C75.691 63.2008 78.5052 60.2651 81.7868 56.8418C86.0581 52.3861 91.1214 47.1042 94.0623 44.3223Z" fill="black"/>
<path d="M124 3L123.664 0.522739L126.5 0.137546V3H124ZM115.719 4.12168L115.383 1.64424L115.719 4.12168ZM124 58.2371H126.5V58.6565L126.363 59.053L124 58.2371ZM90.2674 101.246L91.0995 103.604L90.2674 101.246ZM3.85918 51.9353L6.16531 50.97L6.24695 51.1651L6.29467 51.371L3.85918 51.9353ZM8.46585 37.5759L6.77654 35.733L6.77654 35.733L8.46585 37.5759ZM63.2813 44.3223L64.7518 46.3441L63.2813 44.3223ZM94.0623 44.3223L94.5095 41.8626L99.3668 42.7457L95.7803 46.1384L94.0623 44.3223ZM61.6742 45.4754L63.1275 47.5096H63.1275L61.6742 45.4754ZM35.8736 67.0919L34.9573 69.418L31.9953 68.2511L33.8312 65.6502L35.8736 67.0919ZM74.6661 64.1403L72.9768 62.2974H72.9768L74.6661 64.1403ZM81.7868 56.8418L83.5915 58.5719L81.7868 56.8418ZM73.4011 69.2002L74.7377 71.3129L73.4011 69.2002ZM98.0653 43.0575L100.072 44.5488L98.0653 43.0575ZM61.173 43.0575L62.2325 45.3219L61.173 43.0575ZM30.0527 69.2002L29.3227 71.5913L30.0527 69.2002ZM124.336 5.47726C121.496 5.86297 118.736 6.23628 116.054 6.59912L115.383 1.64424C118.066 1.28137 120.825 0.908239 123.664 0.522739L124.336 5.47726ZM121.5 58.2371V3H126.5V58.2371H121.5ZM89.4354 98.8887C97.2721 96.1228 104.308 88.8683 109.987 80.4894C115.62 72.1791 119.66 63.1478 121.637 57.4213L126.363 59.053C124.264 65.1328 120.04 74.5702 114.126 83.2948C108.259 91.9509 100.466 100.298 91.0995 103.604L89.4354 98.8887ZM25.1455 99.2462C27.2108 100.795 30.8381 102.132 35.7629 103.059C40.6134 103.972 46.4482 104.439 52.6872 104.439C65.1926 104.439 79.0212 102.564 89.4354 98.8887L91.0995 103.604C80.009 107.518 65.5866 109.439 52.6872 109.439C46.2238 109.439 40.0676 108.957 34.8379 107.972C29.6824 107.002 25.1402 105.492 22.1455 103.246L25.1455 99.2462ZM6.29467 51.371C7.88982 58.2557 10.7868 68.9676 14.2775 78.6836C16.0239 83.5444 17.8992 88.1003 19.8106 91.784C21.7689 95.5579 23.6026 98.089 25.1455 99.2462L22.1455 103.246C19.6405 101.367 17.3798 97.9551 15.3726 94.0869C13.3186 90.1286 11.3575 85.3438 9.57198 80.3742C5.99906 70.4295 3.05074 59.5219 1.4237 52.4996L6.29467 51.371ZM10.1552 39.4188C7.6739 41.6933 6.36681 43.7896 5.82146 45.6415C5.28815 47.4525 5.42825 49.2092 6.16531 50.97L1.55305 52.9006C0.409508 50.1686 0.14093 47.2315 1.0251 44.2291C1.89722 41.2675 3.83378 38.4306 6.77654 35.733L10.1552 39.4188ZM116.054 6.59912C53.9976 14.9927 33.7184 17.8192 10.1552 39.4188L6.77654 35.733C31.7089 12.8784 53.7281 9.98363 115.383 1.64424L116.054 6.59912ZM61.8109 42.3004C62.6942 41.658 63.8306 41.2976 64.8621 41.0634C65.9562 40.815 67.2268 40.6468 68.5793 40.5343C71.2889 40.3089 74.5458 40.29 77.8203 40.3898C84.3517 40.5888 91.2529 41.2705 94.5095 41.8626L93.6151 46.7819C90.6875 46.2496 84.0534 45.582 77.668 45.3875C74.4841 45.2905 71.4373 45.3138 68.9939 45.5171C67.7699 45.6189 66.7517 45.7616 65.9691 45.9393C65.5799 46.0277 65.2803 46.1177 65.0602 46.2015C64.8312 46.2887 64.7484 46.3465 64.7518 46.3441L61.8109 42.3004ZM60.2209 43.4412C60.9003 42.9558 61.4362 42.5729 61.8109 42.3004L64.7518 46.3441C64.3557 46.6321 63.7989 47.0299 63.1275 47.5096L60.2209 43.4412ZM33.8312 65.6502C36.3382 62.0986 41.6203 57.5265 46.737 53.476C51.946 49.3524 57.3087 45.5217 60.2209 43.4412L63.1275 47.5096C60.2115 49.5928 54.9412 53.3584 49.8405 57.3963C44.6475 61.5072 39.9434 65.6615 37.916 68.5336L33.8312 65.6502ZM53.1615 72.9652C47.3305 72.9652 39.852 71.3462 34.9573 69.418L36.7899 64.7659C41.1716 66.492 48.0295 67.9652 53.1615 67.9652V72.9652ZM76.3554 65.9832C74.7707 67.4358 72.6543 68.5465 70.4951 69.4075C68.3057 70.2806 65.9084 70.9605 63.6331 71.4795C59.1265 72.5075 54.8202 72.9652 53.1615 72.9652V67.9652C54.3314 67.9652 58.2474 67.5796 62.5211 66.6047C64.6358 66.1223 66.768 65.5109 68.6431 64.7632C70.5484 64.0034 72.0315 63.164 72.9768 62.2974L76.3554 65.9832ZM83.5915 58.5719C80.3568 61.9463 77.4582 64.9723 76.3554 65.9832L72.9768 62.2974C73.9239 61.4293 76.6536 58.584 79.9821 55.1118L83.5915 58.5719ZM95.7803 46.1384C92.8955 48.8674 87.8855 54.0925 83.5915 58.5719L79.9821 55.1118C84.2307 50.6797 89.3473 45.3411 92.3443 42.5061L95.7803 46.1384ZM72.0645 67.0875C78.9904 62.7058 87.6097 52.9342 96.0588 41.5662L100.072 44.5488C91.6308 55.9059 82.5317 66.382 74.7377 71.3129L72.0645 67.0875ZM96.0588 41.5662C106.502 27.5157 116.323 11.5308 121.822 1.77271L126.178 4.22729C120.605 14.1171 110.671 30.2882 100.072 44.5488L96.0588 41.5662ZM96.9554 45.2976C91.4259 42.5578 76.5133 38.6402 62.2325 45.3219L60.1136 40.7931C76.1922 33.2702 92.7597 37.6386 99.1753 40.8174L96.9554 45.2976ZM6.16531 50.97C7.39924 53.9179 10.3468 56.9412 14.7749 59.7571C19.1522 62.5406 24.7215 64.9588 30.7826 66.8092L29.3227 71.5913C22.9521 69.6464 16.9439 67.0617 12.0919 63.9763C7.29086 60.9233 3.3576 57.2117 1.55305 52.9006L6.16531 50.97ZM30.7826 66.8092C38.4647 69.1544 46.7998 70.5458 54.2726 70.658C61.8302 70.7715 68.1391 69.5709 72.0645 67.0875L74.7377 71.3129C69.5883 74.5707 62.1048 75.7762 54.1976 75.6575C46.2057 75.5375 37.404 74.0584 29.3227 71.5913L30.7826 66.8092ZM62.2325 45.3219C47.5744 52.1801 35.9903 65.105 32.0974 70.6387L28.008 67.7618C32.2122 61.7856 44.4123 48.1394 60.1136 40.7931L62.2325 45.3219Z" fill="#7036CC"/>
</svg>
