<svg width="787" height="790" viewBox="0 0 787 790" fill="none" xmlns="http://www.w3.org/2000/svg">
<rect x="786.799" y="0.826782" width="789.173" height="786.443" transform="rotate(90 786.799 0.826782)" fill="#E71EAA"/>
<rect x="69.9893" y="71.8251" width="648.542" height="221.187" fill="#1EE6D2"/>
<path d="M636.545 118.362V122.405C633.748 122.54 631.607 123.079 630.122 124.023C628.636 124.832 627.632 126.449 627.107 128.875C626.67 131.167 626.452 134.806 626.452 139.793V240.077C626.452 244.66 626.627 248.232 626.976 250.793C627.413 253.219 628.112 254.972 629.073 256.05C630.122 256.993 631.651 257.465 633.661 257.465C637.418 257.465 640.346 256.05 642.443 253.219C644.627 250.254 646.157 246.008 647.031 240.482C647.904 234.821 648.341 228.081 648.341 220.263C648.341 212.715 647.861 205.908 646.899 199.842C645.938 193.777 644.234 188.992 641.788 185.487C639.341 181.983 635.758 180.23 631.04 180.23C629.554 180.23 628.025 180.23 626.452 180.23C624.966 180.23 623.481 180.23 621.995 180.23C620.51 180.23 619.112 180.23 617.801 180.23L617.67 176.389C620.379 176.389 623.044 176.389 625.665 176.389C628.287 176.254 630.646 176.187 632.743 176.187C640.52 176.187 646.987 177.467 652.142 180.028C657.298 182.454 661.405 185.689 664.463 189.733C667.522 193.777 669.706 198.292 671.017 203.28C672.328 208.267 672.983 213.456 672.983 218.848C672.983 224.779 672.24 230.305 670.755 235.427C669.269 240.549 666.954 245.065 663.808 248.973C660.662 252.882 656.686 255.915 651.88 258.072C647.074 260.228 641.307 261.307 634.579 261.307C632.569 261.307 629.816 261.239 626.321 261.105C622.826 260.97 618.719 260.902 614 260.902C610.33 260.902 606.529 260.97 602.596 261.105C598.752 261.105 595.606 261.239 593.159 261.509V257.465C595.868 257.196 597.878 256.657 599.189 255.848C600.587 255.039 601.504 253.422 601.941 250.995C602.465 248.569 602.728 244.93 602.728 240.077V123.012H599.582C597.048 123.012 594.47 123.753 591.848 125.236C589.227 126.719 586.737 129.078 584.377 132.312C582.105 135.547 580.183 139.928 578.61 145.455C577.037 150.846 575.901 157.586 575.202 165.673H572.187C572.45 160.955 572.581 154.89 572.581 147.476C572.581 144.646 572.537 140.535 572.45 135.143C572.362 129.617 572.1 124.023 571.663 118.362C576.12 118.631 581.057 118.833 586.474 118.968C591.892 118.968 596.829 118.968 601.286 118.968C603.907 118.968 607.228 118.968 611.247 118.968C615.354 118.968 619.636 118.901 624.093 118.766C628.636 118.631 632.787 118.496 636.545 118.362Z" fill="#E71EAA"/>
<path d="M519.715 118.362V122.405C517.006 122.54 514.952 123.079 513.554 124.023C512.156 124.832 511.239 126.449 510.802 128.875C510.365 131.167 510.146 134.806 510.146 139.793V240.077C510.146 244.93 510.365 248.569 510.802 250.995C511.326 253.422 512.243 255.039 513.554 255.848C514.952 256.657 517.006 257.196 519.715 257.465V261.509C517.268 261.239 514.122 261.105 510.277 261.105C506.52 260.97 502.719 260.902 498.874 260.902C494.417 260.902 490.223 260.97 486.291 261.105C482.359 261.105 479.213 261.239 476.854 261.509V257.465C479.562 257.196 481.572 256.657 482.883 255.848C484.281 255.039 485.199 253.422 485.635 250.995C486.16 248.569 486.422 244.93 486.422 240.077V139.793C486.422 134.806 486.16 131.167 485.635 128.875C485.199 126.449 484.281 124.832 482.883 124.023C481.572 123.079 479.562 122.54 476.854 122.405V118.362C479.213 118.496 482.359 118.631 486.291 118.766C490.223 118.901 494.417 118.968 498.874 118.968C502.719 118.968 506.52 118.901 510.277 118.766C514.122 118.631 517.268 118.496 519.715 118.362ZM512.243 185.083C520.02 185.083 526.705 185.824 532.298 187.307C537.89 188.79 542.303 191.553 545.536 195.597C548.857 199.505 551.041 205.234 552.09 212.782L555.891 240.28C556.59 245.536 557.376 249.176 558.25 251.198C559.124 253.219 560.391 254.163 562.051 254.028C562.925 254.028 563.712 253.759 564.411 253.219C565.11 252.545 565.809 251.602 566.508 250.389L568.343 253.017C565.809 257.061 563.056 259.959 560.085 261.711C557.202 263.463 553.75 264.34 549.73 264.34C544.488 264.34 540.25 262.789 537.016 259.689C533.783 256.589 531.73 250.861 530.856 242.504L527.317 209.75C526.793 204.358 525.919 200.112 524.695 197.012C523.472 193.912 521.681 191.688 519.321 190.34C516.962 188.992 513.729 188.318 509.622 188.318H506.476V185.083H512.243ZM509.491 188.318V185.083C513.336 184.813 516.831 183.061 519.977 179.826C523.21 176.591 526.924 171.267 531.118 163.853L537.278 152.733C540.774 146.533 542.696 141.209 543.046 136.761C543.483 132.312 542.74 128.808 540.817 126.247C538.982 123.686 536.361 122.338 532.953 122.203V118.362C535.225 118.496 537.366 118.631 539.376 118.766C541.473 118.766 543.657 118.833 545.929 118.968C548.201 118.968 550.779 118.968 553.663 118.968C556.372 118.968 558.775 118.901 560.872 118.766C562.969 118.631 564.848 118.496 566.508 118.362V122.203C563.624 123.282 560.479 125.371 557.071 128.471C553.663 131.436 550.036 136.289 546.192 143.028L520.501 188.318H509.491Z" fill="#E71EAA"/>
<path d="M433.902 118.16L465.622 244.526C466.933 249.243 468.287 252.546 469.686 254.433C471.171 256.32 472.482 257.331 473.618 257.465V261.509C470.822 261.24 467.457 261.105 463.525 261.105C459.68 260.97 455.748 260.903 451.728 260.903C447.534 260.903 443.558 260.97 439.801 261.105C436.043 261.105 433.029 261.24 430.757 261.509V257.465C435.213 257.196 438.053 256.05 439.276 254.028C440.5 251.872 440.238 247.356 438.49 240.482L416.732 148.69L419.353 142.624L400.216 218.848C398.207 226.935 396.983 233.473 396.546 238.46C396.109 243.447 396.328 247.289 397.202 249.985C398.076 252.68 399.43 254.567 401.265 255.646C403.187 256.724 405.459 257.331 408.081 257.465V261.509C405.022 261.24 402.183 261.105 399.561 261.105C397.027 260.97 394.274 260.903 391.303 260.903C389.556 260.903 387.764 260.97 385.929 261.105C384.182 261.105 382.653 261.24 381.342 261.509V257.465C383.264 256.926 385.187 255.039 387.109 251.804C389.119 248.569 391.085 242.975 393.007 235.023L422.499 118.16C424.247 118.429 426.125 118.564 428.135 118.564C430.232 118.564 432.155 118.429 433.902 118.16ZM440.718 203.28V207.323H401.658L402.969 203.28H440.718Z" fill="#E71EAA"/>
<path d="M373.427 118.362C373.077 124.697 372.815 130.83 372.64 136.761C372.553 142.691 372.509 147.207 372.509 150.307C372.509 153.003 372.553 155.631 372.64 158.192C372.727 160.618 372.815 162.708 372.902 164.46H369.888C368.577 153.946 366.785 145.657 364.514 139.591C362.242 133.526 359.62 129.28 356.649 126.853C353.678 124.292 350.489 123.012 347.081 123.012H344.328C341.881 123.012 340.046 123.349 338.823 124.023C337.6 124.562 336.77 125.775 336.333 127.662C335.983 129.549 335.808 132.515 335.808 136.558V240.077C335.808 244.525 335.983 248.03 336.333 250.591C336.682 253.152 337.338 254.972 338.299 256.05C339.347 256.993 340.877 257.465 342.886 257.465C346.644 257.465 349.571 256.05 351.668 253.219C353.853 250.254 355.382 246.008 356.256 240.482C357.13 234.821 357.567 228.081 357.567 220.263C357.567 212.58 357.086 205.706 356.125 199.64C355.251 193.575 353.547 188.857 351.013 185.487C348.566 181.983 344.94 180.23 340.134 180.23C338.823 180.23 337.381 180.23 335.808 180.23C334.323 180.23 332.794 180.23 331.221 180.23C329.735 180.23 328.337 180.23 327.026 180.23V176.389C329.648 176.389 332.269 176.389 334.891 176.389C337.512 176.254 339.915 176.187 342.1 176.187C349.877 176.187 356.343 177.467 361.499 180.028C366.654 182.454 370.718 185.757 373.689 189.935C376.747 193.979 378.932 198.562 380.242 203.684C381.553 208.671 382.208 213.861 382.208 219.252C382.208 225.183 381.466 230.709 379.98 235.831C378.495 240.953 376.179 245.469 373.033 249.378C369.888 253.152 365.912 256.117 361.106 258.274C356.3 260.296 350.576 261.307 343.935 261.307C341.838 261.307 339.042 261.239 335.546 261.105C332.138 260.97 327.944 260.902 322.963 260.902C319.555 260.902 315.885 260.97 311.953 261.105C308.021 261.105 304.875 261.239 302.516 261.509V257.465C305.224 257.196 307.234 256.657 308.545 255.848C309.943 255.039 310.861 253.422 311.298 250.995C311.822 248.569 312.084 244.93 312.084 240.077V139.793C312.084 134.806 311.822 131.167 311.298 128.875C310.861 126.449 309.943 124.832 308.545 124.023C307.234 123.079 305.224 122.54 302.516 122.405V118.362C306.186 118.496 310.118 118.631 314.312 118.766C318.507 118.766 322.657 118.833 326.764 118.968C330.871 118.968 334.672 118.968 338.168 118.968C341.663 118.968 344.547 118.968 346.819 118.968C350.663 118.968 355.076 118.968 360.057 118.968C365.038 118.833 369.494 118.631 373.427 118.362Z" fill="#E71EAA"/>
<path d="M259.564 118.16L291.284 244.526C292.595 249.243 293.949 252.546 295.348 254.433C296.833 256.32 298.144 257.331 299.28 257.465V261.509C296.484 261.24 293.119 261.105 289.187 261.105C285.342 260.97 281.41 260.903 277.391 260.903C273.196 260.903 269.22 260.97 265.463 261.105C261.705 261.105 258.691 261.24 256.419 261.509V257.465C260.875 257.196 263.715 256.05 264.939 254.028C266.162 251.872 265.9 247.356 264.152 240.482L242.394 148.69L245.015 142.624L225.879 218.848C223.869 226.935 222.645 233.473 222.208 238.46C221.772 243.447 221.99 247.289 222.864 249.985C223.738 252.68 225.092 254.567 226.927 255.646C228.85 256.724 231.121 257.331 233.743 257.465V261.509C230.685 261.24 227.845 261.105 225.223 261.105C222.689 260.97 219.937 260.903 216.966 260.903C215.218 260.903 213.427 260.97 211.591 261.105C209.844 261.105 208.315 261.24 207.004 261.509V257.465C208.926 256.926 210.849 255.039 212.771 251.804C214.781 248.569 216.747 242.975 218.669 235.023L248.161 118.16C249.909 118.429 251.787 118.564 253.797 118.564C255.894 118.564 257.817 118.429 259.564 118.16ZM266.38 203.28V207.323H227.32L228.631 203.28H266.38Z" fill="#E71EAA"/>
<path d="M159.774 118.362V122.405C157.065 122.54 155.012 123.079 153.614 124.023C152.216 124.832 151.298 126.449 150.861 128.875C150.424 131.167 150.206 134.806 150.206 139.793V240.077C150.206 244.93 150.424 248.569 150.861 250.995C151.385 253.422 152.303 255.039 153.614 255.848C155.012 256.657 157.065 257.196 159.774 257.465V261.509C157.327 261.239 154.182 261.105 150.337 261.105C146.579 260.97 142.778 260.902 138.933 260.902C134.477 260.902 130.283 260.97 126.35 261.105C122.418 261.105 119.272 261.239 116.913 261.509V257.465C119.622 257.196 121.632 256.657 122.942 255.848C124.341 255.039 125.258 253.422 125.695 250.995C126.219 248.569 126.481 244.93 126.481 240.077V139.793C126.481 134.806 126.219 131.167 125.695 128.875C125.258 126.449 124.341 124.832 122.942 124.023C121.632 123.079 119.622 122.54 116.913 122.405V118.362C119.272 118.496 122.418 118.631 126.35 118.766C130.283 118.901 134.477 118.968 138.933 118.968C142.778 118.968 146.579 118.901 150.337 118.766C154.182 118.631 157.327 118.496 159.774 118.362ZM152.303 185.083C160.08 185.083 166.765 185.824 172.357 187.307C177.95 188.79 182.363 191.553 185.596 195.597C188.916 199.505 191.101 205.234 192.149 212.782L195.951 240.28C196.65 245.536 197.436 249.176 198.31 251.198C199.184 253.219 200.451 254.163 202.111 254.028C202.985 254.028 203.771 253.759 204.47 253.219C205.169 252.545 205.868 251.602 206.568 250.389L208.403 253.017C205.868 257.061 203.116 259.959 200.145 261.711C197.261 263.463 193.81 264.34 189.79 264.34C184.547 264.34 180.309 262.789 177.076 259.689C173.843 256.589 171.789 250.861 170.915 242.504L167.376 209.75C166.852 204.358 165.978 200.112 164.755 197.012C163.532 193.912 161.74 191.688 159.381 190.34C157.022 188.992 153.789 188.318 149.682 188.318H146.536V185.083H152.303ZM149.55 188.318V185.083C153.395 184.813 156.891 183.061 160.036 179.826C163.27 176.591 166.983 171.267 171.178 163.853L177.338 152.733C180.833 146.533 182.756 141.209 183.105 136.761C183.542 132.312 182.799 128.808 180.877 126.247C179.042 123.686 176.421 122.338 173.013 122.203V118.362C175.285 118.496 177.425 118.631 179.435 118.766C181.532 118.766 183.717 118.833 185.989 118.968C188.261 118.968 190.839 118.968 193.722 118.968C196.431 118.968 198.834 118.901 200.931 118.766C203.029 118.631 204.907 118.496 206.568 118.362V122.203C203.684 123.282 200.538 125.371 197.13 128.471C193.722 131.436 190.096 136.289 186.251 143.028L160.561 188.318H149.55Z" fill="#E71EAA"/>
<rect x="34.4902" y="462.316" width="228.014" height="228.014" fill="#1EE7D2"/>
<rect x="524.651" y="462.316" width="228.014" height="228.014" fill="#1EE7D2"/>
<rect x="314.388" y="512.834" width="162.477" height="277.166" fill="black"/>
<rect x="330.771" y="744.943" width="125.612" height="19.1149" fill="#1EE7D2"/>
<mask id="path-13-inside-1_492_389" fill="white">
<path d="M314.388 755.866H476.865V790H314.388V755.866Z"/>
</mask>
<path d="M314.388 755.866H476.865V790H314.388V755.866Z" fill="#1EE7D2"/>
<path d="M314.388 757.866H476.865V753.866H314.388V757.866Z" fill="black" mask="url(#path-13-inside-1_492_389)"/>
<rect x="138.257" y="462.316" width="19.1149" height="228.014" fill="#E71EAA"/>
<rect x="628.418" y="462.316" width="19.1149" height="228.014" fill="#E71EAA"/>
</svg>
