<svg width="1018" height="1262" viewBox="0 0 1018 1262" fill="none" xmlns="http://www.w3.org/2000/svg">
<path d="M877 751.075C877 1033.25 711.569 1262 507.5 1262C303.431 1262 138 1033.25 138 751.075C138 468.899 303.431 508.959 507.5 508.959C711.569 508.959 877 468.899 877 751.075Z" fill="white"/>
<rect y="412" width="1018" height="267" rx="15" fill="#FEDA00"/>
<rect x="199" width="621" height="557" rx="15" fill="#FEDA00"/>
<path d="M565.736 697.147C565.736 697.147 649.039 704.032 696.239 726.393C741.367 747.772 797.684 804.233 797.684 804.233L780.645 841.14C780.645 841.14 726.121 782.254 680.987 760.711C633.426 738.009 548.697 734.054 548.697 734.054L565.736 697.147Z" fill="black"/>
<path d="M208.177 822.788C208.177 822.788 258.153 765.876 299.685 743.011C347.931 716.45 436.179 707.538 436.179 707.538L454.109 743.011C454.109 743.011 370.764 750.24 324.47 774.05C279.501 797.177 226.108 858.261 226.108 858.261L208.177 822.788Z" fill="black"/>
<circle cx="616" cy="833" r="40" fill="black"/>
<circle cx="405" cy="833" r="40" fill="black"/>
<ellipse cx="507.5" cy="1079.5" rx="72.5" ry="91.5" fill="black"/>
</svg>
